<svg version="1.1" xmlns="http://www.w3.org/2000/svg" xmlns:xlink="http://www.w3.org/1999/xlink" x="0px" y="0px" viewBox="0 0 145.7 24.2">
<style type="text/css">
	.st0{fill:#1C1C1C;}
	.st1{fill:#1D1E1C;}
	.st2{fill:#1D1D1B;}
	.st3{fill:#FFFFFF;}
	.st4{fill:none;}
	.st5{opacity:0.25;}
</style>
<g id="Capa_1">
	<rect x="-670.9" y="165.9" class="st0" width="39" height="25"/>
	<g id="Capa_2_1_">
		<g id="Layer_1_2_">
			<path class="st1" d="M-1504,234c0.1,2.3-0.4,4.5-1.4,6.6c-0.9,1.8-2.2,3.3-3.7,4.5c-1.6,1.2-3.3,2.1-5.2,2.6
				c-1.9,0.6-3.9,0.8-5.9,0.9h-10.8v-29h10.5c2,0,4.1,0.2,6.1,0.7c1.9,0.4,3.7,1.3,5.3,2.4c1.6,1.2,2.9,2.7,3.8,4.4
				C-1504.4,229.2-1503.9,231.6-1504,234z M-1511.3,234c0-1.4-0.2-2.8-0.8-4.1c-0.5-1-1.2-1.9-2.1-2.6c-0.9-0.7-1.9-1.1-3-1.4
				c-1.1-0.3-2.3-0.4-3.5-0.4h-3.5v17h3.3c1.2,0,2.4-0.1,3.6-0.4c1.1-0.3,2.2-0.7,3.1-1.4c0.9-0.7,1.6-1.6,2.1-2.6
				C-1511.5,236.8-1511.2,235.4-1511.3,234L-1511.3,234z"/>
			<path class="st1" d="M-1499.9,248.6v-29h7v29H-1499.9z"/>
			<path class="st1" d="M-1472.7,248.6h-7l-11-29h7.9l6.7,20.6h0.2l6.7-20.6h7.8L-1472.7,248.6z"/>
			<path class="st1" d="M-1459.4,248.6v-29h19.5v5.9h-12.8v5.5h12.1v5.6h-12.1v6h13.5v6H-1459.4z"/>
			<path class="st1" d="M-1419.2,248.6l-6.3-11.5h-2.4v11.5h-6.8v-29h11.1c1.4,0,2.7,0.1,4.1,0.4c1.3,0.3,2.5,0.8,3.6,1.5
				c1.1,0.7,1.9,1.6,2.5,2.7c0.7,1.3,1,2.7,0.9,4.2c0.1,1.8-0.5,3.5-1.6,5c-1.1,1.4-2.7,2.4-4.4,2.9l7.6,12.4H-1419.2z
				 M-1419.5,228.4c0-0.6-0.1-1.2-0.4-1.7c-0.3-0.4-0.7-0.7-1.1-1c-0.5-0.2-1-0.4-1.5-0.5c-0.5-0.1-1.1-0.1-1.6-0.1h-3.7v6.8h3.3
				c0.6,0,1.2,0,1.8-0.1c0.6-0.1,1.1-0.3,1.6-0.5c0.5-0.2,0.9-0.6,1.2-1.1C-1419.6,229.7-1419.4,229.1-1419.5,228.4L-1419.5,228.4z"
				/>
			<path class="st1" d="M-1392.6,227.1c-0.6-0.8-1.4-1.4-2.4-1.8c-0.9-0.4-1.8-0.7-2.8-0.7c-0.5,0-0.9,0-1.4,0.1
				c-0.5,0.1-0.9,0.2-1.3,0.5c-0.4,0.2-0.7,0.5-1,0.9c-0.3,0.4-0.4,0.9-0.4,1.4c0,0.4,0.1,0.9,0.3,1.2c0.2,0.4,0.5,0.7,0.9,0.9
				c0.5,0.3,0.9,0.5,1.4,0.7c0.5,0.2,1.2,0.4,1.8,0.6c1,0.3,2,0.7,3.1,1.1c1,0.4,2,0.9,2.9,1.6c0.9,0.7,1.6,1.5,2.2,2.4
				c0.6,1.1,0.9,2.4,0.9,3.6c0,1.5-0.3,3-0.9,4.3c-0.6,1.2-1.4,2.2-2.5,3c-1.1,0.8-2.3,1.4-3.6,1.8c-1.3,0.4-2.7,0.6-4.1,0.6
				c-2.1,0-4.1-0.4-6-1.1c-1.8-0.7-3.5-1.7-4.8-3.1l4.6-4.7c0.8,0.9,1.7,1.7,2.8,2.2c1.1,0.6,2.3,0.9,3.5,0.9c0.5,0,1-0.1,1.5-0.2
				c0.5-0.1,0.9-0.3,1.3-0.5c0.4-0.3,0.7-0.6,0.9-1c0.2-0.5,0.3-1,0.3-1.5c0-0.5-0.1-1-0.4-1.4c-0.3-0.4-0.7-0.8-1.2-1
				c-0.6-0.4-1.2-0.6-1.9-0.9c-0.8-0.3-1.6-0.5-2.6-0.8c-0.9-0.3-1.8-0.7-2.7-1.1c-0.9-0.4-1.7-0.9-2.4-1.6
				c-0.7-0.7-1.3-1.4-1.7-2.3c-0.5-1.1-0.7-2.2-0.6-3.3c0-1.4,0.3-2.9,1-4.1c0.6-1.1,1.5-2.1,2.6-2.8c1.1-0.8,2.3-1.3,3.6-1.6
				c1.3-0.3,2.7-0.5,4.1-0.5c1.7,0,3.4,0.3,5,0.9c1.7,0.6,3.2,1.5,4.5,2.7L-1392.6,227.1z"/>
			<path class="st1" d="M-1357,248.6h-7l-11-29h7.9l6.7,20.6h0.2l6.7-20.6h7.7L-1357,248.6z"/>
			<path class="st1" d="M-1314.9,233.9c0,2.2-0.4,4.3-1.2,6.3c-0.7,1.8-1.9,3.5-3.3,4.9c-1.4,1.4-3.2,2.4-5,3.1
				c-2,0.7-4.2,1.1-6.3,1.1c-2.1,0-4.3-0.3-6.3-1.1c-1.9-0.7-3.6-1.8-5-3.1c-1.4-1.4-2.6-3-3.3-4.9c-0.8-2-1.2-4.1-1.2-6.3
				c0-2.2,0.4-4.3,1.2-6.3c0.7-1.8,1.9-3.4,3.3-4.8c1.4-1.3,3.2-2.4,5-3c2-0.7,4.1-1.1,6.3-1.1c2.2,0,4.3,0.4,6.3,1.1
				c1.9,0.7,3.6,1.7,5,3c1.4,1.3,2.6,3,3.3,4.8C-1315.3,229.6-1314.8,231.8-1314.9,233.9z M-1322.4,233.9c0-1.2-0.2-2.4-0.6-3.5
				c-0.4-1-1-2-1.7-2.8c-0.7-0.8-1.6-1.4-2.6-1.8c-1.1-0.5-2.2-0.7-3.4-0.7c-2.3,0-4.4,0.9-6,2.5c-0.8,0.8-1.3,1.8-1.7,2.8
				c-0.4,1.1-0.6,2.3-0.6,3.5c0,1.2,0.2,2.5,0.6,3.6c0.4,1,1,2,1.7,2.8c0.7,0.8,1.6,1.4,2.6,1.9c2.2,0.9,4.6,0.9,6.7,0
				c1-0.4,1.9-1.1,2.6-1.9c0.8-0.8,1.3-1.8,1.7-2.8C-1322.6,236.4-1322.4,235.2-1322.4,233.9z"/>
			<rect x="-1384.2" y="219.5" class="st1" width="7.1" height="6.9"/>
			<rect x="-1384.2" y="241.2" class="st1" width="7.1" height="7.4"/>
		</g>
	</g>
	<g>
		<circle class="st2" cx="-651.4" cy="230.7" r="16"/>
		<path class="st3" d="M-653.7,230.6c0,0.5-0.1,1.1-0.3,1.5c-0.2,0.4-0.5,0.8-0.9,1.1c-0.4,0.3-0.8,0.5-1.2,0.6
			c-0.4,0.1-0.9,0.2-1.4,0.2h-2.5v-6.8h2.4c0.5,0,1,0.1,1.4,0.2c0.4,0.1,0.9,0.3,1.2,0.6c0.4,0.3,0.7,0.6,0.9,1
			C-653.8,229.5-653.7,230-653.7,230.6z M-655.4,230.6c0-0.3-0.1-0.7-0.2-0.9c-0.1-0.2-0.3-0.4-0.5-0.6c-0.2-0.2-0.5-0.3-0.7-0.3
			c-0.3-0.1-0.5-0.1-0.8-0.1h-0.8v4h0.8c0.3,0,0.6,0,0.8-0.1c0.3-0.1,0.5-0.2,0.7-0.3c0.2-0.2,0.4-0.4,0.5-0.6
			C-655.4,231.2-655.4,230.9-655.4,230.6L-655.4,230.6z"/>
		<path class="st3" d="M-642.5,230.6c0,0.5-0.1,1-0.3,1.4c-0.2,0.4-0.4,0.8-0.7,1.1c-0.3,0.3-0.7,0.5-1.1,0.7
			c-0.5,0.2-0.9,0.2-1.4,0.2c-0.5,0-1-0.1-1.4-0.2c-0.4-0.2-0.8-0.4-1.1-0.7c-0.3-0.3-0.6-0.7-0.7-1.1c-0.2-0.4-0.3-0.9-0.3-1.4
			c0-0.5,0.1-1,0.3-1.4c0.2-0.4,0.4-0.8,0.7-1.1c0.3-0.3,0.7-0.5,1.1-0.7c0.5-0.2,0.9-0.2,1.4-0.2c0.5,0,1,0.1,1.4,0.2
			c0.4,0.1,0.8,0.4,1.1,0.7c0.3,0.3,0.6,0.7,0.7,1.1C-642.6,229.6-642.5,230.1-642.5,230.6z M-644.2,230.6c0-0.3,0-0.5-0.1-0.8
			c-0.1-0.2-0.2-0.4-0.4-0.6c-0.2-0.2-0.4-0.3-0.6-0.4c-0.2-0.1-0.5-0.2-0.8-0.2c-0.5,0-1,0.2-1.3,0.6c-0.2,0.2-0.3,0.4-0.4,0.6
			c-0.1,0.3-0.1,0.5-0.1,0.8c0,0.3,0,0.6,0.1,0.8c0.1,0.2,0.2,0.5,0.4,0.6c0.2,0.2,0.4,0.3,0.6,0.4c0.5,0.2,1,0.2,1.5,0
			c0.2-0.1,0.4-0.2,0.6-0.4c0.2-0.2,0.3-0.4,0.4-0.6C-644.2,231.1-644.2,230.9-644.2,230.6z"/>
		<g>
			<rect x="-652.5" y="227.2" class="st3" width="1.6" height="1.6"/>
			<rect x="-652.5" y="232.3" class="st3" width="1.6" height="1.6"/>
		</g>
	</g>
	<g>
		<path class="st3" d="M-654.2,178.5c0,0.6-0.1,1.3-0.4,1.9c-0.3,0.5-0.6,0.9-1.1,1.3c-0.4,0.3-0.9,0.6-1.5,0.7
			c-0.5,0.2-1.1,0.2-1.7,0.2h-3.1v-8.2h3c0.6,0,1.2,0.1,1.7,0.2c0.5,0.1,1.1,0.4,1.5,0.7c0.5,0.3,0.8,0.8,1.1,1.3
			C-654.3,177.1-654.2,177.8-654.2,178.5z M-656.3,178.5c0-0.4-0.1-0.8-0.2-1.2c-0.1-0.3-0.3-0.5-0.6-0.7c-0.3-0.2-0.6-0.3-0.9-0.4
			c-0.3-0.1-0.7-0.1-1-0.1h-1v4.8h0.9c0.3,0,0.7,0,1-0.1c0.3-0.1,0.6-0.2,0.9-0.4c0.3-0.2,0.5-0.5,0.6-0.7
			C-656.3,179.3-656.3,178.9-656.3,178.5L-656.3,178.5z"/>
		<path class="st3" d="M-640.6,178.5c0,0.6-0.1,1.2-0.3,1.7c-0.2,0.5-0.5,1-0.9,1.3c-0.4,0.4-0.9,0.7-1.4,0.9
			c-0.6,0.2-1.1,0.3-1.7,0.3c-0.6,0-1.2-0.1-1.7-0.3c-0.5-0.2-1-0.5-1.4-0.9c-0.4-0.4-0.7-0.8-0.9-1.3c-0.2-0.5-0.3-1.1-0.3-1.7
			c0-0.6,0.1-1.2,0.3-1.7c0.2-0.5,0.5-0.9,0.9-1.3c0.4-0.4,0.9-0.6,1.4-0.8c0.6-0.2,1.1-0.3,1.7-0.3c0.6,0,1.2,0.1,1.7,0.3
			c0.5,0.2,1,0.5,1.4,0.8c0.4,0.4,0.7,0.8,0.9,1.3C-640.7,177.3-640.6,177.9-640.6,178.5z M-642.6,178.5c0-0.3-0.1-0.7-0.2-1
			c-0.1-0.3-0.3-0.5-0.5-0.8c-0.2-0.2-0.4-0.4-0.7-0.5c-0.3-0.1-0.6-0.2-0.9-0.2c-0.6,0-1.2,0.2-1.6,0.7c-0.2,0.2-0.4,0.5-0.5,0.8
			c-0.1,0.3-0.2,0.6-0.2,1c0,0.3,0.1,0.7,0.2,1c0.1,0.3,0.3,0.6,0.5,0.8c0.2,0.2,0.4,0.4,0.7,0.5c0.6,0.2,1.3,0.2,1.8,0
			c0.3-0.1,0.5-0.3,0.7-0.5c0.2-0.2,0.4-0.5,0.5-0.8C-642.7,179.2-642.6,178.8-642.6,178.5z"/>
		<g>
			<rect x="-652.7" y="174.4" class="st3" width="2" height="2"/>
			<rect x="-652.7" y="180.6" class="st3" width="2" height="2"/>
		</g>
	</g>
	<rect x="-1562.8" y="163.3" class="st4" width="247" height="45"/>
	<text transform="matrix(1 0 0 1 -1562.8419 204.8687)" style="font-family:'AvenirNext-DemiBold'; font-size:55px;">diversivo</text>
	<rect x="-1562.8" y="98.3" class="st4" width="247" height="45"/>
	<text transform="matrix(1 0 0 1 -1562.8419 139.9223)" style="font-family:'AvenirNext-DemiBold'; font-size:55px;">divers:vo</text>
	<rect x="-751.2" y="-27.3" class="st0" width="200.3" height="78"/>
	<g>
		<path class="st3" d="M-721,3h6.8c1.3,0,2.5,0.2,3.6,0.5c1.2,0.3,2.2,0.8,3.1,1.5c0.9,0.7,1.7,1.6,2.2,2.7c0.5,1.1,0.8,2.5,0.8,4.2
			c0,1.6-0.3,2.9-0.9,4c-0.6,1.1-1.3,2.1-2.2,2.8s-2,1.3-3.2,1.6c-1.2,0.4-2.4,0.5-3.7,0.5h-6.6V3z M-714.8,17.6
			c0.8,0,1.5-0.1,2.3-0.3c0.7-0.2,1.4-0.5,2-0.9c0.6-0.4,1-1,1.4-1.7c0.3-0.7,0.5-1.6,0.5-2.7c0-1.2-0.2-2.1-0.5-2.9
			c-0.3-0.7-0.8-1.3-1.3-1.7c-0.6-0.4-1.2-0.7-1.9-0.8c-0.7-0.2-1.5-0.2-2.3-0.2h-2.1v11.3H-714.8z"/>
		<path class="st3" d="M-700.9,3h4v17.8h-4V3z"/>
		<path class="st3" d="M-694.6,3h4.3l4.5,12.5h0.1l4.5-12.5h4.1l-7.1,17.8h-3.5L-694.6,3z"/>
		<path class="st3" d="M-674.7,3h12.3v3.3h-8.3v3.8h7.9v3.2h-7.9v4.2h8.7v3.4h-12.7V3z"/>
		<path class="st3" d="M-658.4,3h6.5c0.9,0,1.8,0.1,2.6,0.3c0.8,0.2,1.5,0.5,2.2,0.9c0.6,0.4,1.1,1,1.5,1.7c0.4,0.7,0.5,1.5,0.5,2.5
			c0,1.3-0.3,2.4-1,3.2c-0.7,0.8-1.5,1.4-2.5,1.7l4.2,7.6h-4.7l-3.6-6.9h-1.7v6.9h-4V3z M-652.3,10.8c0.4,0,0.8,0,1.1-0.1
			c0.4-0.1,0.7-0.2,1-0.4c0.3-0.2,0.5-0.4,0.7-0.7c0.2-0.3,0.3-0.7,0.3-1.2c0-0.4-0.1-0.8-0.2-1c-0.2-0.3-0.4-0.5-0.7-0.7
			c-0.3-0.2-0.6-0.3-0.9-0.3c-0.4-0.1-0.7-0.1-1.1-0.1h-2.3v4.6H-652.3z"/>
		<path class="st3" d="M-631.7,7.8c-0.4-0.5-0.9-1-1.6-1.4c-0.7-0.4-1.4-0.6-2.1-0.6c-0.3,0-0.7,0-1,0.1c-0.3,0.1-0.6,0.2-0.9,0.3
			c-0.3,0.1-0.5,0.3-0.6,0.6c-0.2,0.2-0.2,0.5-0.2,0.9c0,0.3,0.1,0.6,0.2,0.8c0.2,0.2,0.4,0.4,0.7,0.6c0.3,0.2,0.7,0.3,1.1,0.5
			c0.4,0.1,1,0.3,1.6,0.4c0.6,0.2,1.2,0.4,1.9,0.6c0.6,0.2,1.2,0.6,1.8,1c0.5,0.4,1,0.9,1.3,1.5c0.3,0.6,0.5,1.3,0.5,2.2
			c0,1.1-0.2,2-0.6,2.7c-0.4,0.8-0.9,1.4-1.6,1.8c-0.7,0.5-1.4,0.8-2.3,1c-0.8,0.2-1.7,0.3-2.7,0.3c-1.3,0-2.6-0.2-3.9-0.7
			c-1.3-0.5-2.3-1.2-3.1-2.2l2.8-2.8c0.4,0.6,1,1.2,1.8,1.6c0.8,0.4,1.6,0.6,2.5,0.6c0.3,0,0.6,0,0.9-0.1c0.3-0.1,0.6-0.2,0.9-0.3
			c0.3-0.2,0.5-0.4,0.6-0.6c0.2-0.3,0.2-0.6,0.2-1c0-0.4-0.1-0.7-0.2-0.9c-0.2-0.3-0.4-0.5-0.7-0.7c-0.3-0.2-0.7-0.4-1.2-0.5
			c-0.5-0.1-1-0.3-1.7-0.4c-0.6-0.2-1.3-0.3-1.8-0.6c-0.6-0.2-1.1-0.5-1.6-0.9c-0.5-0.4-0.9-0.9-1.1-1.4c-0.3-0.6-0.4-1.3-0.4-2.1
			c0-1,0.2-1.8,0.6-2.6c0.4-0.7,0.9-1.3,1.5-1.8c0.6-0.5,1.4-0.8,2.2-1c0.8-0.2,1.6-0.3,2.5-0.3c1.2,0,2.4,0.2,3.6,0.7
			c1.2,0.4,2.1,1.1,2.8,2L-631.7,7.8z"/>
		<path class="st3" d="M-625.4,20.9h4v-5.9h-4V20.9z M-625.4,3v5.9h4V3H-625.4z"/>
		<path class="st3" d="M-619.1,3h4.3l4.5,12.5h0.1l4.5-12.5h4.1l-7.1,17.8h-3.5L-619.1,3z"/>
		<path class="st3" d="M-601,11.9c0-1.4,0.3-2.7,0.8-3.9c0.5-1.2,1.2-2.1,2.1-2.9c0.9-0.8,1.9-1.4,3.1-1.9c1.2-0.4,2.5-0.7,3.9-0.7
			c1.4,0,2.7,0.2,3.9,0.7c1.2,0.4,2.2,1.1,3.1,1.9c0.9,0.8,1.6,1.8,2.1,2.9s0.8,2.4,0.8,3.9c0,1.4-0.3,2.7-0.8,3.8
			c-0.5,1.2-1.2,2.2-2.1,3c-0.9,0.8-1.9,1.5-3.1,1.9c-1.2,0.5-2.5,0.7-3.9,0.7c-1.4,0-2.7-0.2-3.9-0.7c-1.2-0.5-2.2-1.1-3.1-1.9
			c-0.9-0.8-1.6-1.8-2.1-3C-600.8,14.5-601,13.2-601,11.9z M-596.7,11.9c0,1.8,0.5,3.2,1.5,4.2c1,1,2.3,1.5,3.9,1.5
			c1.6,0,3-0.5,4-1.5c1-1,1.5-2.4,1.5-4.2c0-0.8-0.1-1.6-0.4-2.3c-0.3-0.7-0.6-1.3-1.1-1.8c-0.5-0.5-1-0.9-1.7-1.2
			c-0.7-0.3-1.4-0.4-2.2-0.4s-1.6,0.1-2.2,0.4c-0.7,0.3-1.2,0.7-1.7,1.2c-0.5,0.5-0.8,1.1-1.1,1.8C-596.6,10.3-596.7,11-596.7,11.9z
			"/>
		<path class="st3" d="M-625.4,3v5.9h4V3H-625.4z"/>
		<path class="st3" d="M-625.4,14.9v5.9h4v-5.9H-625.4z"/>
	</g>
	<g>
		<rect x="-688" y="67.2" class="st0" width="74" height="75.4"/>
	</g>
	<g>
		<path class="st3" d="M-668,86.5h3.4c0.6,0,1.2,0.1,1.8,0.2c0.6,0.2,1.1,0.4,1.6,0.8c0.5,0.4,0.8,0.8,1.1,1.4
			c0.3,0.6,0.4,1.3,0.4,2.1c0,0.8-0.1,1.5-0.4,2c-0.3,0.6-0.7,1-1.1,1.4c-0.5,0.4-1,0.7-1.6,0.8c-0.6,0.2-1.2,0.3-1.8,0.3h-3.3V86.5
			z M-665,93.9c0.4,0,0.8,0,1.1-0.1c0.4-0.1,0.7-0.2,1-0.5c0.3-0.2,0.5-0.5,0.7-0.9c0.2-0.4,0.3-0.8,0.3-1.4c0-0.6-0.1-1.1-0.3-1.5
			c-0.2-0.4-0.4-0.7-0.7-0.9c-0.3-0.2-0.6-0.4-1-0.4c-0.4-0.1-0.7-0.1-1.1-0.1h-1.1v5.7H-665z"/>
		<path class="st3" d="M-652.4,86.5h2v9.1h-2V86.5z"/>
		<path class="st3" d="M-643.1,86.5h2.2l2.2,6.4h0.1l2.3-6.4h2.1l-3.6,9.1h-1.7L-643.1,86.5z"/>
		<path class="st3" d="M-667.6,100.1h6.2v1.7h-4.1v1.9h3.9v1.6h-3.9v2.1h4.4v1.7h-6.4V100.1z"/>
		<path class="st3" d="M-654.4,100.1h3.2c0.5,0,0.9,0,1.3,0.1c0.4,0.1,0.8,0.3,1.1,0.5c0.3,0.2,0.6,0.5,0.7,0.8
			c0.2,0.3,0.3,0.8,0.3,1.3c0,0.7-0.2,1.2-0.5,1.6c-0.3,0.4-0.7,0.7-1.2,0.9l2.1,3.8h-2.4l-1.8-3.5h-0.9v3.5h-2V100.1z
			 M-651.3,104.1c0.2,0,0.4,0,0.6-0.1c0.2,0,0.4-0.1,0.5-0.2c0.1-0.1,0.3-0.2,0.4-0.4c0.1-0.2,0.1-0.4,0.1-0.6c0-0.2,0-0.4-0.1-0.5
			c-0.1-0.1-0.2-0.3-0.3-0.3c-0.1-0.1-0.3-0.1-0.5-0.2c-0.2,0-0.4-0.1-0.5-0.1h-1.2v2.3H-651.3z"/>
		<path class="st3" d="M-636.4,102.6c-0.2-0.3-0.4-0.5-0.8-0.7c-0.3-0.2-0.7-0.3-1.1-0.3c-0.2,0-0.3,0-0.5,0.1
			c-0.2,0-0.3,0.1-0.4,0.2c-0.1,0.1-0.2,0.2-0.3,0.3c-0.1,0.1-0.1,0.3-0.1,0.4c0,0.2,0,0.3,0.1,0.4c0.1,0.1,0.2,0.2,0.4,0.3
			c0.2,0.1,0.3,0.2,0.6,0.2c0.2,0.1,0.5,0.1,0.8,0.2c0.3,0.1,0.6,0.2,0.9,0.3c0.3,0.1,0.6,0.3,0.9,0.5c0.3,0.2,0.5,0.5,0.6,0.8
			c0.2,0.3,0.3,0.7,0.3,1.1c0,0.5-0.1,1-0.3,1.4c-0.2,0.4-0.5,0.7-0.8,0.9c-0.3,0.2-0.7,0.4-1.1,0.5c-0.4,0.1-0.9,0.2-1.3,0.2
			c-0.7,0-1.3-0.1-1.9-0.4c-0.6-0.3-1.1-0.6-1.5-1.1l1.4-1.4c0.2,0.3,0.5,0.6,0.9,0.8c0.4,0.2,0.8,0.3,1.3,0.3c0.2,0,0.3,0,0.5-0.1
			c0.2,0,0.3-0.1,0.4-0.2c0.1-0.1,0.2-0.2,0.3-0.3c0.1-0.1,0.1-0.3,0.1-0.5c0-0.2,0-0.3-0.1-0.5c-0.1-0.1-0.2-0.2-0.4-0.3
			c-0.2-0.1-0.4-0.2-0.6-0.3c-0.2-0.1-0.5-0.1-0.8-0.2c-0.3-0.1-0.6-0.2-0.9-0.3c-0.3-0.1-0.6-0.3-0.8-0.5c-0.2-0.2-0.4-0.4-0.6-0.7
			c-0.1-0.3-0.2-0.6-0.2-1.1c0-0.5,0.1-0.9,0.3-1.3c0.2-0.4,0.4-0.7,0.8-0.9c0.3-0.2,0.7-0.4,1.1-0.5c0.4-0.1,0.8-0.2,1.2-0.2
			c0.6,0,1.2,0.1,1.8,0.3c0.6,0.2,1,0.6,1.4,1L-636.4,102.6z"/>
		<path class="st3" d="M-655.6,114.4v2.1l5.1,1.9v0.1l-5.1,1.9v2.2l7.8-3.1v-1.8L-655.6,114.4z"/>
		<path class="st3" d="M-643.9,118.2c0-0.7,0.1-1.4,0.4-2c0.3-0.6,0.6-1.1,1-1.5c0.4-0.4,0.9-0.7,1.5-0.9c0.6-0.2,1.2-0.3,1.9-0.3
			c0.7,0,1.4,0.1,2,0.3c0.6,0.2,1.1,0.5,1.6,0.9c0.4,0.4,0.8,0.9,1,1.5s0.4,1.2,0.4,2c0,0.7-0.1,1.4-0.4,1.9c-0.3,0.6-0.6,1.1-1,1.5
			c-0.4,0.4-1,0.8-1.6,1c-0.6,0.2-1.2,0.4-2,0.4c-0.7,0-1.3-0.1-1.9-0.4c-0.6-0.2-1.1-0.6-1.5-1c-0.4-0.4-0.8-0.9-1-1.5
			C-643.7,119.6-643.9,118.9-643.9,118.2z M-641.7,118.2c0,0.9,0.2,1.6,0.7,2.1c0.5,0.5,1.2,0.8,2,0.8c0.8,0,1.5-0.3,2-0.8
			c0.5-0.5,0.7-1.2,0.7-2.1c0-0.4-0.1-0.8-0.2-1.2c-0.1-0.4-0.3-0.7-0.6-0.9c-0.2-0.3-0.5-0.5-0.9-0.6c-0.3-0.1-0.7-0.2-1.1-0.2
			s-0.8,0.1-1.1,0.2c-0.3,0.1-0.6,0.3-0.9,0.6c-0.2,0.3-0.4,0.6-0.6,0.9C-641.6,117.4-641.7,117.8-641.7,118.2z"/>
		<g>
			<path class="st3" d="M-665.5,122.8h2v-3h-2V122.8z M-665.5,113.7v3h2v-3H-665.5z"/>
			<path class="st3" d="M-665.5,113.7v3h2v-3H-665.5z"/>
			<path class="st3" d="M-665.5,119.8v3h2v-3H-665.5z"/>
		</g>
		<g>
			<path class="st3" d="M-665.5,122.8h2v-3h-2V122.8z M-665.5,113.7v3h2v-3H-665.5z"/>
		</g>
	</g>
	<g>
		<circle class="st2" cx="-150.4" cy="230.9" r="16"/>
		<path class="st3" d="M-152.7,230.8c0,0.5-0.1,1.1-0.3,1.5c-0.2,0.4-0.5,0.8-0.9,1.1c-0.4,0.3-0.8,0.5-1.2,0.6
			c-0.4,0.1-0.9,0.2-1.4,0.2h-2.5v-6.8h2.4c0.5,0,1,0.1,1.4,0.2c0.4,0.1,0.9,0.3,1.2,0.6c0.4,0.3,0.7,0.6,0.9,1
			C-152.8,229.7-152.7,230.3-152.7,230.8z M-154.4,230.8c0-0.3-0.1-0.7-0.2-0.9c-0.1-0.2-0.3-0.4-0.5-0.6c-0.2-0.2-0.5-0.3-0.7-0.3
			c-0.3-0.1-0.5-0.1-0.8-0.1h-0.8v4h0.8c0.3,0,0.6,0,0.8-0.1c0.3-0.1,0.5-0.2,0.7-0.3c0.2-0.2,0.4-0.4,0.5-0.6
			C-154.5,231.5-154.4,231.1-154.4,230.8L-154.4,230.8z"/>
		<path class="st3" d="M-141.5,230.8c0,0.5-0.1,1-0.3,1.4c-0.2,0.4-0.4,0.8-0.7,1.1c-0.3,0.3-0.7,0.5-1.1,0.7
			c-0.5,0.2-0.9,0.2-1.4,0.2c-0.5,0-1-0.1-1.4-0.2c-0.4-0.2-0.8-0.4-1.1-0.7c-0.3-0.3-0.6-0.7-0.7-1.1c-0.2-0.4-0.3-0.9-0.3-1.4
			c0-0.5,0.1-1,0.3-1.4c0.2-0.4,0.4-0.8,0.7-1.1c0.3-0.3,0.7-0.5,1.1-0.7c0.5-0.2,0.9-0.2,1.4-0.2c0.5,0,1,0.1,1.4,0.2
			c0.4,0.1,0.8,0.4,1.1,0.7c0.3,0.3,0.6,0.7,0.7,1.1C-141.6,229.8-141.5,230.3-141.5,230.8z M-143.2,230.8c0-0.3,0-0.5-0.1-0.8
			c-0.1-0.2-0.2-0.4-0.4-0.6c-0.2-0.2-0.4-0.3-0.6-0.4c-0.2-0.1-0.5-0.2-0.8-0.2c-0.5,0-1,0.2-1.3,0.6c-0.2,0.2-0.3,0.4-0.4,0.6
			c-0.1,0.3-0.1,0.5-0.1,0.8c0,0.3,0,0.6,0.1,0.8c0.1,0.2,0.2,0.5,0.4,0.6c0.2,0.2,0.4,0.3,0.6,0.4c0.5,0.2,1,0.2,1.5,0
			c0.2-0.1,0.4-0.2,0.6-0.4c0.2-0.2,0.3-0.4,0.4-0.6C-143.3,231.4-143.2,231.1-143.2,230.8z"/>
		<g>
			<rect x="-151.5" y="227.5" class="st3" width="1.6" height="1.6"/>
			<rect x="-151.5" y="232.6" class="st3" width="1.6" height="1.6"/>
		</g>
	</g>
	<g>
		<rect x="-169.9" y="166.2" class="st0" width="39" height="25"/>
		<g>
			<path class="st3" d="M-153.2,178.7c0,0.6-0.1,1.3-0.4,1.9c-0.3,0.5-0.6,0.9-1.1,1.3c-0.4,0.3-0.9,0.6-1.5,0.7
				c-0.5,0.2-1.1,0.2-1.7,0.2h-3.1v-8.2h3c0.6,0,1.2,0.1,1.7,0.2c0.5,0.1,1.1,0.4,1.5,0.7c0.5,0.3,0.8,0.8,1.1,1.3
				C-153.3,177.4-153.2,178.1-153.2,178.7z M-155.3,178.7c0-0.4-0.1-0.8-0.2-1.2c-0.1-0.3-0.3-0.5-0.6-0.7c-0.3-0.2-0.6-0.3-0.9-0.4
				c-0.3-0.1-0.7-0.1-1-0.1h-1v4.8h0.9c0.3,0,0.7,0,1-0.1c0.3-0.1,0.6-0.2,0.9-0.4c0.3-0.2,0.5-0.5,0.6-0.7
				C-155.3,179.5-155.3,179.1-155.3,178.7L-155.3,178.7z"/>
			<path class="st3" d="M-139.6,178.7c0,0.6-0.1,1.2-0.3,1.7c-0.2,0.5-0.5,1-0.9,1.3c-0.4,0.4-0.9,0.7-1.4,0.9
				c-0.6,0.2-1.1,0.3-1.7,0.3c-0.6,0-1.2-0.1-1.7-0.3c-0.5-0.2-1-0.5-1.4-0.9c-0.4-0.4-0.7-0.8-0.9-1.3c-0.2-0.5-0.3-1.1-0.3-1.7
				c0-0.6,0.1-1.2,0.3-1.7c0.2-0.5,0.5-0.9,0.9-1.3c0.4-0.4,0.9-0.6,1.4-0.8c0.6-0.2,1.1-0.3,1.7-0.3c0.6,0,1.2,0.1,1.7,0.3
				c0.5,0.2,1,0.5,1.4,0.8c0.4,0.4,0.7,0.8,0.9,1.3C-139.7,177.6-139.6,178.1-139.6,178.7z M-141.6,178.7c0-0.3-0.1-0.7-0.2-1
				c-0.1-0.3-0.3-0.5-0.5-0.8c-0.2-0.2-0.4-0.4-0.7-0.5c-0.3-0.1-0.6-0.2-0.9-0.2c-0.6,0-1.2,0.2-1.6,0.7c-0.2,0.2-0.4,0.5-0.5,0.8
				c-0.1,0.3-0.2,0.6-0.2,1c0,0.3,0.1,0.7,0.2,1c0.1,0.3,0.3,0.6,0.5,0.8c0.2,0.2,0.4,0.4,0.7,0.5c0.6,0.2,1.3,0.2,1.8,0
				c0.3-0.1,0.5-0.3,0.7-0.5c0.2-0.2,0.4-0.5,0.5-0.8C-141.7,179.4-141.6,179.1-141.6,178.7z"/>
			<g>
				<rect x="-151.7" y="174.6" class="st3" width="2" height="2"/>
				<rect x="-151.7" y="180.8" class="st3" width="2" height="2"/>
			</g>
		</g>
	</g>
	<g>
		<circle class="st3" cx="-384.9" cy="230.9" r="16"/>
		<path class="st0" d="M-387.3,230.8c0,0.5-0.1,1.1-0.3,1.5c-0.2,0.4-0.5,0.8-0.9,1.1c-0.4,0.3-0.8,0.5-1.2,0.6
			c-0.4,0.1-0.9,0.2-1.4,0.2h-2.5v-6.8h2.4c0.5,0,1,0.1,1.4,0.2c0.4,0.1,0.9,0.3,1.2,0.6c0.4,0.3,0.7,0.6,0.9,1
			C-387.4,229.7-387.2,230.3-387.3,230.8z M-389,230.8c0-0.3-0.1-0.7-0.2-0.9c-0.1-0.2-0.3-0.4-0.5-0.6c-0.2-0.2-0.5-0.3-0.7-0.3
			c-0.3-0.1-0.5-0.1-0.8-0.1h-0.8v4h0.8c0.3,0,0.6,0,0.8-0.1c0.3-0.1,0.5-0.2,0.7-0.3c0.2-0.2,0.4-0.4,0.5-0.6
			C-389,231.5-388.9,231.1-389,230.8L-389,230.8z"/>
		<path class="st0" d="M-376.1,230.8c0,0.5-0.1,1-0.3,1.4c-0.2,0.4-0.4,0.8-0.7,1.1c-0.3,0.3-0.7,0.5-1.1,0.7
			c-0.5,0.2-0.9,0.2-1.4,0.2c-0.5,0-1-0.1-1.4-0.2c-0.4-0.2-0.8-0.4-1.1-0.7c-0.3-0.3-0.6-0.7-0.7-1.1c-0.2-0.4-0.3-0.9-0.3-1.4
			c0-0.5,0.1-1,0.3-1.4c0.2-0.4,0.4-0.8,0.7-1.1c0.3-0.3,0.7-0.5,1.1-0.7c0.5-0.2,0.9-0.2,1.4-0.2c0.5,0,1,0.1,1.4,0.2
			c0.4,0.1,0.8,0.4,1.1,0.7c0.3,0.3,0.6,0.7,0.7,1.1C-376.2,229.8-376.1,230.3-376.1,230.8z M-377.8,230.8c0-0.3,0-0.5-0.1-0.8
			c-0.1-0.2-0.2-0.4-0.4-0.6c-0.2-0.2-0.4-0.3-0.6-0.4c-0.2-0.1-0.5-0.2-0.8-0.2c-0.5,0-1,0.2-1.3,0.6c-0.2,0.2-0.3,0.4-0.4,0.6
			c-0.1,0.3-0.1,0.5-0.1,0.8c0,0.3,0,0.6,0.1,0.8c0.1,0.2,0.2,0.5,0.4,0.6c0.2,0.2,0.4,0.3,0.6,0.4c0.5,0.2,1,0.2,1.5,0
			c0.2-0.1,0.4-0.2,0.6-0.4c0.2-0.2,0.3-0.4,0.4-0.6C-377.8,231.4-377.8,231.1-377.8,230.8z"/>
		<g>
			<rect x="-386" y="227.5" class="st0" width="1.6" height="1.6"/>
			<rect x="-386" y="232.6" class="st0" width="1.6" height="1.6"/>
		</g>
	</g>
	<g>
		<rect x="-404.4" y="166.2" class="st3" width="39" height="25"/>
		<g>
			<path class="st0" d="M-387.8,178.7c0,0.6-0.1,1.3-0.4,1.9c-0.3,0.5-0.6,0.9-1.1,1.3c-0.4,0.3-0.9,0.6-1.5,0.7
				c-0.5,0.2-1.1,0.2-1.7,0.2h-3.1v-8.2h3c0.6,0,1.2,0.1,1.7,0.2c0.5,0.1,1.1,0.4,1.5,0.7c0.5,0.3,0.8,0.8,1.1,1.3
				C-387.9,177.4-387.7,178.1-387.8,178.7z M-389.8,178.7c0-0.4-0.1-0.8-0.2-1.2c-0.1-0.3-0.3-0.5-0.6-0.7c-0.3-0.2-0.6-0.3-0.9-0.4
				c-0.3-0.1-0.7-0.1-1-0.1h-1v4.8h0.9c0.3,0,0.7,0,1-0.1c0.3-0.1,0.6-0.2,0.9-0.4c0.3-0.2,0.5-0.5,0.6-0.7
				C-389.9,179.5-389.8,179.1-389.8,178.7L-389.8,178.7z"/>
			<path class="st0" d="M-374.1,178.7c0,0.6-0.1,1.2-0.3,1.7c-0.2,0.5-0.5,1-0.9,1.3c-0.4,0.4-0.9,0.7-1.4,0.9
				c-0.6,0.2-1.1,0.3-1.7,0.3c-0.6,0-1.2-0.1-1.7-0.3c-0.5-0.2-1-0.5-1.4-0.9c-0.4-0.4-0.7-0.8-0.9-1.3c-0.2-0.5-0.3-1.1-0.3-1.7
				c0-0.6,0.1-1.2,0.3-1.7c0.2-0.5,0.5-0.9,0.9-1.3c0.4-0.4,0.9-0.6,1.4-0.8c0.6-0.2,1.1-0.3,1.7-0.3c0.6,0,1.2,0.1,1.7,0.3
				c0.5,0.2,1,0.5,1.4,0.8c0.4,0.4,0.7,0.8,0.9,1.3C-374.2,177.6-374.1,178.1-374.1,178.7z M-376.2,178.7c0-0.3-0.1-0.7-0.2-1
				c-0.1-0.3-0.3-0.5-0.5-0.8c-0.2-0.2-0.4-0.4-0.7-0.5c-0.3-0.1-0.6-0.2-0.9-0.2c-0.6,0-1.2,0.2-1.6,0.7c-0.2,0.2-0.4,0.5-0.5,0.8
				c-0.1,0.3-0.2,0.6-0.2,1c0,0.3,0.1,0.7,0.2,1c0.1,0.3,0.3,0.6,0.5,0.8c0.2,0.2,0.4,0.4,0.7,0.5c0.6,0.2,1.3,0.2,1.8,0
				c0.3-0.1,0.5-0.3,0.7-0.5c0.2-0.2,0.4-0.5,0.5-0.8C-376.2,179.4-376.2,179.1-376.2,178.7z"/>
			<g>
				<rect x="-386.3" y="174.6" class="st0" width="2" height="2"/>
				<rect x="-386.3" y="180.8" class="st0" width="2" height="2"/>
			</g>
		</g>
	</g>
	<g>
		<rect x="-250.2" y="-27.1" class="st0" width="200.3" height="78"/>
		<g>
			<path class="st3" d="M-220,3.2h6.8c1.3,0,2.5,0.2,3.6,0.5c1.2,0.3,2.2,0.8,3.1,1.5c0.9,0.7,1.7,1.6,2.2,2.7
				c0.5,1.1,0.8,2.5,0.8,4.2c0,1.6-0.3,2.9-0.9,4c-0.6,1.1-1.3,2.1-2.2,2.8c-0.9,0.7-2,1.3-3.2,1.6c-1.2,0.4-2.4,0.5-3.7,0.5h-6.6
				V3.2z M-213.8,17.8c0.8,0,1.5-0.1,2.3-0.3c0.7-0.2,1.4-0.5,2-0.9c0.6-0.4,1-1,1.4-1.7c0.3-0.7,0.5-1.6,0.5-2.7
				c0-1.2-0.2-2.1-0.5-2.9c-0.3-0.7-0.8-1.3-1.3-1.7s-1.2-0.7-1.9-0.8c-0.7-0.2-1.5-0.2-2.3-0.2h-2.1v11.3H-213.8z"/>
			<path class="st3" d="M-199.9,3.2h4v17.8h-4V3.2z"/>
			<path class="st3" d="M-193.6,3.2h4.3l4.5,12.5h0.1l4.5-12.5h4.1l-7.1,17.8h-3.5L-193.6,3.2z"/>
			<path class="st3" d="M-173.7,3.3h12.3v3.3h-8.3v3.8h7.9v3.2h-7.9v4.2h8.7v3.4h-12.7V3.3z"/>
			<path class="st3" d="M-157.4,3.2h6.5c0.9,0,1.8,0.1,2.6,0.3c0.8,0.2,1.5,0.5,2.2,0.9c0.6,0.4,1.1,1,1.5,1.7
				c0.4,0.7,0.5,1.5,0.5,2.5c0,1.3-0.3,2.4-1,3.2c-0.7,0.8-1.5,1.4-2.5,1.7l4.2,7.6h-4.7l-3.6-6.9h-1.7v6.9h-4V3.2z M-151.3,11.1
				c0.4,0,0.8,0,1.1-0.1c0.4-0.1,0.7-0.2,1-0.4c0.3-0.2,0.5-0.4,0.7-0.7c0.2-0.3,0.3-0.7,0.3-1.2c0-0.4-0.1-0.8-0.2-1
				c-0.2-0.3-0.4-0.5-0.7-0.7c-0.3-0.2-0.6-0.3-0.9-0.3c-0.4-0.1-0.7-0.1-1.1-0.1h-2.3v4.6H-151.3z"/>
			<path class="st3" d="M-130.7,8.1c-0.4-0.5-0.9-1-1.6-1.4c-0.7-0.4-1.4-0.6-2.1-0.6c-0.3,0-0.7,0-1,0.1c-0.3,0.1-0.6,0.2-0.9,0.3
				c-0.3,0.1-0.5,0.3-0.6,0.6c-0.2,0.2-0.2,0.5-0.2,0.9c0,0.3,0.1,0.6,0.2,0.8c0.2,0.2,0.4,0.4,0.7,0.6c0.3,0.2,0.7,0.3,1.1,0.5
				c0.4,0.1,1,0.3,1.6,0.4c0.6,0.2,1.2,0.4,1.9,0.6c0.6,0.2,1.2,0.6,1.8,1c0.5,0.4,1,0.9,1.3,1.5c0.3,0.6,0.5,1.3,0.5,2.2
				c0,1.1-0.2,2-0.6,2.7c-0.4,0.8-0.9,1.4-1.6,1.8c-0.7,0.5-1.4,0.8-2.3,1c-0.8,0.2-1.7,0.3-2.7,0.3c-1.3,0-2.6-0.2-3.9-0.7
				c-1.3-0.5-2.3-1.2-3.1-2.2l2.8-2.8c0.4,0.6,1,1.2,1.8,1.6c0.8,0.4,1.6,0.6,2.5,0.6c0.3,0,0.6,0,0.9-0.1c0.3-0.1,0.6-0.2,0.9-0.3
				c0.3-0.2,0.5-0.4,0.6-0.6c0.2-0.3,0.2-0.6,0.2-1c0-0.4-0.1-0.7-0.2-0.9c-0.2-0.3-0.4-0.5-0.7-0.7c-0.3-0.2-0.7-0.4-1.2-0.5
				c-0.5-0.1-1-0.3-1.7-0.4c-0.6-0.2-1.3-0.3-1.8-0.6c-0.6-0.2-1.1-0.5-1.6-0.9c-0.5-0.4-0.9-0.9-1.1-1.4c-0.3-0.6-0.4-1.3-0.4-2.1
				c0-1,0.2-1.8,0.6-2.6c0.4-0.7,0.9-1.3,1.5-1.8c0.6-0.5,1.4-0.8,2.2-1c0.8-0.2,1.6-0.3,2.5-0.3c1.2,0,2.4,0.2,3.6,0.7
				c1.2,0.4,2.1,1.1,2.8,2L-130.7,8.1z"/>
			<path class="st3" d="M-124.4,21.1h4v-5.9h-4V21.1z M-124.4,3.3v5.9h4V3.3H-124.4z"/>
			<path class="st3" d="M-118.2,3.2h4.3l4.5,12.5h0.1l4.5-12.5h4.1l-7.1,17.8h-3.5L-118.2,3.2z"/>
			<path class="st3" d="M-100,12.1c0-1.4,0.3-2.7,0.8-3.9s1.2-2.1,2.1-2.9c0.9-0.8,1.9-1.4,3.1-1.9c1.2-0.4,2.5-0.7,3.9-0.7
				c1.4,0,2.7,0.2,3.9,0.7c1.2,0.4,2.2,1.1,3.1,1.9c0.9,0.8,1.6,1.8,2.1,2.9s0.8,2.4,0.8,3.9c0,1.4-0.3,2.7-0.8,3.8
				c-0.5,1.2-1.2,2.2-2.1,3c-0.9,0.8-1.9,1.5-3.1,1.9c-1.2,0.5-2.5,0.7-3.9,0.7c-1.4,0-2.7-0.2-3.9-0.7c-1.2-0.5-2.2-1.1-3.1-1.9
				c-0.9-0.8-1.6-1.8-2.1-3C-99.8,14.8-100,13.5-100,12.1z M-95.7,12.1c0,1.8,0.5,3.2,1.5,4.2c1,1,2.3,1.5,3.9,1.5
				c1.6,0,3-0.5,4-1.5c1-1,1.5-2.4,1.5-4.2c0-0.8-0.1-1.6-0.4-2.3c-0.3-0.7-0.6-1.3-1.1-1.8c-0.5-0.5-1-0.9-1.7-1.2
				c-0.7-0.3-1.4-0.4-2.2-0.4s-1.6,0.1-2.2,0.4c-0.7,0.3-1.2,0.7-1.7,1.2c-0.5,0.5-0.8,1.1-1.1,1.8C-95.6,10.5-95.7,11.3-95.7,12.1z
				"/>
			<path class="st3" d="M-124.4,3.2v5.9h4V3.2H-124.4z"/>
			<path class="st3" d="M-124.4,15.2v5.9h4v-5.9H-124.4z"/>
		</g>
	</g>
	<g>
		<rect x="-486.2" y="-27.1" class="st3" width="200.3" height="78"/>
		<g>
			<path class="st0" d="M-456,3.2h6.8c1.3,0,2.5,0.2,3.6,0.5c1.2,0.3,2.2,0.8,3.1,1.5c0.9,0.7,1.7,1.6,2.2,2.7
				c0.5,1.1,0.8,2.5,0.8,4.2c0,1.6-0.3,2.9-0.9,4c-0.6,1.1-1.3,2.1-2.2,2.8c-0.9,0.7-2,1.3-3.2,1.6c-1.2,0.4-2.4,0.5-3.7,0.5h-6.6
				V3.2z M-449.8,17.8c0.8,0,1.5-0.1,2.3-0.3c0.7-0.2,1.4-0.5,2-0.9c0.6-0.4,1-1,1.4-1.7c0.3-0.7,0.5-1.6,0.5-2.7
				c0-1.2-0.2-2.1-0.5-2.9c-0.3-0.7-0.8-1.3-1.3-1.7c-0.6-0.4-1.2-0.7-1.9-0.8c-0.7-0.2-1.5-0.2-2.3-0.2h-2.1v11.3H-449.8z"/>
			<path class="st0" d="M-435.9,3.2h4v17.8h-4V3.2z"/>
			<path class="st0" d="M-429.6,3.2h4.3l4.5,12.5h0.1l4.5-12.5h4.1l-7.1,17.8h-3.5L-429.6,3.2z"/>
			<path class="st0" d="M-409.7,3.3h12.3v3.3h-8.3v3.8h7.9v3.2h-7.9v4.2h8.7v3.4h-12.7V3.3z"/>
			<path class="st0" d="M-393.4,3.2h6.5c0.9,0,1.8,0.1,2.6,0.3c0.8,0.2,1.5,0.5,2.2,0.9c0.6,0.4,1.1,1,1.5,1.7s0.5,1.5,0.5,2.5
				c0,1.3-0.3,2.4-1,3.2c-0.7,0.8-1.5,1.4-2.5,1.7l4.2,7.6h-4.7l-3.6-6.9h-1.7v6.9h-4V3.2z M-387.3,11.1c0.4,0,0.8,0,1.1-0.1
				c0.4-0.1,0.7-0.2,1-0.4c0.3-0.2,0.5-0.4,0.7-0.7c0.2-0.3,0.3-0.7,0.3-1.2c0-0.4-0.1-0.8-0.2-1c-0.2-0.3-0.4-0.5-0.7-0.7
				c-0.3-0.2-0.6-0.3-0.9-0.3c-0.4-0.1-0.7-0.1-1.1-0.1h-2.3v4.6H-387.3z"/>
			<path class="st0" d="M-366.7,8.1c-0.4-0.5-0.9-1-1.6-1.4c-0.7-0.4-1.4-0.6-2.1-0.6c-0.3,0-0.7,0-1,0.1c-0.3,0.1-0.6,0.2-0.9,0.3
				c-0.3,0.1-0.5,0.3-0.6,0.6c-0.2,0.2-0.2,0.5-0.2,0.9c0,0.3,0.1,0.6,0.2,0.8c0.2,0.2,0.4,0.4,0.7,0.6c0.3,0.2,0.7,0.3,1.1,0.5
				c0.4,0.1,1,0.3,1.6,0.4c0.6,0.2,1.2,0.4,1.9,0.6c0.6,0.2,1.2,0.6,1.8,1c0.5,0.4,1,0.9,1.3,1.5c0.3,0.6,0.5,1.3,0.5,2.2
				c0,1.1-0.2,2-0.6,2.7c-0.4,0.8-0.9,1.4-1.6,1.8c-0.7,0.5-1.4,0.8-2.3,1c-0.8,0.2-1.7,0.3-2.7,0.3c-1.3,0-2.6-0.2-3.9-0.7
				c-1.3-0.5-2.3-1.2-3.1-2.2l2.8-2.8c0.4,0.6,1,1.2,1.8,1.6c0.8,0.4,1.6,0.6,2.5,0.6c0.3,0,0.6,0,0.9-0.1c0.3-0.1,0.6-0.2,0.9-0.3
				c0.3-0.2,0.5-0.4,0.6-0.6c0.2-0.3,0.2-0.6,0.2-1c0-0.4-0.1-0.7-0.2-0.9c-0.2-0.3-0.4-0.5-0.7-0.7c-0.3-0.2-0.7-0.4-1.2-0.5
				c-0.5-0.1-1-0.3-1.7-0.4c-0.6-0.2-1.3-0.3-1.8-0.6c-0.6-0.2-1.1-0.5-1.6-0.9c-0.5-0.4-0.9-0.9-1.1-1.4c-0.3-0.6-0.4-1.3-0.4-2.1
				c0-1,0.2-1.8,0.6-2.6c0.4-0.7,0.9-1.3,1.5-1.8c0.6-0.5,1.4-0.8,2.2-1c0.8-0.2,1.6-0.3,2.5-0.3c1.2,0,2.4,0.2,3.6,0.7
				c1.2,0.4,2.1,1.1,2.8,2L-366.7,8.1z"/>
			<path class="st0" d="M-360.4,21.1h4v-5.9h-4V21.1z M-360.4,3.3v5.9h4V3.3H-360.4z"/>
			<path class="st0" d="M-354.2,3.2h4.3l4.5,12.5h0.1l4.5-12.5h4.1l-7.1,17.8h-3.5L-354.2,3.2z"/>
			<path class="st0" d="M-336,12.1c0-1.4,0.3-2.7,0.8-3.9s1.2-2.1,2.1-2.9c0.9-0.8,1.9-1.4,3.1-1.9c1.2-0.4,2.5-0.7,3.9-0.7
				c1.4,0,2.7,0.2,3.9,0.7c1.2,0.4,2.2,1.1,3.1,1.9c0.9,0.8,1.6,1.8,2.1,2.9c0.5,1.2,0.8,2.4,0.8,3.9c0,1.4-0.3,2.7-0.8,3.8
				c-0.5,1.2-1.2,2.2-2.1,3c-0.9,0.8-1.9,1.5-3.1,1.9c-1.2,0.5-2.5,0.7-3.9,0.7c-1.4,0-2.7-0.2-3.9-0.7c-1.2-0.5-2.2-1.1-3.1-1.9
				c-0.9-0.8-1.6-1.8-2.1-3C-335.8,14.8-336,13.5-336,12.1z M-331.7,12.1c0,1.8,0.5,3.2,1.5,4.2c1,1,2.3,1.5,3.9,1.5
				c1.6,0,3-0.5,4-1.5c1-1,1.5-2.4,1.5-4.2c0-0.8-0.1-1.6-0.4-2.3c-0.3-0.7-0.6-1.3-1.1-1.8c-0.5-0.5-1-0.9-1.7-1.2
				c-0.7-0.3-1.4-0.4-2.2-0.4s-1.6,0.1-2.2,0.4c-0.7,0.3-1.2,0.7-1.7,1.2c-0.5,0.5-0.8,1.1-1.1,1.8
				C-331.6,10.5-331.7,11.3-331.7,12.1z"/>
			<path class="st0" d="M-360.4,3.2v5.9h4V3.2H-360.4z"/>
			<path class="st0" d="M-360.4,15.2v5.9h4v-5.9H-360.4z"/>
		</g>
	</g>
	<g>
		<g>
			<path class="st0" d="M-486.2-161.9h6.8c1.3,0,2.5,0.2,3.6,0.5c1.2,0.3,2.2,0.8,3.1,1.5c0.9,0.7,1.7,1.6,2.2,2.7
				c0.5,1.1,0.8,2.5,0.8,4.2c0,1.6-0.3,2.9-0.9,4c-0.6,1.1-1.3,2.1-2.2,2.8c-0.9,0.7-2,1.3-3.2,1.6c-1.2,0.4-2.4,0.5-3.7,0.5h-6.6
				V-161.9z M-480.1-147.4c0.8,0,1.5-0.1,2.3-0.3c0.7-0.2,1.4-0.5,2-0.9c0.6-0.4,1-1,1.4-1.7c0.3-0.7,0.5-1.6,0.5-2.7
				c0-1.2-0.2-2.1-0.5-2.9c-0.3-0.7-0.8-1.3-1.3-1.7c-0.6-0.4-1.2-0.7-1.9-0.8c-0.7-0.2-1.5-0.2-2.3-0.2h-2.1v11.3H-480.1z"/>
			<path class="st0" d="M-466.2-161.9h4v17.8h-4V-161.9z"/>
			<path class="st0" d="M-459.9-161.9h4.3l4.5,12.5h0.1l4.5-12.5h4.1l-7.1,17.8h-3.5L-459.9-161.9z"/>
			<path class="st0" d="M-440-161.9h12.3v3.3h-8.3v3.8h7.9v3.2h-7.9v4.2h8.7v3.4H-440V-161.9z"/>
			<path class="st0" d="M-423.6-161.9h6.5c0.9,0,1.8,0.1,2.6,0.3c0.8,0.2,1.5,0.5,2.2,0.9c0.6,0.4,1.1,1,1.5,1.7
				c0.4,0.7,0.5,1.5,0.5,2.5c0,1.3-0.3,2.4-1,3.2c-0.7,0.8-1.5,1.4-2.5,1.7l4.2,7.6h-4.7l-3.6-6.9h-1.7v6.9h-4V-161.9z
				 M-417.6-154.1c0.4,0,0.8,0,1.1-0.1c0.4-0.1,0.7-0.2,1-0.4c0.3-0.2,0.5-0.4,0.7-0.7c0.2-0.3,0.3-0.7,0.3-1.2c0-0.4-0.1-0.8-0.2-1
				c-0.2-0.3-0.4-0.5-0.7-0.7c-0.3-0.2-0.6-0.3-0.9-0.3c-0.4-0.1-0.7-0.1-1.1-0.1h-2.3v4.6H-417.6z"/>
			<path class="st0" d="M-396.9-157.1c-0.4-0.5-0.9-1-1.6-1.4c-0.7-0.4-1.4-0.6-2.1-0.6c-0.3,0-0.7,0-1,0.1
				c-0.3,0.1-0.6,0.2-0.9,0.3c-0.3,0.1-0.5,0.3-0.6,0.6c-0.2,0.2-0.2,0.5-0.2,0.9c0,0.3,0.1,0.6,0.2,0.8c0.2,0.2,0.4,0.4,0.7,0.6
				c0.3,0.2,0.7,0.3,1.1,0.5c0.4,0.1,1,0.3,1.6,0.4c0.6,0.2,1.2,0.4,1.9,0.6c0.6,0.2,1.2,0.6,1.8,1c0.5,0.4,1,0.9,1.3,1.5
				c0.3,0.6,0.5,1.3,0.5,2.2c0,1.1-0.2,2-0.6,2.7c-0.4,0.8-0.9,1.4-1.6,1.8c-0.7,0.5-1.4,0.8-2.3,1c-0.8,0.2-1.7,0.3-2.7,0.3
				c-1.3,0-2.6-0.2-3.9-0.7c-1.3-0.5-2.3-1.2-3.1-2.2l2.8-2.8c0.4,0.6,1,1.2,1.8,1.6c0.8,0.4,1.6,0.6,2.5,0.6c0.3,0,0.6,0,0.9-0.1
				c0.3-0.1,0.6-0.2,0.9-0.3c0.3-0.2,0.5-0.4,0.6-0.6c0.2-0.3,0.2-0.6,0.2-1c0-0.4-0.1-0.7-0.2-0.9c-0.2-0.3-0.4-0.5-0.7-0.7
				c-0.3-0.2-0.7-0.4-1.2-0.5c-0.5-0.1-1-0.3-1.7-0.4c-0.6-0.2-1.3-0.3-1.8-0.6c-0.6-0.2-1.1-0.5-1.6-0.9c-0.5-0.4-0.9-0.9-1.1-1.4
				c-0.3-0.6-0.4-1.3-0.4-2.1c0-1,0.2-1.8,0.6-2.6c0.4-0.7,0.9-1.3,1.5-1.8c0.6-0.5,1.4-0.8,2.2-1c0.8-0.2,1.6-0.3,2.5-0.3
				c1.2,0,2.4,0.2,3.6,0.7c1.2,0.4,2.1,1.1,2.8,2L-396.9-157.1z"/>
			<path class="st0" d="M-390.7-144h4v-5.9h-4V-144z M-390.7-161.9v5.9h4v-5.9H-390.7z"/>
			<path class="st0" d="M-384.4-161.9h4.3l4.5,12.5h0.1l4.5-12.5h4.1l-7.1,17.8h-3.5L-384.4-161.9z"/>
			<path class="st0" d="M-366.3-153.1c0-1.4,0.3-2.7,0.8-3.9c0.5-1.2,1.2-2.1,2.1-2.9c0.9-0.8,1.9-1.4,3.1-1.9
				c1.2-0.4,2.5-0.7,3.9-0.7c1.4,0,2.7,0.2,3.9,0.7c1.2,0.4,2.2,1.1,3.1,1.9c0.9,0.8,1.6,1.8,2.1,2.9c0.5,1.2,0.8,2.4,0.8,3.9
				c0,1.4-0.3,2.7-0.8,3.8c-0.5,1.2-1.2,2.2-2.1,3c-0.9,0.8-1.9,1.5-3.1,1.9c-1.2,0.5-2.5,0.7-3.9,0.7c-1.4,0-2.7-0.2-3.9-0.7
				c-1.2-0.5-2.2-1.1-3.1-1.9c-0.9-0.8-1.6-1.8-2.1-3C-366-150.4-366.3-151.7-366.3-153.1z M-361.9-153.1c0,1.8,0.5,3.2,1.5,4.2
				c1,1,2.3,1.5,3.9,1.5c1.6,0,3-0.5,4-1.5c1-1,1.5-2.4,1.5-4.2c0-0.8-0.1-1.6-0.4-2.3c-0.3-0.7-0.6-1.3-1.1-1.8
				c-0.5-0.5-1-0.9-1.7-1.2c-0.7-0.3-1.4-0.4-2.2-0.4s-1.6,0.1-2.2,0.4c-0.7,0.3-1.2,0.7-1.7,1.2c-0.5,0.5-0.8,1.1-1.1,1.8
				C-361.8-154.7-361.9-153.9-361.9-153.1z"/>
			<path class="st0" d="M-390.7-161.9v5.9h4v-5.9H-390.7z"/>
			<path class="st0" d="M-390.7-150v5.9h4v-5.9H-390.7z"/>
		</g>
	</g>
	<g>
		<g>
			<rect x="-187" y="67.4" class="st0" width="74" height="75.4"/>
		</g>
		<g>
			<path class="st3" d="M-167,86.7h3.4c0.6,0,1.2,0.1,1.8,0.2c0.6,0.2,1.1,0.4,1.6,0.8c0.5,0.4,0.8,0.8,1.1,1.4
				c0.3,0.6,0.4,1.3,0.4,2.1c0,0.8-0.1,1.5-0.4,2c-0.3,0.6-0.7,1-1.1,1.4c-0.5,0.4-1,0.7-1.6,0.8c-0.6,0.2-1.2,0.3-1.8,0.3h-3.3
				V86.7z M-164,94.1c0.4,0,0.8,0,1.1-0.1c0.4-0.1,0.7-0.2,1-0.5c0.3-0.2,0.5-0.5,0.7-0.9c0.2-0.4,0.3-0.8,0.3-1.4
				c0-0.6-0.1-1.1-0.3-1.5c-0.2-0.4-0.4-0.7-0.7-0.9c-0.3-0.2-0.6-0.4-1-0.4c-0.4-0.1-0.7-0.1-1.1-0.1h-1.1v5.7H-164z"/>
			<path class="st3" d="M-151.4,86.7h2v9.1h-2V86.7z"/>
			<path class="st3" d="M-142.1,86.7h2.2l2.2,6.4h0.1l2.3-6.4h2.1l-3.6,9.1h-1.7L-142.1,86.7z"/>
			<path class="st3" d="M-166.7,100.4h6.2v1.7h-4.1v1.9h3.9v1.6h-3.9v2.1h4.4v1.7h-6.4V100.4z"/>
			<path class="st3" d="M-153.4,100.3h3.2c0.5,0,0.9,0,1.3,0.1c0.4,0.1,0.8,0.3,1.1,0.5c0.3,0.2,0.6,0.5,0.7,0.8
				c0.2,0.3,0.3,0.8,0.3,1.3c0,0.7-0.2,1.2-0.5,1.6c-0.3,0.4-0.7,0.7-1.2,0.9l2.1,3.8h-2.4l-1.8-3.5h-0.9v3.5h-2V100.3z
				 M-150.3,104.3c0.2,0,0.4,0,0.6-0.1c0.2,0,0.4-0.1,0.5-0.2c0.1-0.1,0.3-0.2,0.4-0.4c0.1-0.2,0.1-0.4,0.1-0.6c0-0.2,0-0.4-0.1-0.5
				c-0.1-0.1-0.2-0.3-0.3-0.3c-0.1-0.1-0.3-0.1-0.5-0.2c-0.2,0-0.4-0.1-0.5-0.1h-1.2v2.3H-150.3z"/>
			<path class="st3" d="M-135.4,102.8c-0.2-0.3-0.4-0.5-0.8-0.7c-0.3-0.2-0.7-0.3-1.1-0.3c-0.2,0-0.3,0-0.5,0.1
				c-0.2,0-0.3,0.1-0.4,0.2c-0.1,0.1-0.2,0.2-0.3,0.3c-0.1,0.1-0.1,0.3-0.1,0.4c0,0.2,0,0.3,0.1,0.4c0.1,0.1,0.2,0.2,0.4,0.3
				c0.2,0.1,0.3,0.2,0.6,0.2c0.2,0.1,0.5,0.1,0.8,0.2c0.3,0.1,0.6,0.2,0.9,0.3c0.3,0.1,0.6,0.3,0.9,0.5c0.3,0.2,0.5,0.5,0.6,0.8
				c0.2,0.3,0.3,0.7,0.3,1.1c0,0.5-0.1,1-0.3,1.4c-0.2,0.4-0.5,0.7-0.8,0.9c-0.3,0.2-0.7,0.4-1.1,0.5c-0.4,0.1-0.9,0.2-1.3,0.2
				c-0.7,0-1.3-0.1-1.9-0.4c-0.6-0.3-1.1-0.6-1.5-1.1l1.4-1.4c0.2,0.3,0.5,0.6,0.9,0.8c0.4,0.2,0.8,0.3,1.3,0.3c0.2,0,0.3,0,0.5-0.1
				c0.2,0,0.3-0.1,0.4-0.2c0.1-0.1,0.2-0.2,0.3-0.3c0.1-0.1,0.1-0.3,0.1-0.5c0-0.2,0-0.3-0.1-0.5c-0.1-0.1-0.2-0.2-0.4-0.3
				c-0.2-0.1-0.4-0.2-0.6-0.3c-0.2-0.1-0.5-0.1-0.8-0.2c-0.3-0.1-0.6-0.2-0.9-0.3c-0.3-0.1-0.6-0.3-0.8-0.5
				c-0.2-0.2-0.4-0.4-0.6-0.7c-0.1-0.3-0.2-0.6-0.2-1.1c0-0.5,0.1-0.9,0.3-1.3c0.2-0.4,0.4-0.7,0.8-0.9c0.3-0.2,0.7-0.4,1.1-0.5
				c0.4-0.1,0.8-0.2,1.2-0.2c0.6,0,1.2,0.1,1.8,0.3c0.6,0.2,1,0.6,1.4,1L-135.4,102.8z"/>
			<path class="st3" d="M-154.6,114.6v2.1l5.1,1.9v0.1l-5.1,1.9v2.2l7.8-3.1v-1.8L-154.6,114.6z"/>
			<path class="st3" d="M-142.9,118.5c0-0.7,0.1-1.4,0.4-2c0.3-0.6,0.6-1.1,1-1.5c0.4-0.4,0.9-0.7,1.5-0.9c0.6-0.2,1.2-0.3,1.9-0.3
				c0.7,0,1.4,0.1,2,0.3c0.6,0.2,1.1,0.5,1.6,0.9c0.4,0.4,0.8,0.9,1,1.5c0.3,0.6,0.4,1.2,0.4,2c0,0.7-0.1,1.4-0.4,1.9
				c-0.3,0.6-0.6,1.1-1,1.5c-0.4,0.4-1,0.8-1.6,1c-0.6,0.2-1.2,0.4-2,0.4c-0.7,0-1.3-0.1-1.9-0.4c-0.6-0.2-1.1-0.6-1.5-1
				c-0.4-0.4-0.8-0.9-1-1.5C-142.7,119.8-142.9,119.2-142.9,118.5z M-140.7,118.5c0,0.9,0.2,1.6,0.7,2.1c0.5,0.5,1.2,0.8,2,0.8
				c0.8,0,1.5-0.3,2-0.8c0.5-0.5,0.7-1.2,0.7-2.1c0-0.4-0.1-0.8-0.2-1.2c-0.1-0.4-0.3-0.7-0.6-0.9c-0.2-0.3-0.5-0.5-0.9-0.6
				c-0.3-0.1-0.7-0.2-1.1-0.2c-0.4,0-0.8,0.1-1.1,0.2c-0.3,0.1-0.6,0.3-0.9,0.6c-0.2,0.3-0.4,0.6-0.6,0.9
				C-140.6,117.7-140.7,118-140.7,118.5z"/>
			<g>
				<path class="st3" d="M-164.5,123.1h2v-3h-2V123.1z M-164.5,114v3h2v-3H-164.5z"/>
				<path class="st3" d="M-164.5,113.9v3h2v-3H-164.5z"/>
				<path class="st3" d="M-164.5,120v3h2v-3H-164.5z"/>
			</g>
			<g>
				<path class="st3" d="M-164.5,123.1h2v-3h-2V123.1z M-164.5,114v3h2v-3H-164.5z"/>
			</g>
		</g>
	</g>
	<g>
		<path class="st3" d="M70.3,178.7c0,0.6-0.1,1.3-0.4,1.9c-0.3,0.5-0.6,0.9-1.1,1.3c-0.4,0.3-0.9,0.6-1.5,0.7
			c-0.5,0.2-1.1,0.2-1.7,0.2h-3.1v-8.2h3c0.6,0,1.2,0.1,1.7,0.2c0.5,0.1,1.1,0.4,1.5,0.7c0.5,0.3,0.8,0.8,1.1,1.3
			C70.2,177.4,70.4,178.1,70.3,178.7z M68.3,178.7c0-0.4-0.1-0.8-0.2-1.2c-0.1-0.3-0.3-0.5-0.6-0.7c-0.3-0.2-0.6-0.3-0.9-0.4
			c-0.3-0.1-0.7-0.1-1-0.1h-1v4.8h0.9c0.3,0,0.7,0,1-0.1c0.3-0.1,0.6-0.2,0.9-0.4c0.3-0.2,0.5-0.5,0.6-0.7
			C68.2,179.5,68.3,179.1,68.3,178.7L68.3,178.7z"/>
		<path class="st3" d="M84,178.7c0,0.6-0.1,1.2-0.3,1.7c-0.2,0.5-0.5,1-0.9,1.3c-0.4,0.4-0.9,0.7-1.4,0.9c-0.6,0.2-1.1,0.3-1.7,0.3
			c-0.6,0-1.2-0.1-1.7-0.3c-0.5-0.2-1-0.5-1.4-0.9c-0.4-0.4-0.7-0.8-0.9-1.3c-0.2-0.5-0.3-1.1-0.3-1.7c0-0.6,0.1-1.2,0.3-1.7
			c0.2-0.5,0.5-0.9,0.9-1.3c0.4-0.4,0.9-0.6,1.4-0.8c0.6-0.2,1.1-0.3,1.7-0.3c0.6,0,1.2,0.1,1.7,0.3c0.5,0.2,1,0.5,1.4,0.8
			c0.4,0.4,0.7,0.8,0.9,1.3C83.9,177.6,84,178.1,84,178.7z M81.9,178.7c0-0.3-0.1-0.7-0.2-1c-0.1-0.3-0.3-0.5-0.5-0.8
			c-0.2-0.2-0.4-0.4-0.7-0.5c-0.3-0.1-0.6-0.2-0.9-0.2c-0.6,0-1.2,0.2-1.6,0.7c-0.2,0.2-0.4,0.5-0.5,0.8c-0.1,0.3-0.2,0.6-0.2,1
			c0,0.3,0.1,0.7,0.2,1c0.1,0.3,0.3,0.6,0.5,0.8c0.2,0.2,0.4,0.4,0.7,0.5c0.6,0.2,1.3,0.2,1.8,0c0.3-0.1,0.5-0.3,0.7-0.5
			c0.2-0.2,0.4-0.5,0.5-0.8C81.9,179.4,81.9,179.1,81.9,178.7z"/>
		<g>
			<rect x="71.8" y="174.6" class="st3" width="2" height="2"/>
			<rect x="71.8" y="180.8" class="st3" width="2" height="2"/>
		</g>
	</g>
	<g>
		<path class="st3" d="M1.7,3h6.9c1.3,0,2.5,0.2,3.7,0.5c1.2,0.3,2.3,0.8,3.2,1.5c0.9,0.7,1.7,1.6,2.2,2.8c0.6,1.2,0.8,2.6,0.8,4.3
			c0,1.6-0.3,3-0.9,4.1c-0.6,1.1-1.3,2.1-2.3,2.8c-0.9,0.8-2,1.3-3.2,1.7C11,21,9.7,21.2,8.4,21.2H1.7V3z M7.9,17.8
			c0.8,0,1.5-0.1,2.3-0.3c0.7-0.2,1.4-0.5,2-0.9c0.6-0.4,1-1,1.4-1.8c0.3-0.7,0.5-1.7,0.5-2.8c0-1.2-0.2-2.2-0.5-2.9
			c-0.3-0.8-0.8-1.3-1.4-1.8s-1.2-0.7-2-0.9C9.5,6.4,8.7,6.3,7.9,6.3H5.8v11.5H7.9z"/>
		<path class="st3" d="M22.1,3h4.1v18.2h-4.1V3z"/>
		<path class="st3" d="M28.6,3H33l4.6,12.8h0.1L42.3,3h4.2l-7.3,18.2h-3.5L28.6,3z"/>
		<path class="st3" d="M48.8,3h12.6v3.4h-8.5v3.8h8v3.2h-8v4.3h8.9v3.5h-13V3z"/>
		<path class="st3" d="M65.5,3h6.6c0.9,0,1.8,0.1,2.7,0.3c0.8,0.2,1.6,0.5,2.2,0.9c0.6,0.4,1.1,1,1.5,1.7C78.8,6.6,79,7.4,79,8.5
			c0,1.3-0.3,2.4-1,3.3c-0.7,0.9-1.5,1.5-2.5,1.8l4.3,7.7H75l-3.6-7.1h-1.8v7.1h-4.1V3z M71.7,11c0.4,0,0.8,0,1.2-0.1
			c0.4-0.1,0.7-0.2,1-0.4c0.3-0.2,0.5-0.4,0.7-0.8c0.2-0.3,0.3-0.7,0.3-1.3c0-0.4-0.1-0.8-0.3-1.1C74.5,7.2,74.2,7,74,6.8
			c-0.3-0.2-0.6-0.3-1-0.4c-0.4-0.1-0.7-0.1-1.1-0.1h-2.4V11H71.7z"/>
		<path class="st3" d="M92.7,7.9c-0.4-0.5-0.9-1-1.6-1.4C90.5,6.2,89.7,6,88.9,6c-0.3,0-0.7,0-1,0.1c-0.3,0.1-0.6,0.2-0.9,0.3
			c-0.3,0.1-0.5,0.3-0.6,0.6c-0.2,0.2-0.2,0.5-0.2,0.9c0,0.3,0.1,0.6,0.2,0.9c0.2,0.2,0.4,0.4,0.7,0.6c0.3,0.2,0.7,0.3,1.2,0.5
			c0.5,0.1,1,0.3,1.6,0.4c0.6,0.2,1.3,0.4,1.9,0.6c0.7,0.2,1.3,0.6,1.8,1c0.5,0.4,1,0.9,1.3,1.5c0.3,0.6,0.5,1.4,0.5,2.2
			c0,1.1-0.2,2-0.6,2.8c-0.4,0.8-0.9,1.4-1.6,1.9c-0.7,0.5-1.4,0.8-2.3,1.1c-0.9,0.2-1.8,0.3-2.7,0.3c-1.3,0-2.7-0.3-3.9-0.8
			c-1.3-0.5-2.3-1.2-3.2-2.2l2.9-2.9c0.4,0.6,1.1,1.2,1.8,1.6c0.8,0.4,1.6,0.6,2.6,0.6c0.3,0,0.6,0,1-0.1c0.3-0.1,0.6-0.2,0.9-0.3
			c0.3-0.2,0.5-0.4,0.7-0.6c0.2-0.3,0.3-0.6,0.3-1c0-0.4-0.1-0.7-0.3-1c-0.2-0.3-0.4-0.5-0.7-0.7c-0.3-0.2-0.7-0.4-1.2-0.5
			c-0.5-0.1-1.1-0.3-1.7-0.5c-0.6-0.2-1.3-0.4-1.9-0.6c-0.6-0.2-1.1-0.5-1.6-0.9c-0.5-0.4-0.9-0.9-1.2-1.5c-0.3-0.6-0.4-1.3-0.4-2.1
			c0-1,0.2-1.9,0.6-2.6c0.4-0.7,0.9-1.3,1.6-1.8c0.6-0.5,1.4-0.8,2.2-1c0.8-0.2,1.7-0.3,2.5-0.3c1.3,0,2.5,0.2,3.6,0.7
			c1.2,0.4,2.1,1.1,2.8,2.1L92.7,7.9z"/>
		<path class="st3" d="M99.1,21.2h4.1v-6.1h-4.1V21.2z M99.1,3v6h4.1V3H99.1z"/>
		<path class="st3" d="M105.5,3h4.4l4.6,12.8h0.1L119.3,3h4.2l-7.3,18.2h-3.5L105.5,3z"/>
		<path class="st3" d="M124,12c0-1.5,0.3-2.8,0.8-3.9s1.2-2.2,2.1-3c0.9-0.8,1.9-1.4,3.2-1.9c1.2-0.4,2.5-0.7,3.9-0.7
			c1.4,0,2.8,0.2,4,0.7c1.2,0.4,2.3,1.1,3.2,1.9c0.9,0.8,1.6,1.8,2.1,3s0.8,2.5,0.8,3.9c0,1.4-0.3,2.7-0.8,3.9
			c-0.5,1.2-1.2,2.2-2.1,3.1c-0.9,0.9-2,1.5-3.2,2c-1.2,0.5-2.5,0.7-4,0.7c-1.4,0-2.7-0.2-3.9-0.7c-1.2-0.5-2.3-1.1-3.2-2
			c-0.9-0.9-1.6-1.9-2.1-3.1C124.2,14.7,124,13.4,124,12z M128.4,12c0,1.8,0.5,3.2,1.5,4.3c1,1.1,2.4,1.6,4,1.6c1.7,0,3-0.5,4-1.6
			c1-1.1,1.5-2.5,1.5-4.3c0-0.9-0.1-1.6-0.4-2.4c-0.3-0.7-0.6-1.3-1.1-1.8c-0.5-0.5-1.1-0.9-1.8-1.2c-0.7-0.3-1.5-0.4-2.3-0.4
			s-1.6,0.1-2.3,0.4c-0.7,0.3-1.3,0.7-1.7,1.2c-0.5,0.5-0.9,1.1-1.1,1.8C128.5,10.4,128.4,11.2,128.4,12z"/>
		<path class="st3" d="M99.1,3V9h4.1V3H99.1z"/>
		<path class="st3" d="M99.1,15.2v6.1h4.1v-6.1H99.1z"/>
	</g>
	<g>
		<path class="st3" d="M56.5,86.7h3.4c0.6,0,1.2,0.1,1.8,0.2c0.6,0.2,1.1,0.4,1.6,0.8c0.5,0.4,0.8,0.8,1.1,1.4
			c0.3,0.6,0.4,1.3,0.4,2.1c0,0.8-0.1,1.5-0.4,2c-0.3,0.6-0.7,1-1.1,1.4c-0.5,0.4-1,0.7-1.6,0.8c-0.6,0.2-1.2,0.3-1.8,0.3h-3.3V86.7
			z M59.6,94.1c0.4,0,0.8,0,1.1-0.1c0.4-0.1,0.7-0.2,1-0.5c0.3-0.2,0.5-0.5,0.7-0.9c0.2-0.4,0.3-0.8,0.3-1.4c0-0.6-0.1-1.1-0.3-1.5
			c-0.2-0.4-0.4-0.7-0.7-0.9c-0.3-0.2-0.6-0.4-1-0.4c-0.4-0.1-0.7-0.1-1.1-0.1h-1.1v5.7H59.6z"/>
		<path class="st3" d="M72.2,86.7h2v9.1h-2V86.7z"/>
		<path class="st3" d="M81.4,86.7h2.2l2.2,6.4h0.1l2.3-6.4h2.1l-3.6,9.1H85L81.4,86.7z"/>
		<path class="st3" d="M56.9,100.4h6.2v1.7h-4.1v1.9h3.9v1.6h-3.9v2.1h4.4v1.7h-6.4V100.4z"/>
		<path class="st3" d="M70.2,100.3h3.2c0.5,0,0.9,0,1.3,0.1c0.4,0.1,0.8,0.3,1.1,0.5c0.3,0.2,0.6,0.5,0.7,0.8
			c0.2,0.3,0.3,0.8,0.3,1.3c0,0.7-0.2,1.2-0.5,1.6c-0.3,0.4-0.7,0.7-1.2,0.9l2.1,3.8h-2.4l-1.8-3.5h-0.9v3.5h-2V100.3z M73.2,104.3
			c0.2,0,0.4,0,0.6-0.1c0.2,0,0.4-0.1,0.5-0.2c0.1-0.1,0.3-0.2,0.4-0.4c0.1-0.2,0.1-0.4,0.1-0.6c0-0.2,0-0.4-0.1-0.5
			c-0.1-0.1-0.2-0.3-0.3-0.3c-0.1-0.1-0.3-0.1-0.5-0.2c-0.2,0-0.4-0.1-0.5-0.1h-1.2v2.3H73.2z"/>
		<path class="st3" d="M88.2,102.8c-0.2-0.3-0.4-0.5-0.8-0.7c-0.3-0.2-0.7-0.3-1.1-0.3c-0.2,0-0.3,0-0.5,0.1c-0.2,0-0.3,0.1-0.4,0.2
			c-0.1,0.1-0.2,0.2-0.3,0.3c-0.1,0.1-0.1,0.3-0.1,0.4c0,0.2,0,0.3,0.1,0.4c0.1,0.1,0.2,0.2,0.4,0.3c0.2,0.1,0.3,0.2,0.6,0.2
			c0.2,0.1,0.5,0.1,0.8,0.2c0.3,0.1,0.6,0.2,0.9,0.3c0.3,0.1,0.6,0.3,0.9,0.5c0.3,0.2,0.5,0.5,0.6,0.8c0.2,0.3,0.3,0.7,0.3,1.1
			c0,0.5-0.1,1-0.3,1.4c-0.2,0.4-0.5,0.7-0.8,0.9c-0.3,0.2-0.7,0.4-1.1,0.5c-0.4,0.1-0.9,0.2-1.3,0.2c-0.7,0-1.3-0.1-1.9-0.4
			c-0.6-0.3-1.1-0.6-1.5-1.1l1.4-1.4c0.2,0.3,0.5,0.6,0.9,0.8c0.4,0.2,0.8,0.3,1.3,0.3c0.2,0,0.3,0,0.5-0.1c0.2,0,0.3-0.1,0.4-0.2
			c0.1-0.1,0.2-0.2,0.3-0.3c0.1-0.1,0.1-0.3,0.1-0.5c0-0.2,0-0.3-0.1-0.5c-0.1-0.1-0.2-0.2-0.4-0.3c-0.2-0.1-0.4-0.2-0.6-0.3
			c-0.2-0.1-0.5-0.1-0.8-0.2c-0.3-0.1-0.6-0.2-0.9-0.3c-0.3-0.1-0.6-0.3-0.8-0.5c-0.2-0.2-0.4-0.4-0.6-0.7c-0.1-0.3-0.2-0.6-0.2-1.1
			c0-0.5,0.1-0.9,0.3-1.3c0.2-0.4,0.4-0.7,0.8-0.9c0.3-0.2,0.7-0.4,1.1-0.5c0.4-0.1,0.8-0.2,1.2-0.2c0.6,0,1.2,0.1,1.8,0.3
			c0.6,0.2,1,0.6,1.4,1L88.2,102.8z"/>
		<path class="st3" d="M69,114.6v2.1l5.1,1.9v0.1l-5.1,1.9v2.2l7.8-3.1v-1.8L69,114.6z"/>
		<path class="st3" d="M80.7,118.5c0-0.7,0.1-1.4,0.4-2c0.3-0.6,0.6-1.1,1-1.5c0.4-0.4,0.9-0.7,1.5-0.9c0.6-0.2,1.2-0.3,1.9-0.3
			c0.7,0,1.4,0.1,2,0.3c0.6,0.2,1.1,0.5,1.6,0.9c0.4,0.4,0.8,0.9,1,1.5c0.3,0.6,0.4,1.2,0.4,2c0,0.7-0.1,1.4-0.4,1.9
			c-0.3,0.6-0.6,1.1-1,1.5c-0.4,0.4-1,0.8-1.6,1c-0.6,0.2-1.2,0.4-2,0.4c-0.7,0-1.3-0.1-1.9-0.4c-0.6-0.2-1.1-0.6-1.5-1
			c-0.4-0.4-0.8-0.9-1-1.5C80.8,119.8,80.7,119.2,80.7,118.5z M82.9,118.5c0,0.9,0.2,1.6,0.7,2.1c0.5,0.5,1.2,0.8,2,0.8
			c0.8,0,1.5-0.3,2-0.8c0.5-0.5,0.7-1.2,0.7-2.1c0-0.4-0.1-0.8-0.2-1.2c-0.1-0.4-0.3-0.7-0.6-0.9c-0.2-0.3-0.5-0.5-0.9-0.6
			c-0.3-0.1-0.7-0.2-1.1-0.2s-0.8,0.1-1.1,0.2c-0.3,0.1-0.6,0.3-0.9,0.6c-0.2,0.3-0.4,0.6-0.6,0.9C82.9,117.7,82.9,118,82.9,118.5z"
			/>
		<g>
			<path class="st3" d="M59.1,123.1h2v-3h-2V123.1z M59.1,114v3h2v-3H59.1z"/>
			<path class="st3" d="M59.1,113.9v3h2v-3H59.1z"/>
			<path class="st3" d="M59.1,120v3h2v-3H59.1z"/>
		</g>
		<g>
			<path class="st3" d="M59.1,123.1h2v-3h-2V123.1z M59.1,114v3h2v-3H59.1z"/>
		</g>
	</g>
	<g>
		<path class="st0" d="M237.6,178.7c0,0.6-0.1,1.3-0.4,1.9c-0.3,0.5-0.6,0.9-1.1,1.3c-0.4,0.3-0.9,0.6-1.5,0.7
			c-0.5,0.2-1.1,0.2-1.7,0.2h-3.1v-8.2h3c0.6,0,1.2,0.1,1.7,0.2c0.5,0.1,1.1,0.4,1.5,0.7c0.5,0.3,0.8,0.8,1.1,1.3
			C237.5,177.4,237.6,178.1,237.6,178.7z M235.5,178.7c0-0.4-0.1-0.8-0.2-1.2c-0.1-0.3-0.3-0.5-0.6-0.7c-0.3-0.2-0.6-0.3-0.9-0.4
			c-0.3-0.1-0.7-0.1-1-0.1h-1v4.8h0.9c0.3,0,0.7,0,1-0.1c0.3-0.1,0.6-0.2,0.9-0.4c0.3-0.2,0.5-0.5,0.6-0.7
			C235.5,179.5,235.6,179.1,235.5,178.7L235.5,178.7z"/>
		<path class="st0" d="M251.2,178.7c0,0.6-0.1,1.2-0.3,1.7c-0.2,0.5-0.5,1-0.9,1.3c-0.4,0.4-0.9,0.7-1.4,0.9
			c-0.6,0.2-1.1,0.3-1.7,0.3c-0.6,0-1.2-0.1-1.7-0.3c-0.5-0.2-1-0.5-1.4-0.9c-0.4-0.4-0.7-0.8-0.9-1.3c-0.2-0.5-0.3-1.1-0.3-1.7
			c0-0.6,0.1-1.2,0.3-1.7c0.2-0.5,0.5-0.9,0.9-1.3c0.4-0.4,0.9-0.6,1.4-0.8c0.6-0.2,1.1-0.3,1.7-0.3c0.6,0,1.2,0.1,1.7,0.3
			c0.5,0.2,1,0.5,1.4,0.8c0.4,0.4,0.7,0.8,0.9,1.3C251.1,177.6,251.2,178.1,251.2,178.7z M249.2,178.7c0-0.3-0.1-0.7-0.2-1
			c-0.1-0.3-0.3-0.5-0.5-0.8c-0.2-0.2-0.4-0.4-0.7-0.5c-0.3-0.1-0.6-0.2-0.9-0.2c-0.6,0-1.2,0.2-1.6,0.7c-0.2,0.2-0.4,0.5-0.5,0.8
			c-0.1,0.3-0.2,0.6-0.2,1c0,0.3,0.1,0.7,0.2,1c0.1,0.3,0.3,0.6,0.5,0.8c0.2,0.2,0.4,0.4,0.7,0.5c0.6,0.2,1.3,0.2,1.8,0
			c0.3-0.1,0.5-0.3,0.7-0.5c0.2-0.2,0.4-0.5,0.5-0.8C249.1,179.4,249.2,179.1,249.2,178.7z"/>
		<g>
			<rect x="239.1" y="174.6" class="st0" width="2" height="2"/>
			<rect x="239.1" y="180.8" class="st0" width="2" height="2"/>
		</g>
	</g>
	<g>
		<path class="st0" d="M170.9,3.2h6.8c1.3,0,2.5,0.2,3.6,0.5c1.2,0.3,2.2,0.8,3.1,1.5c0.9,0.7,1.7,1.6,2.2,2.7
			c0.5,1.1,0.8,2.5,0.8,4.2c0,1.6-0.3,2.9-0.9,4c-0.6,1.1-1.3,2.1-2.2,2.8c-0.9,0.7-2,1.3-3.2,1.6c-1.2,0.4-2.4,0.5-3.7,0.5h-6.6
			V3.2z M177,17.8c0.8,0,1.5-0.1,2.3-0.3c0.7-0.2,1.4-0.5,2-0.9c0.6-0.4,1-1,1.4-1.7c0.3-0.7,0.5-1.6,0.5-2.7c0-1.2-0.2-2.1-0.5-2.9
			c-0.3-0.7-0.8-1.3-1.3-1.7s-1.2-0.7-1.9-0.8c-0.7-0.2-1.5-0.2-2.3-0.2h-2.1v11.3H177z"/>
		<path class="st0" d="M190.9,3.2h4v17.8h-4V3.2z"/>
		<path class="st0" d="M197.2,3.2h4.3l4.5,12.5h0.1l4.5-12.5h4.1l-7.1,17.8h-3.5L197.2,3.2z"/>
		<path class="st0" d="M217.1,3.3h12.3v3.3h-8.3v3.8h7.9v3.2h-7.9v4.2h8.7v3.4h-12.7V3.3z"/>
		<path class="st0" d="M233.4,3.2h6.5c0.9,0,1.8,0.1,2.6,0.3c0.8,0.2,1.5,0.5,2.2,0.9c0.6,0.4,1.1,1,1.5,1.7s0.5,1.5,0.5,2.5
			c0,1.3-0.3,2.4-1,3.2c-0.7,0.8-1.5,1.4-2.5,1.7l4.2,7.6h-4.7l-3.6-6.9h-1.7v6.9h-4V3.2z M239.5,11.1c0.4,0,0.8,0,1.1-0.1
			c0.4-0.1,0.7-0.2,1-0.4c0.3-0.2,0.5-0.4,0.7-0.7c0.2-0.3,0.3-0.7,0.3-1.2c0-0.4-0.1-0.8-0.2-1c-0.2-0.3-0.4-0.5-0.7-0.7
			c-0.3-0.2-0.6-0.3-0.9-0.3c-0.4-0.1-0.7-0.1-1.1-0.1h-2.3v4.6H239.5z"/>
		<path class="st0" d="M260.1,8.1c-0.4-0.5-0.9-1-1.6-1.4c-0.7-0.4-1.4-0.6-2.1-0.6c-0.3,0-0.7,0-1,0.1c-0.3,0.1-0.6,0.2-0.9,0.3
			c-0.3,0.1-0.5,0.3-0.6,0.6c-0.2,0.2-0.2,0.5-0.2,0.9c0,0.3,0.1,0.6,0.2,0.8c0.2,0.2,0.4,0.4,0.7,0.6c0.3,0.2,0.7,0.3,1.1,0.5
			c0.4,0.1,1,0.3,1.6,0.4c0.6,0.2,1.2,0.4,1.9,0.6c0.6,0.2,1.2,0.6,1.8,1c0.5,0.4,1,0.9,1.3,1.5c0.3,0.6,0.5,1.3,0.5,2.2
			c0,1.1-0.2,2-0.6,2.7c-0.4,0.8-0.9,1.4-1.6,1.8c-0.7,0.5-1.4,0.8-2.3,1c-0.8,0.2-1.7,0.3-2.7,0.3c-1.3,0-2.6-0.2-3.9-0.7
			c-1.3-0.5-2.3-1.2-3.1-2.2l2.8-2.8c0.4,0.6,1,1.2,1.8,1.6c0.8,0.4,1.6,0.6,2.5,0.6c0.3,0,0.6,0,0.9-0.1c0.3-0.1,0.6-0.2,0.9-0.3
			c0.3-0.2,0.5-0.4,0.6-0.6c0.2-0.3,0.2-0.6,0.2-1c0-0.4-0.1-0.7-0.2-0.9c-0.2-0.3-0.4-0.5-0.7-0.7c-0.3-0.2-0.7-0.4-1.2-0.5
			c-0.5-0.1-1-0.3-1.7-0.4c-0.6-0.2-1.3-0.3-1.8-0.6c-0.6-0.2-1.1-0.5-1.6-0.9c-0.5-0.4-0.9-0.9-1.1-1.4c-0.3-0.6-0.4-1.3-0.4-2.1
			c0-1,0.2-1.8,0.6-2.6c0.4-0.7,0.9-1.3,1.5-1.8c0.6-0.5,1.4-0.8,2.2-1c0.8-0.2,1.6-0.3,2.5-0.3c1.2,0,2.4,0.2,3.6,0.7
			c1.2,0.4,2.1,1.1,2.8,2L260.1,8.1z"/>
		<path class="st0" d="M266.4,21.1h4v-5.9h-4V21.1z M266.4,3.3v5.9h4V3.3H266.4z"/>
		<path class="st0" d="M272.7,3.2h4.3l4.5,12.5h0.1l4.5-12.5h4.1l-7.1,17.8h-3.5L272.7,3.2z"/>
		<path class="st0" d="M290.8,12.1c0-1.4,0.3-2.7,0.8-3.9c0.5-1.2,1.2-2.1,2.1-2.9c0.9-0.8,1.9-1.4,3.1-1.9c1.2-0.4,2.5-0.7,3.9-0.7
			c1.4,0,2.7,0.2,3.9,0.7c1.2,0.4,2.2,1.1,3.1,1.9c0.9,0.8,1.6,1.8,2.1,2.9s0.8,2.4,0.8,3.9c0,1.4-0.3,2.7-0.8,3.8
			c-0.5,1.2-1.2,2.2-2.1,3c-0.9,0.8-1.9,1.5-3.1,1.9c-1.2,0.5-2.5,0.7-3.9,0.7c-1.4,0-2.7-0.2-3.9-0.7c-1.2-0.5-2.2-1.1-3.1-1.9
			c-0.9-0.8-1.6-1.8-2.1-3C291,14.8,290.8,13.5,290.8,12.1z M295.1,12.1c0,1.8,0.5,3.2,1.5,4.2c1,1,2.3,1.5,3.9,1.5
			c1.6,0,3-0.5,4-1.5c1-1,1.5-2.4,1.5-4.2c0-0.8-0.1-1.6-0.4-2.3c-0.3-0.7-0.6-1.3-1.1-1.8c-0.5-0.5-1-0.9-1.7-1.2
			c-0.7-0.3-1.4-0.4-2.2-0.4s-1.6,0.1-2.2,0.4c-0.7,0.3-1.2,0.7-1.7,1.2c-0.5,0.5-0.8,1.1-1.1,1.8C295.3,10.5,295.1,11.3,295.1,12.1
			z"/>
		<path class="st0" d="M266.4,3.2v5.9h4V3.2H266.4z"/>
		<path class="st0" d="M266.4,15.2v5.9h4v-5.9H266.4z"/>
	</g>
	<g>
		<path class="st0" d="M223.8,86.7h3.4c0.6,0,1.2,0.1,1.8,0.2c0.6,0.2,1.1,0.4,1.6,0.8c0.5,0.4,0.8,0.8,1.1,1.4
			c0.3,0.6,0.4,1.3,0.4,2.1c0,0.8-0.1,1.5-0.4,2c-0.3,0.6-0.7,1-1.1,1.4c-0.5,0.4-1,0.7-1.6,0.8c-0.6,0.2-1.2,0.3-1.8,0.3h-3.3V86.7
			z M226.9,94.1c0.4,0,0.8,0,1.1-0.1c0.4-0.1,0.7-0.2,1-0.5c0.3-0.2,0.5-0.5,0.7-0.9c0.2-0.4,0.3-0.8,0.3-1.4c0-0.6-0.1-1.1-0.3-1.5
			c-0.2-0.4-0.4-0.7-0.7-0.9c-0.3-0.2-0.6-0.4-1-0.4c-0.4-0.1-0.7-0.1-1.1-0.1h-1.1v5.7H226.9z"/>
		<path class="st0" d="M239.4,86.7h2v9.1h-2V86.7z"/>
		<path class="st0" d="M248.7,86.7h2.2l2.2,6.4h0.1l2.3-6.4h2.1l-3.6,9.1h-1.7L248.7,86.7z"/>
		<path class="st0" d="M224.2,100.4h6.2v1.7h-4.1v1.9h3.9v1.6h-3.9v2.1h4.4v1.7h-6.4V100.4z"/>
		<path class="st0" d="M237.4,100.3h3.2c0.5,0,0.9,0,1.3,0.1c0.4,0.1,0.8,0.3,1.1,0.5c0.3,0.2,0.6,0.5,0.7,0.8
			c0.2,0.3,0.3,0.8,0.3,1.3c0,0.7-0.2,1.2-0.5,1.6c-0.3,0.4-0.7,0.7-1.2,0.9l2.1,3.8h-2.4l-1.8-3.5h-0.9v3.5h-2V100.3z M240.5,104.3
			c0.2,0,0.4,0,0.6-0.1c0.2,0,0.4-0.1,0.5-0.2c0.1-0.1,0.3-0.2,0.4-0.4c0.1-0.2,0.1-0.4,0.1-0.6c0-0.2,0-0.4-0.1-0.5
			c-0.1-0.1-0.2-0.3-0.3-0.3c-0.1-0.1-0.3-0.1-0.5-0.2c-0.2,0-0.4-0.1-0.5-0.1h-1.2v2.3H240.5z"/>
		<path class="st0" d="M255.4,102.8c-0.2-0.3-0.4-0.5-0.8-0.7c-0.3-0.2-0.7-0.3-1.1-0.3c-0.2,0-0.3,0-0.5,0.1
			c-0.2,0-0.3,0.1-0.4,0.2c-0.1,0.1-0.2,0.2-0.3,0.3c-0.1,0.1-0.1,0.3-0.1,0.4c0,0.2,0,0.3,0.1,0.4c0.1,0.1,0.2,0.2,0.4,0.3
			c0.2,0.1,0.3,0.2,0.6,0.2c0.2,0.1,0.5,0.1,0.8,0.2c0.3,0.1,0.6,0.2,0.9,0.3c0.3,0.1,0.6,0.3,0.9,0.5c0.3,0.2,0.5,0.5,0.6,0.8
			c0.2,0.3,0.3,0.7,0.3,1.1c0,0.5-0.1,1-0.3,1.4c-0.2,0.4-0.5,0.7-0.8,0.9c-0.3,0.2-0.7,0.4-1.1,0.5c-0.4,0.1-0.9,0.2-1.3,0.2
			c-0.7,0-1.3-0.1-1.9-0.4c-0.6-0.3-1.1-0.6-1.5-1.1l1.4-1.4c0.2,0.3,0.5,0.6,0.9,0.8c0.4,0.2,0.8,0.3,1.3,0.3c0.2,0,0.3,0,0.5-0.1
			c0.2,0,0.3-0.1,0.4-0.2c0.1-0.1,0.2-0.2,0.3-0.3c0.1-0.1,0.1-0.3,0.1-0.5c0-0.2,0-0.3-0.1-0.5c-0.1-0.1-0.2-0.2-0.4-0.3
			c-0.2-0.1-0.4-0.2-0.6-0.3c-0.2-0.1-0.5-0.1-0.8-0.2c-0.3-0.1-0.6-0.2-0.9-0.3c-0.3-0.1-0.6-0.3-0.8-0.5c-0.2-0.2-0.4-0.4-0.6-0.7
			c-0.1-0.3-0.2-0.6-0.2-1.1c0-0.5,0.1-0.9,0.3-1.3c0.2-0.4,0.4-0.7,0.8-0.9c0.3-0.2,0.7-0.4,1.1-0.5c0.4-0.1,0.8-0.2,1.2-0.2
			c0.6,0,1.2,0.1,1.8,0.3c0.6,0.2,1,0.6,1.4,1L255.4,102.8z"/>
		<path class="st0" d="M236.2,114.6v2.1l5.1,1.9v0.1l-5.1,1.9v2.2l7.8-3.1v-1.8L236.2,114.6z"/>
		<path class="st0" d="M248,118.5c0-0.7,0.1-1.4,0.4-2c0.3-0.6,0.6-1.1,1-1.5c0.4-0.4,0.9-0.7,1.5-0.9c0.6-0.2,1.2-0.3,1.9-0.3
			c0.7,0,1.4,0.1,2,0.3c0.6,0.2,1.1,0.5,1.6,0.9c0.4,0.4,0.8,0.9,1,1.5c0.3,0.6,0.4,1.2,0.4,2c0,0.7-0.1,1.4-0.4,1.9
			c-0.3,0.6-0.6,1.1-1,1.5c-0.4,0.4-1,0.8-1.6,1c-0.6,0.2-1.2,0.4-2,0.4c-0.7,0-1.3-0.1-1.9-0.4c-0.6-0.2-1.1-0.6-1.5-1
			c-0.4-0.4-0.8-0.9-1-1.5C248.1,119.8,248,119.2,248,118.5z M250.1,118.5c0,0.9,0.2,1.6,0.7,2.1c0.5,0.5,1.2,0.8,2,0.8
			c0.8,0,1.5-0.3,2-0.8c0.5-0.5,0.7-1.2,0.7-2.1c0-0.4-0.1-0.8-0.2-1.2c-0.1-0.4-0.3-0.7-0.6-0.9c-0.2-0.3-0.5-0.5-0.9-0.6
			c-0.3-0.1-0.7-0.2-1.1-0.2c-0.4,0-0.8,0.1-1.1,0.2c-0.3,0.1-0.6,0.3-0.9,0.6c-0.2,0.3-0.4,0.6-0.6,0.9
			C250.2,117.7,250.1,118,250.1,118.5z"/>
		<g>
			<path class="st0" d="M226.3,123.1h2v-3h-2V123.1z M226.3,114v3h2v-3H226.3z"/>
			<path class="st0" d="M226.3,113.9v3h2v-3H226.3z"/>
			<path class="st0" d="M226.3,120v3h2v-3H226.3z"/>
		</g>
		<g>
			<path class="st0" d="M226.3,123.1h2v-3h-2V123.1z M226.3,114v3h2v-3H226.3z"/>
		</g>
	</g>
	<g>
		<g>
			<rect x="-421.9" y="67.4" class="st3" width="74" height="75.4"/>
		</g>
		<g>
			<path class="st0" d="M-401.9,86.7h3.4c0.6,0,1.2,0.1,1.8,0.2c0.6,0.2,1.1,0.4,1.6,0.8c0.5,0.4,0.8,0.8,1.1,1.4
				c0.3,0.6,0.4,1.3,0.4,2.1c0,0.8-0.1,1.5-0.4,2c-0.3,0.6-0.7,1-1.1,1.4c-0.5,0.4-1,0.7-1.6,0.8c-0.6,0.2-1.2,0.3-1.8,0.3h-3.3
				V86.7z M-398.9,94.1c0.4,0,0.8,0,1.1-0.1c0.4-0.1,0.7-0.2,1-0.5c0.3-0.2,0.5-0.5,0.7-0.9c0.2-0.4,0.3-0.8,0.3-1.4
				c0-0.6-0.1-1.1-0.3-1.5c-0.2-0.4-0.4-0.7-0.7-0.9c-0.3-0.2-0.6-0.4-1-0.4c-0.4-0.1-0.7-0.1-1.1-0.1h-1.1v5.7H-398.9z"/>
			<path class="st0" d="M-386.3,86.7h2v9.1h-2V86.7z"/>
			<path class="st0" d="M-377,86.7h2.2l2.2,6.4h0.1l2.3-6.4h2.1l-3.6,9.1h-1.7L-377,86.7z"/>
			<path class="st0" d="M-401.5,100.4h6.2v1.7h-4.1v1.9h3.9v1.6h-3.9v2.1h4.4v1.7h-6.4V100.4z"/>
			<path class="st0" d="M-388.3,100.3h3.2c0.5,0,0.9,0,1.3,0.1c0.4,0.1,0.8,0.3,1.1,0.5c0.3,0.2,0.6,0.5,0.7,0.8
				c0.2,0.3,0.3,0.8,0.3,1.3c0,0.7-0.2,1.2-0.5,1.6c-0.3,0.4-0.7,0.7-1.2,0.9l2.1,3.8h-2.4l-1.8-3.5h-0.9v3.5h-2V100.3z
				 M-385.2,104.3c0.2,0,0.4,0,0.6-0.1c0.2,0,0.4-0.1,0.5-0.2c0.1-0.1,0.3-0.2,0.4-0.4c0.1-0.2,0.1-0.4,0.1-0.6c0-0.2,0-0.4-0.1-0.5
				c-0.1-0.1-0.2-0.3-0.3-0.3c-0.1-0.1-0.3-0.1-0.5-0.2c-0.2,0-0.4-0.1-0.5-0.1h-1.2v2.3H-385.2z"/>
			<path class="st0" d="M-370.3,102.8c-0.2-0.3-0.4-0.5-0.8-0.7c-0.3-0.2-0.7-0.3-1.1-0.3c-0.2,0-0.3,0-0.5,0.1
				c-0.2,0-0.3,0.1-0.4,0.2c-0.1,0.1-0.2,0.2-0.3,0.3c-0.1,0.1-0.1,0.3-0.1,0.4c0,0.2,0,0.3,0.1,0.4c0.1,0.1,0.2,0.2,0.4,0.3
				c0.2,0.1,0.3,0.2,0.6,0.2c0.2,0.1,0.5,0.1,0.8,0.2c0.3,0.1,0.6,0.2,0.9,0.3c0.3,0.1,0.6,0.3,0.9,0.5c0.3,0.2,0.5,0.5,0.6,0.8
				c0.2,0.3,0.3,0.7,0.3,1.1c0,0.5-0.1,1-0.3,1.4c-0.2,0.4-0.5,0.7-0.8,0.9c-0.3,0.2-0.7,0.4-1.1,0.5c-0.4,0.1-0.9,0.2-1.3,0.2
				c-0.7,0-1.3-0.1-1.9-0.4c-0.6-0.3-1.1-0.6-1.5-1.1l1.4-1.4c0.2,0.3,0.5,0.6,0.9,0.8c0.4,0.2,0.8,0.3,1.3,0.3c0.2,0,0.3,0,0.5-0.1
				c0.2,0,0.3-0.1,0.4-0.2c0.1-0.1,0.2-0.2,0.3-0.3c0.1-0.1,0.1-0.3,0.1-0.5c0-0.2,0-0.3-0.1-0.5c-0.1-0.1-0.2-0.2-0.4-0.3
				c-0.2-0.1-0.4-0.2-0.6-0.3c-0.2-0.1-0.5-0.1-0.8-0.2c-0.3-0.1-0.6-0.2-0.9-0.3c-0.3-0.1-0.6-0.3-0.8-0.5
				c-0.2-0.2-0.4-0.4-0.6-0.7c-0.1-0.3-0.2-0.6-0.2-1.1c0-0.5,0.1-0.9,0.3-1.3c0.2-0.4,0.4-0.7,0.8-0.9c0.3-0.2,0.7-0.4,1.1-0.5
				c0.4-0.1,0.8-0.2,1.2-0.2c0.6,0,1.2,0.1,1.8,0.3c0.6,0.2,1,0.6,1.4,1L-370.3,102.8z"/>
			<path class="st0" d="M-389.5,114.6v2.1l5.1,1.9v0.1l-5.1,1.9v2.2l7.8-3.1v-1.8L-389.5,114.6z"/>
			<path class="st0" d="M-377.8,118.5c0-0.7,0.1-1.4,0.4-2c0.3-0.6,0.6-1.1,1-1.5c0.4-0.4,0.9-0.7,1.5-0.9c0.6-0.2,1.2-0.3,1.9-0.3
				c0.7,0,1.4,0.1,2,0.3c0.6,0.2,1.1,0.5,1.6,0.9c0.4,0.4,0.8,0.9,1,1.5c0.3,0.6,0.4,1.2,0.4,2c0,0.7-0.1,1.4-0.4,1.9
				c-0.3,0.6-0.6,1.1-1,1.5c-0.4,0.4-1,0.8-1.6,1c-0.6,0.2-1.2,0.4-2,0.4c-0.7,0-1.3-0.1-1.9-0.4c-0.6-0.2-1.1-0.6-1.5-1
				c-0.4-0.4-0.8-0.9-1-1.5C-377.6,119.8-377.8,119.2-377.8,118.5z M-375.6,118.5c0,0.9,0.2,1.6,0.7,2.1c0.5,0.5,1.2,0.8,2,0.8
				c0.8,0,1.5-0.3,2-0.8c0.5-0.5,0.7-1.2,0.7-2.1c0-0.4-0.1-0.8-0.2-1.2c-0.1-0.4-0.3-0.7-0.6-0.9c-0.2-0.3-0.5-0.5-0.9-0.6
				c-0.3-0.1-0.7-0.2-1.1-0.2s-0.8,0.1-1.1,0.2c-0.3,0.1-0.6,0.3-0.9,0.6c-0.2,0.3-0.4,0.6-0.6,0.9
				C-375.5,117.7-375.6,118-375.6,118.5z"/>
			<g>
				<path class="st0" d="M-399.4,123.1h2v-3h-2V123.1z M-399.4,114v3h2v-3H-399.4z"/>
				<path class="st0" d="M-399.4,113.9v3h2v-3H-399.4z"/>
				<path class="st0" d="M-399.4,120v3h2v-3H-399.4z"/>
			</g>
			<g>
				<path class="st0" d="M-399.4,123.1h2v-3h-2V123.1z M-399.4,114v3h2v-3H-399.4z"/>
			</g>
		</g>
	</g>
	<g>
		<circle class="st4" cx="-150.4" cy="617.5" r="16"/>
		<path class="st3" d="M-152.7,617.4c0,0.5-0.1,1.1-0.3,1.5c-0.2,0.4-0.5,0.8-0.9,1.1c-0.4,0.3-0.8,0.5-1.2,0.6
			c-0.4,0.1-0.9,0.2-1.4,0.2h-2.5V614h2.4c0.5,0,1,0.1,1.4,0.2c0.4,0.1,0.9,0.3,1.2,0.6c0.4,0.3,0.7,0.6,0.9,1
			C-152.8,616.3-152.7,616.8-152.7,617.4z M-154.4,617.4c0-0.3-0.1-0.7-0.2-0.9c-0.1-0.2-0.3-0.4-0.5-0.6c-0.2-0.2-0.5-0.3-0.7-0.3
			c-0.3-0.1-0.5-0.1-0.8-0.1h-0.8v4h0.8c0.3,0,0.6,0,0.8-0.1c0.3-0.1,0.5-0.2,0.7-0.3c0.2-0.2,0.4-0.4,0.5-0.6
			C-154.5,618-154.4,617.7-154.4,617.4L-154.4,617.4z"/>
		<path class="st3" d="M-141.5,617.4c0,0.5-0.1,1-0.3,1.4c-0.2,0.4-0.4,0.8-0.7,1.1c-0.3,0.3-0.7,0.5-1.1,0.7
			c-0.5,0.2-0.9,0.2-1.4,0.2c-0.5,0-1-0.1-1.4-0.2c-0.4-0.2-0.8-0.4-1.1-0.7c-0.3-0.3-0.6-0.7-0.7-1.1c-0.2-0.4-0.3-0.9-0.3-1.4
			c0-0.5,0.1-1,0.3-1.4c0.2-0.4,0.4-0.8,0.7-1.1c0.3-0.3,0.7-0.5,1.1-0.7c0.5-0.2,0.9-0.2,1.4-0.2c0.5,0,1,0.1,1.4,0.2
			c0.4,0.1,0.8,0.4,1.1,0.7c0.3,0.3,0.6,0.7,0.7,1.1C-141.6,616.4-141.5,616.9-141.5,617.4z M-143.2,617.4c0-0.3,0-0.5-0.1-0.8
			c-0.1-0.2-0.2-0.4-0.4-0.6c-0.2-0.2-0.4-0.3-0.6-0.4c-0.2-0.1-0.5-0.2-0.8-0.2c-0.5,0-1,0.2-1.3,0.6c-0.2,0.2-0.3,0.4-0.4,0.6
			c-0.1,0.3-0.1,0.5-0.1,0.8c0,0.3,0,0.6,0.1,0.8c0.1,0.2,0.2,0.5,0.4,0.6c0.2,0.2,0.4,0.3,0.6,0.4c0.5,0.2,1,0.2,1.5,0
			c0.2-0.1,0.4-0.2,0.6-0.4c0.2-0.2,0.3-0.4,0.4-0.6C-143.3,617.9-143.2,617.7-143.2,617.4z"/>
		<g>
			<rect x="-151.5" y="614" class="st3" width="1.6" height="1.6"/>
			<rect x="-151.5" y="619.1" class="st3" width="1.6" height="1.6"/>
		</g>
	</g>
	<g>
		<rect x="-169.9" y="552.7" class="st4" width="39" height="25"/>
		<g>
			<path class="st3" d="M-153.2,565.3c0,0.6-0.1,1.3-0.4,1.9c-0.3,0.5-0.6,0.9-1.1,1.3c-0.4,0.3-0.9,0.6-1.5,0.7
				c-0.5,0.2-1.1,0.2-1.7,0.2h-3.1v-8.2h3c0.6,0,1.2,0.1,1.7,0.2c0.5,0.1,1.1,0.4,1.5,0.7c0.5,0.3,0.8,0.8,1.1,1.3
				C-153.3,564-153.2,564.6-153.2,565.3z M-155.3,565.3c0-0.4-0.1-0.8-0.2-1.2c-0.1-0.3-0.3-0.5-0.6-0.7c-0.3-0.2-0.6-0.3-0.9-0.4
				c-0.3-0.1-0.7-0.1-1-0.1h-1v4.8h0.9c0.3,0,0.7,0,1-0.1c0.3-0.1,0.6-0.2,0.9-0.4c0.3-0.2,0.5-0.5,0.6-0.7
				C-155.3,566.1-155.3,565.7-155.3,565.3L-155.3,565.3z"/>
			<path class="st3" d="M-139.6,565.3c0,0.6-0.1,1.2-0.3,1.7c-0.2,0.5-0.5,1-0.9,1.3c-0.4,0.4-0.9,0.7-1.4,0.9
				c-0.6,0.2-1.1,0.3-1.7,0.3c-0.6,0-1.2-0.1-1.7-0.3c-0.5-0.2-1-0.5-1.4-0.9c-0.4-0.4-0.7-0.8-0.9-1.3c-0.2-0.5-0.3-1.1-0.3-1.7
				c0-0.6,0.1-1.2,0.3-1.7c0.2-0.5,0.5-0.9,0.9-1.3c0.4-0.4,0.9-0.6,1.4-0.8c0.6-0.2,1.1-0.3,1.7-0.3c0.6,0,1.2,0.1,1.7,0.3
				c0.5,0.2,1,0.5,1.4,0.8c0.4,0.4,0.7,0.8,0.9,1.3C-139.7,564.1-139.6,564.7-139.6,565.3z M-141.6,565.3c0-0.3-0.1-0.7-0.2-1
				c-0.1-0.3-0.3-0.5-0.5-0.8c-0.2-0.2-0.4-0.4-0.7-0.5c-0.3-0.1-0.6-0.2-0.9-0.2c-0.6,0-1.2,0.2-1.6,0.7c-0.2,0.2-0.4,0.5-0.5,0.8
				c-0.1,0.3-0.2,0.6-0.2,1c0,0.3,0.1,0.7,0.2,1c0.1,0.3,0.3,0.6,0.5,0.8c0.2,0.2,0.4,0.4,0.7,0.5c0.6,0.2,1.3,0.2,1.8,0
				c0.3-0.1,0.5-0.3,0.7-0.5c0.2-0.2,0.4-0.5,0.5-0.8C-141.7,566-141.6,565.6-141.6,565.3z"/>
			<g>
				<rect x="-151.7" y="561.2" class="st3" width="2" height="2"/>
				<rect x="-151.7" y="567.4" class="st3" width="2" height="2"/>
			</g>
		</g>
	</g>
	<g>
		<circle class="st4" cx="-384.9" cy="617.5" r="16"/>
		<path class="st0" d="M-387.3,617.4c0,0.5-0.1,1.1-0.3,1.5c-0.2,0.4-0.5,0.8-0.9,1.1c-0.4,0.3-0.8,0.5-1.2,0.6
			c-0.4,0.1-0.9,0.2-1.4,0.2h-2.5V614h2.4c0.5,0,1,0.1,1.4,0.2c0.4,0.1,0.9,0.3,1.2,0.6c0.4,0.3,0.7,0.6,0.9,1
			C-387.4,616.3-387.2,616.8-387.3,617.4z M-389,617.4c0-0.3-0.1-0.7-0.2-0.9c-0.1-0.2-0.3-0.4-0.5-0.6c-0.2-0.2-0.5-0.3-0.7-0.3
			c-0.3-0.1-0.5-0.1-0.8-0.1h-0.8v4h0.8c0.3,0,0.6,0,0.8-0.1c0.3-0.1,0.5-0.2,0.7-0.3c0.2-0.2,0.4-0.4,0.5-0.6
			C-389,618-388.9,617.7-389,617.4L-389,617.4z"/>
		<path class="st0" d="M-376.1,617.4c0,0.5-0.1,1-0.3,1.4c-0.2,0.4-0.4,0.8-0.7,1.1c-0.3,0.3-0.7,0.5-1.1,0.7
			c-0.5,0.2-0.9,0.2-1.4,0.2c-0.5,0-1-0.1-1.4-0.2c-0.4-0.2-0.8-0.4-1.1-0.7c-0.3-0.3-0.6-0.7-0.7-1.1c-0.2-0.4-0.3-0.9-0.3-1.4
			c0-0.5,0.1-1,0.3-1.4c0.2-0.4,0.4-0.8,0.7-1.1c0.3-0.3,0.7-0.5,1.1-0.7c0.5-0.2,0.9-0.2,1.4-0.2c0.5,0,1,0.1,1.4,0.2
			c0.4,0.1,0.8,0.4,1.1,0.7c0.3,0.3,0.6,0.7,0.7,1.1C-376.2,616.4-376.1,616.9-376.1,617.4z M-377.8,617.4c0-0.3,0-0.5-0.1-0.8
			c-0.1-0.2-0.2-0.4-0.4-0.6c-0.2-0.2-0.4-0.3-0.6-0.4c-0.2-0.1-0.5-0.2-0.8-0.2c-0.5,0-1,0.2-1.3,0.6c-0.2,0.2-0.3,0.4-0.4,0.6
			c-0.1,0.3-0.1,0.5-0.1,0.8c0,0.3,0,0.6,0.1,0.8c0.1,0.2,0.2,0.5,0.4,0.6c0.2,0.2,0.4,0.3,0.6,0.4c0.5,0.2,1,0.2,1.5,0
			c0.2-0.1,0.4-0.2,0.6-0.4c0.2-0.2,0.3-0.4,0.4-0.6C-377.8,617.9-377.8,617.7-377.8,617.4z"/>
		<g>
			<rect x="-386" y="614" class="st0" width="1.6" height="1.6"/>
			<rect x="-386" y="619.1" class="st0" width="1.6" height="1.6"/>
		</g>
	</g>
	<g>
		<rect x="-404.4" y="552.7" class="st4" width="39" height="25"/>
		<g>
			<path class="st0" d="M-387.8,565.3c0,0.6-0.1,1.3-0.4,1.9c-0.3,0.5-0.6,0.9-1.1,1.3c-0.4,0.3-0.9,0.6-1.5,0.7
				c-0.5,0.2-1.1,0.2-1.7,0.2h-3.1v-8.2h3c0.6,0,1.2,0.1,1.7,0.2c0.5,0.1,1.1,0.4,1.5,0.7c0.5,0.3,0.8,0.8,1.1,1.3
				C-387.9,564-387.7,564.6-387.8,565.3z M-389.8,565.3c0-0.4-0.1-0.8-0.2-1.2c-0.1-0.3-0.3-0.5-0.6-0.7c-0.3-0.2-0.6-0.3-0.9-0.4
				c-0.3-0.1-0.7-0.1-1-0.1h-1v4.8h0.9c0.3,0,0.7,0,1-0.1c0.3-0.1,0.6-0.2,0.9-0.4c0.3-0.2,0.5-0.5,0.6-0.7
				C-389.9,566.1-389.8,565.7-389.8,565.3L-389.8,565.3z"/>
			<path class="st0" d="M-374.1,565.3c0,0.6-0.1,1.2-0.3,1.7c-0.2,0.5-0.5,1-0.9,1.3c-0.4,0.4-0.9,0.7-1.4,0.9
				c-0.6,0.2-1.1,0.3-1.7,0.3c-0.6,0-1.2-0.1-1.7-0.3c-0.5-0.2-1-0.5-1.4-0.9c-0.4-0.4-0.7-0.8-0.9-1.3c-0.2-0.5-0.3-1.1-0.3-1.7
				c0-0.6,0.1-1.2,0.3-1.7c0.2-0.5,0.5-0.9,0.9-1.3c0.4-0.4,0.9-0.6,1.4-0.8c0.6-0.2,1.1-0.3,1.7-0.3c0.6,0,1.2,0.1,1.7,0.3
				c0.5,0.2,1,0.5,1.4,0.8c0.4,0.4,0.7,0.8,0.9,1.3C-374.2,564.1-374.1,564.7-374.1,565.3z M-376.2,565.3c0-0.3-0.1-0.7-0.2-1
				c-0.1-0.3-0.3-0.5-0.5-0.8c-0.2-0.2-0.4-0.4-0.7-0.5c-0.3-0.1-0.6-0.2-0.9-0.2c-0.6,0-1.2,0.2-1.6,0.7c-0.2,0.2-0.4,0.5-0.5,0.8
				c-0.1,0.3-0.2,0.6-0.2,1c0,0.3,0.1,0.7,0.2,1c0.1,0.3,0.3,0.6,0.5,0.8c0.2,0.2,0.4,0.4,0.7,0.5c0.6,0.2,1.3,0.2,1.8,0
				c0.3-0.1,0.5-0.3,0.7-0.5c0.2-0.2,0.4-0.5,0.5-0.8C-376.2,566-376.2,565.6-376.2,565.3z"/>
			<g>
				<rect x="-386.3" y="561.2" class="st0" width="2" height="2"/>
				<rect x="-386.3" y="567.4" class="st0" width="2" height="2"/>
			</g>
		</g>
	</g>
	<g>
		<rect x="-250.2" y="359.5" class="st4" width="200.3" height="78"/>
		<g>
			<path class="st3" d="M-220,389.8h6.8c1.3,0,2.5,0.2,3.6,0.5c1.2,0.3,2.2,0.8,3.1,1.5c0.9,0.7,1.7,1.6,2.2,2.7
				c0.5,1.1,0.8,2.5,0.8,4.2c0,1.6-0.3,2.9-0.9,4c-0.6,1.1-1.3,2.1-2.2,2.8c-0.9,0.7-2,1.3-3.2,1.6c-1.2,0.4-2.4,0.5-3.7,0.5h-6.6
				V389.8z M-213.8,404.4c0.8,0,1.5-0.1,2.3-0.3c0.7-0.2,1.4-0.5,2-0.9c0.6-0.4,1-1,1.4-1.7c0.3-0.7,0.5-1.6,0.5-2.7
				c0-1.2-0.2-2.1-0.5-2.9c-0.3-0.7-0.8-1.3-1.3-1.7c-0.6-0.4-1.2-0.7-1.9-0.8c-0.7-0.2-1.5-0.2-2.3-0.2h-2.1v11.3H-213.8z"/>
			<path class="st3" d="M-199.9,389.8h4v17.8h-4V389.8z"/>
			<path class="st3" d="M-193.6,389.8h4.3l4.5,12.5h0.1l4.5-12.5h4.1l-7.1,17.8h-3.5L-193.6,389.8z"/>
			<path class="st3" d="M-173.7,389.8h12.3v3.3h-8.3v3.8h7.9v3.2h-7.9v4.2h8.7v3.4h-12.7V389.8z"/>
			<path class="st3" d="M-157.4,389.8h6.5c0.9,0,1.8,0.1,2.6,0.3c0.8,0.2,1.5,0.5,2.2,0.9c0.6,0.4,1.1,1,1.5,1.7
				c0.4,0.7,0.5,1.5,0.5,2.5c0,1.3-0.3,2.4-1,3.2c-0.7,0.8-1.5,1.4-2.5,1.7l4.2,7.6h-4.7l-3.6-6.9h-1.7v6.9h-4V389.8z M-151.3,397.6
				c0.4,0,0.8,0,1.1-0.1c0.4-0.1,0.7-0.2,1-0.4c0.3-0.2,0.5-0.4,0.7-0.7c0.2-0.3,0.3-0.7,0.3-1.2c0-0.4-0.1-0.8-0.2-1
				c-0.2-0.3-0.4-0.5-0.7-0.7c-0.3-0.2-0.6-0.3-0.9-0.3c-0.4-0.1-0.7-0.1-1.1-0.1h-2.3v4.6H-151.3z"/>
			<path class="st3" d="M-130.7,394.6c-0.4-0.5-0.9-1-1.6-1.4c-0.7-0.4-1.4-0.6-2.1-0.6c-0.3,0-0.7,0-1,0.1
				c-0.3,0.1-0.6,0.2-0.9,0.3c-0.3,0.1-0.5,0.3-0.6,0.6c-0.2,0.2-0.2,0.5-0.2,0.9c0,0.3,0.1,0.6,0.2,0.8c0.2,0.2,0.4,0.4,0.7,0.6
				c0.3,0.2,0.7,0.3,1.1,0.5c0.4,0.1,1,0.3,1.6,0.4c0.6,0.2,1.2,0.4,1.9,0.6c0.6,0.2,1.2,0.6,1.8,1c0.5,0.4,1,0.9,1.3,1.5
				c0.3,0.6,0.5,1.3,0.5,2.2c0,1.1-0.2,2-0.6,2.7c-0.4,0.8-0.9,1.4-1.6,1.8c-0.7,0.5-1.4,0.8-2.3,1c-0.8,0.2-1.7,0.3-2.7,0.3
				c-1.3,0-2.6-0.2-3.9-0.7c-1.3-0.5-2.3-1.2-3.1-2.2l2.8-2.8c0.4,0.6,1,1.2,1.8,1.6c0.8,0.4,1.6,0.6,2.5,0.6c0.3,0,0.6,0,0.9-0.1
				c0.3-0.1,0.6-0.2,0.9-0.3c0.3-0.2,0.5-0.4,0.6-0.6c0.2-0.3,0.2-0.6,0.2-1c0-0.4-0.1-0.7-0.2-0.9c-0.2-0.3-0.4-0.5-0.7-0.7
				c-0.3-0.2-0.7-0.4-1.2-0.5c-0.5-0.1-1-0.3-1.7-0.4c-0.6-0.2-1.3-0.3-1.8-0.6c-0.6-0.2-1.1-0.5-1.6-0.9c-0.5-0.4-0.9-0.9-1.1-1.4
				c-0.3-0.6-0.4-1.3-0.4-2.1c0-1,0.2-1.8,0.6-2.6c0.4-0.7,0.9-1.3,1.5-1.8c0.6-0.5,1.4-0.8,2.2-1c0.8-0.2,1.6-0.3,2.5-0.3
				c1.2,0,2.4,0.2,3.6,0.7c1.2,0.4,2.1,1.1,2.8,2L-130.7,394.6z"/>
			<path class="st3" d="M-124.4,407.7h4v-5.9h-4V407.7z M-124.4,389.8v5.9h4v-5.9H-124.4z"/>
			<path class="st3" d="M-118.2,389.8h4.3l4.5,12.5h0.1l4.5-12.5h4.1l-7.1,17.8h-3.5L-118.2,389.8z"/>
			<path class="st3" d="M-100,398.7c0-1.4,0.3-2.7,0.8-3.9s1.2-2.1,2.1-2.9c0.9-0.8,1.9-1.4,3.1-1.9c1.2-0.4,2.5-0.7,3.9-0.7
				c1.4,0,2.7,0.2,3.9,0.7c1.2,0.4,2.2,1.1,3.1,1.9c0.9,0.8,1.6,1.8,2.1,2.9s0.8,2.4,0.8,3.9c0,1.4-0.3,2.7-0.8,3.8
				c-0.5,1.2-1.2,2.2-2.1,3c-0.9,0.8-1.9,1.5-3.1,1.9c-1.2,0.5-2.5,0.7-3.9,0.7c-1.4,0-2.7-0.2-3.9-0.7c-1.2-0.5-2.2-1.1-3.1-1.9
				c-0.9-0.8-1.6-1.8-2.1-3C-99.8,401.3-100,400-100,398.7z M-95.7,398.7c0,1.8,0.5,3.2,1.5,4.2c1,1,2.3,1.5,3.9,1.5
				c1.6,0,3-0.5,4-1.5c1-1,1.5-2.4,1.5-4.2c0-0.8-0.1-1.6-0.4-2.3c-0.3-0.7-0.6-1.3-1.1-1.8c-0.5-0.5-1-0.9-1.7-1.2
				c-0.7-0.3-1.4-0.4-2.2-0.4s-1.6,0.1-2.2,0.4c-0.7,0.3-1.2,0.7-1.7,1.2c-0.5,0.5-0.8,1.1-1.1,1.8
				C-95.6,397.1-95.7,397.8-95.7,398.7z"/>
			<path class="st3" d="M-124.4,389.8v5.9h4v-5.9H-124.4z"/>
			<path class="st3" d="M-124.4,401.7v5.9h4v-5.9H-124.4z"/>
		</g>
	</g>
	<g>
		<rect x="-486.2" y="359.5" class="st4" width="200.3" height="78"/>
		<g>
			<path class="st0" d="M-456,389.8h6.8c1.3,0,2.5,0.2,3.6,0.5c1.2,0.3,2.2,0.8,3.1,1.5c0.9,0.7,1.7,1.6,2.2,2.7
				c0.5,1.1,0.8,2.5,0.8,4.2c0,1.6-0.3,2.9-0.9,4c-0.6,1.1-1.3,2.1-2.2,2.8c-0.9,0.7-2,1.3-3.2,1.6c-1.2,0.4-2.4,0.5-3.7,0.5h-6.6
				V389.8z M-449.8,404.4c0.8,0,1.5-0.1,2.3-0.3c0.7-0.2,1.4-0.5,2-0.9c0.6-0.4,1-1,1.4-1.7c0.3-0.7,0.5-1.6,0.5-2.7
				c0-1.2-0.2-2.1-0.5-2.9c-0.3-0.7-0.8-1.3-1.3-1.7c-0.6-0.4-1.2-0.7-1.9-0.8c-0.7-0.2-1.5-0.2-2.3-0.2h-2.1v11.3H-449.8z"/>
			<path class="st0" d="M-435.9,389.8h4v17.8h-4V389.8z"/>
			<path class="st0" d="M-429.6,389.8h4.3l4.5,12.5h0.1l4.5-12.5h4.1l-7.1,17.8h-3.5L-429.6,389.8z"/>
			<path class="st0" d="M-409.7,389.8h12.3v3.3h-8.3v3.8h7.9v3.2h-7.9v4.2h8.7v3.4h-12.7V389.8z"/>
			<path class="st0" d="M-393.4,389.8h6.5c0.9,0,1.8,0.1,2.6,0.3c0.8,0.2,1.5,0.5,2.2,0.9c0.6,0.4,1.1,1,1.5,1.7s0.5,1.5,0.5,2.5
				c0,1.3-0.3,2.4-1,3.2c-0.7,0.8-1.5,1.4-2.5,1.7l4.2,7.6h-4.7l-3.6-6.9h-1.7v6.9h-4V389.8z M-387.3,397.6c0.4,0,0.8,0,1.1-0.1
				c0.4-0.1,0.7-0.2,1-0.4c0.3-0.2,0.5-0.4,0.7-0.7c0.2-0.3,0.3-0.7,0.3-1.2c0-0.4-0.1-0.8-0.2-1c-0.2-0.3-0.4-0.5-0.7-0.7
				c-0.3-0.2-0.6-0.3-0.9-0.3c-0.4-0.1-0.7-0.1-1.1-0.1h-2.3v4.6H-387.3z"/>
			<path class="st0" d="M-366.7,394.6c-0.4-0.5-0.9-1-1.6-1.4c-0.7-0.4-1.4-0.6-2.1-0.6c-0.3,0-0.7,0-1,0.1
				c-0.3,0.1-0.6,0.2-0.9,0.3c-0.3,0.1-0.5,0.3-0.6,0.6c-0.2,0.2-0.2,0.5-0.2,0.9c0,0.3,0.1,0.6,0.2,0.8c0.2,0.2,0.4,0.4,0.7,0.6
				c0.3,0.2,0.7,0.3,1.1,0.5c0.4,0.1,1,0.3,1.6,0.4c0.6,0.2,1.2,0.4,1.9,0.6c0.6,0.2,1.2,0.6,1.8,1c0.5,0.4,1,0.9,1.3,1.5
				c0.3,0.6,0.5,1.3,0.5,2.2c0,1.1-0.2,2-0.6,2.7c-0.4,0.8-0.9,1.4-1.6,1.8c-0.7,0.5-1.4,0.8-2.3,1c-0.8,0.2-1.7,0.3-2.7,0.3
				c-1.3,0-2.6-0.2-3.9-0.7c-1.3-0.5-2.3-1.2-3.1-2.2l2.8-2.8c0.4,0.6,1,1.2,1.8,1.6c0.8,0.4,1.6,0.6,2.5,0.6c0.3,0,0.6,0,0.9-0.1
				c0.3-0.1,0.6-0.2,0.9-0.3c0.3-0.2,0.5-0.4,0.6-0.6c0.2-0.3,0.2-0.6,0.2-1c0-0.4-0.1-0.7-0.2-0.9c-0.2-0.3-0.4-0.5-0.7-0.7
				c-0.3-0.2-0.7-0.4-1.2-0.5c-0.5-0.1-1-0.3-1.7-0.4c-0.6-0.2-1.3-0.3-1.8-0.6c-0.6-0.2-1.1-0.5-1.6-0.9c-0.5-0.4-0.9-0.9-1.1-1.4
				c-0.3-0.6-0.4-1.3-0.4-2.1c0-1,0.2-1.8,0.6-2.6c0.4-0.7,0.9-1.3,1.5-1.8c0.6-0.5,1.4-0.8,2.2-1c0.8-0.2,1.6-0.3,2.5-0.3
				c1.2,0,2.4,0.2,3.6,0.7c1.2,0.4,2.1,1.1,2.8,2L-366.7,394.6z"/>
			<path class="st0" d="M-360.4,407.7h4v-5.9h-4V407.7z M-360.4,389.8v5.9h4v-5.9H-360.4z"/>
			<path class="st0" d="M-354.2,389.8h4.3l4.5,12.5h0.1l4.5-12.5h4.1l-7.1,17.8h-3.5L-354.2,389.8z"/>
			<path class="st0" d="M-336,398.7c0-1.4,0.3-2.7,0.8-3.9s1.2-2.1,2.1-2.9c0.9-0.8,1.9-1.4,3.1-1.9c1.2-0.4,2.5-0.7,3.9-0.7
				c1.4,0,2.7,0.2,3.9,0.7c1.2,0.4,2.2,1.1,3.1,1.9c0.9,0.8,1.6,1.8,2.1,2.9c0.5,1.2,0.8,2.4,0.8,3.9c0,1.4-0.3,2.7-0.8,3.8
				c-0.5,1.2-1.2,2.2-2.1,3c-0.9,0.8-1.9,1.5-3.1,1.9c-1.2,0.5-2.5,0.7-3.9,0.7c-1.4,0-2.7-0.2-3.9-0.7c-1.2-0.5-2.2-1.1-3.1-1.9
				c-0.9-0.8-1.6-1.8-2.1-3C-335.8,401.3-336,400-336,398.7z M-331.7,398.7c0,1.8,0.5,3.2,1.5,4.2c1,1,2.3,1.5,3.9,1.5
				c1.6,0,3-0.5,4-1.5c1-1,1.5-2.4,1.5-4.2c0-0.8-0.1-1.6-0.4-2.3c-0.3-0.7-0.6-1.3-1.1-1.8c-0.5-0.5-1-0.9-1.7-1.2
				c-0.7-0.3-1.4-0.4-2.2-0.4s-1.6,0.1-2.2,0.4c-0.7,0.3-1.2,0.7-1.7,1.2c-0.5,0.5-0.8,1.1-1.1,1.8
				C-331.6,397.1-331.7,397.8-331.7,398.7z"/>
			<path class="st0" d="M-360.4,389.8v5.9h4v-5.9H-360.4z"/>
			<path class="st0" d="M-360.4,401.7v5.9h4v-5.9H-360.4z"/>
		</g>
	</g>
	<g>
		<g>
			<rect x="-187" y="454" class="st4" width="74" height="75.4"/>
		</g>
		<g>
			<path class="st3" d="M-167,473.3h3.4c0.6,0,1.2,0.1,1.8,0.2c0.6,0.2,1.1,0.4,1.6,0.8c0.5,0.4,0.8,0.8,1.1,1.4
				c0.3,0.6,0.4,1.3,0.4,2.1c0,0.8-0.1,1.5-0.4,2c-0.3,0.6-0.7,1-1.1,1.4c-0.5,0.4-1,0.7-1.6,0.8c-0.6,0.2-1.2,0.3-1.8,0.3h-3.3
				V473.3z M-164,480.7c0.4,0,0.8,0,1.1-0.1c0.4-0.1,0.7-0.2,1-0.5c0.3-0.2,0.5-0.5,0.7-0.9c0.2-0.4,0.3-0.8,0.3-1.4
				c0-0.6-0.1-1.1-0.3-1.5c-0.2-0.4-0.4-0.7-0.7-0.9c-0.3-0.2-0.6-0.4-1-0.4c-0.4-0.1-0.7-0.1-1.1-0.1h-1.1v5.7H-164z"/>
			<path class="st3" d="M-151.4,473.3h2v9.1h-2V473.3z"/>
			<path class="st3" d="M-142.1,473.3h2.2l2.2,6.4h0.1l2.3-6.4h2.1l-3.6,9.1h-1.7L-142.1,473.3z"/>
			<path class="st3" d="M-166.7,486.9h6.2v1.7h-4.1v1.9h3.9v1.6h-3.9v2.1h4.4v1.7h-6.4V486.9z"/>
			<path class="st3" d="M-153.4,486.9h3.2c0.5,0,0.9,0,1.3,0.1c0.4,0.1,0.8,0.3,1.1,0.5c0.3,0.2,0.6,0.5,0.7,0.8
				c0.2,0.3,0.3,0.8,0.3,1.3c0,0.7-0.2,1.2-0.5,1.6c-0.3,0.4-0.7,0.7-1.2,0.9l2.1,3.8h-2.4l-1.8-3.5h-0.9v3.5h-2V486.9z
				 M-150.3,490.9c0.2,0,0.4,0,0.6-0.1c0.2,0,0.4-0.1,0.5-0.2c0.1-0.1,0.3-0.2,0.4-0.4c0.1-0.2,0.1-0.4,0.1-0.6c0-0.2,0-0.4-0.1-0.5
				c-0.1-0.1-0.2-0.3-0.3-0.3c-0.1-0.1-0.3-0.1-0.5-0.2c-0.2,0-0.4-0.1-0.5-0.1h-1.2v2.3H-150.3z"/>
			<path class="st3" d="M-135.4,489.4c-0.2-0.3-0.4-0.5-0.8-0.7c-0.3-0.2-0.7-0.3-1.1-0.3c-0.2,0-0.3,0-0.5,0.1
				c-0.2,0-0.3,0.1-0.4,0.2c-0.1,0.1-0.2,0.2-0.3,0.3c-0.1,0.1-0.1,0.3-0.1,0.4c0,0.2,0,0.3,0.1,0.4c0.1,0.1,0.2,0.2,0.4,0.3
				c0.2,0.1,0.3,0.2,0.6,0.2c0.2,0.1,0.5,0.1,0.8,0.2c0.3,0.1,0.6,0.2,0.9,0.3c0.3,0.1,0.6,0.3,0.9,0.5c0.3,0.2,0.5,0.5,0.6,0.8
				c0.2,0.3,0.3,0.7,0.3,1.1c0,0.5-0.1,1-0.3,1.4c-0.2,0.4-0.5,0.7-0.8,0.9c-0.3,0.2-0.7,0.4-1.1,0.5c-0.4,0.1-0.9,0.2-1.3,0.2
				c-0.7,0-1.3-0.1-1.9-0.4c-0.6-0.3-1.1-0.6-1.5-1.1l1.4-1.4c0.2,0.3,0.5,0.6,0.9,0.8c0.4,0.2,0.8,0.3,1.3,0.3c0.2,0,0.3,0,0.5-0.1
				c0.2,0,0.3-0.1,0.4-0.2c0.1-0.1,0.2-0.2,0.3-0.3c0.1-0.1,0.1-0.3,0.1-0.5c0-0.2,0-0.3-0.1-0.5c-0.1-0.1-0.2-0.2-0.4-0.3
				c-0.2-0.1-0.4-0.2-0.6-0.3c-0.2-0.1-0.5-0.1-0.8-0.2c-0.3-0.1-0.6-0.2-0.9-0.3c-0.3-0.1-0.6-0.3-0.8-0.5
				c-0.2-0.2-0.4-0.4-0.6-0.7c-0.1-0.3-0.2-0.6-0.2-1.1c0-0.5,0.1-0.9,0.3-1.3c0.2-0.4,0.4-0.7,0.8-0.9c0.3-0.2,0.7-0.4,1.1-0.5
				c0.4-0.1,0.8-0.2,1.2-0.2c0.6,0,1.2,0.1,1.8,0.3c0.6,0.2,1,0.6,1.4,1L-135.4,489.4z"/>
			<path class="st3" d="M-154.6,501.2v2.1l5.1,1.9v0.1l-5.1,1.9v2.2l7.8-3.1v-1.8L-154.6,501.2z"/>
			<path class="st3" d="M-142.9,505c0-0.7,0.1-1.4,0.4-2c0.3-0.6,0.6-1.1,1-1.5c0.4-0.4,0.9-0.7,1.5-0.9c0.6-0.2,1.2-0.3,1.9-0.3
				c0.7,0,1.4,0.1,2,0.3c0.6,0.2,1.1,0.5,1.6,0.9c0.4,0.4,0.8,0.9,1,1.5c0.3,0.6,0.4,1.2,0.4,2c0,0.7-0.1,1.4-0.4,1.9
				c-0.3,0.6-0.6,1.1-1,1.5c-0.4,0.4-1,0.8-1.6,1c-0.6,0.2-1.2,0.4-2,0.4c-0.7,0-1.3-0.1-1.9-0.4c-0.6-0.2-1.1-0.6-1.5-1
				c-0.4-0.4-0.8-0.9-1-1.5C-142.7,506.4-142.9,505.7-142.9,505z M-140.7,505c0,0.9,0.2,1.6,0.7,2.1c0.5,0.5,1.2,0.8,2,0.8
				c0.8,0,1.5-0.3,2-0.8c0.5-0.5,0.7-1.2,0.7-2.1c0-0.4-0.1-0.8-0.2-1.2c-0.1-0.4-0.3-0.7-0.6-0.9c-0.2-0.3-0.5-0.5-0.9-0.6
				c-0.3-0.1-0.7-0.2-1.1-0.2c-0.4,0-0.8,0.1-1.1,0.2c-0.3,0.1-0.6,0.3-0.9,0.6c-0.2,0.3-0.4,0.6-0.6,0.9
				C-140.6,504.2-140.7,504.6-140.7,505z"/>
			<g>
				<path class="st3" d="M-164.5,509.6h2v-3h-2V509.6z M-164.5,500.5v3h2v-3H-164.5z"/>
				<path class="st3" d="M-164.5,500.5v3h2v-3H-164.5z"/>
				<path class="st3" d="M-164.5,506.6v3h2v-3H-164.5z"/>
			</g>
			<g>
				<path class="st3" d="M-164.5,509.6h2v-3h-2V509.6z M-164.5,500.5v3h2v-3H-164.5z"/>
			</g>
		</g>
	</g>
	<g>
		<g>
			<rect x="-421.9" y="454" class="st4" width="74" height="75.4"/>
		</g>
		<g>
			<path class="st0" d="M-401.9,473.3h3.4c0.6,0,1.2,0.1,1.8,0.2c0.6,0.2,1.1,0.4,1.6,0.8c0.5,0.4,0.8,0.8,1.1,1.4
				c0.3,0.6,0.4,1.3,0.4,2.1c0,0.8-0.1,1.5-0.4,2c-0.3,0.6-0.7,1-1.1,1.4c-0.5,0.4-1,0.7-1.6,0.8c-0.6,0.2-1.2,0.3-1.8,0.3h-3.3
				V473.3z M-398.9,480.7c0.4,0,0.8,0,1.1-0.1c0.4-0.1,0.7-0.2,1-0.5c0.3-0.2,0.5-0.5,0.7-0.9c0.2-0.4,0.3-0.8,0.3-1.4
				c0-0.6-0.1-1.1-0.3-1.5c-0.2-0.4-0.4-0.7-0.7-0.9c-0.3-0.2-0.6-0.4-1-0.4c-0.4-0.1-0.7-0.1-1.1-0.1h-1.1v5.7H-398.9z"/>
			<path class="st0" d="M-386.3,473.3h2v9.1h-2V473.3z"/>
			<path class="st0" d="M-377,473.3h2.2l2.2,6.4h0.1l2.3-6.4h2.1l-3.6,9.1h-1.7L-377,473.3z"/>
			<path class="st0" d="M-401.5,486.9h6.2v1.7h-4.1v1.9h3.9v1.6h-3.9v2.1h4.4v1.7h-6.4V486.9z"/>
			<path class="st0" d="M-388.3,486.9h3.2c0.5,0,0.9,0,1.3,0.1c0.4,0.1,0.8,0.3,1.1,0.5c0.3,0.2,0.6,0.5,0.7,0.8
				c0.2,0.3,0.3,0.8,0.3,1.3c0,0.7-0.2,1.2-0.5,1.6c-0.3,0.4-0.7,0.7-1.2,0.9l2.1,3.8h-2.4l-1.8-3.5h-0.9v3.5h-2V486.9z
				 M-385.2,490.9c0.2,0,0.4,0,0.6-0.1c0.2,0,0.4-0.1,0.5-0.2c0.1-0.1,0.3-0.2,0.4-0.4c0.1-0.2,0.1-0.4,0.1-0.6c0-0.2,0-0.4-0.1-0.5
				c-0.1-0.1-0.2-0.3-0.3-0.3c-0.1-0.1-0.3-0.1-0.5-0.2c-0.2,0-0.4-0.1-0.5-0.1h-1.2v2.3H-385.2z"/>
			<path class="st0" d="M-370.3,489.4c-0.2-0.3-0.4-0.5-0.8-0.7c-0.3-0.2-0.7-0.3-1.1-0.3c-0.2,0-0.3,0-0.5,0.1
				c-0.2,0-0.3,0.1-0.4,0.2c-0.1,0.1-0.2,0.2-0.3,0.3c-0.1,0.1-0.1,0.3-0.1,0.4c0,0.2,0,0.3,0.1,0.4c0.1,0.1,0.2,0.2,0.4,0.3
				c0.2,0.1,0.3,0.2,0.6,0.2c0.2,0.1,0.5,0.1,0.8,0.2c0.3,0.1,0.6,0.2,0.9,0.3c0.3,0.1,0.6,0.3,0.9,0.5c0.3,0.2,0.5,0.5,0.6,0.8
				c0.2,0.3,0.3,0.7,0.3,1.1c0,0.5-0.1,1-0.3,1.4c-0.2,0.4-0.5,0.7-0.8,0.9c-0.3,0.2-0.7,0.4-1.1,0.5c-0.4,0.1-0.9,0.2-1.3,0.2
				c-0.7,0-1.3-0.1-1.9-0.4c-0.6-0.3-1.1-0.6-1.5-1.1l1.4-1.4c0.2,0.3,0.5,0.6,0.9,0.8c0.4,0.2,0.8,0.3,1.3,0.3c0.2,0,0.3,0,0.5-0.1
				c0.2,0,0.3-0.1,0.4-0.2c0.1-0.1,0.2-0.2,0.3-0.3c0.1-0.1,0.1-0.3,0.1-0.5c0-0.2,0-0.3-0.1-0.5c-0.1-0.1-0.2-0.2-0.4-0.3
				c-0.2-0.1-0.4-0.2-0.6-0.3c-0.2-0.1-0.5-0.1-0.8-0.2c-0.3-0.1-0.6-0.2-0.9-0.3c-0.3-0.1-0.6-0.3-0.8-0.5
				c-0.2-0.2-0.4-0.4-0.6-0.7c-0.1-0.3-0.2-0.6-0.2-1.1c0-0.5,0.1-0.9,0.3-1.3c0.2-0.4,0.4-0.7,0.8-0.9c0.3-0.2,0.7-0.4,1.1-0.5
				c0.4-0.1,0.8-0.2,1.2-0.2c0.6,0,1.2,0.1,1.8,0.3c0.6,0.2,1,0.6,1.4,1L-370.3,489.4z"/>
			<path class="st0" d="M-389.5,501.2v2.1l5.1,1.9v0.1l-5.1,1.9v2.2l7.8-3.1v-1.8L-389.5,501.2z"/>
			<path class="st0" d="M-377.8,505c0-0.7,0.1-1.4,0.4-2c0.3-0.6,0.6-1.1,1-1.5c0.4-0.4,0.9-0.7,1.5-0.9c0.6-0.2,1.2-0.3,1.9-0.3
				c0.7,0,1.4,0.1,2,0.3c0.6,0.2,1.1,0.5,1.6,0.9c0.4,0.4,0.8,0.9,1,1.5c0.3,0.6,0.4,1.2,0.4,2c0,0.7-0.1,1.4-0.4,1.9
				c-0.3,0.6-0.6,1.1-1,1.5c-0.4,0.4-1,0.8-1.6,1c-0.6,0.2-1.2,0.4-2,0.4c-0.7,0-1.3-0.1-1.9-0.4c-0.6-0.2-1.1-0.6-1.5-1
				c-0.4-0.4-0.8-0.9-1-1.5C-377.6,506.4-377.8,505.7-377.8,505z M-375.6,505c0,0.9,0.2,1.6,0.7,2.1c0.5,0.5,1.2,0.8,2,0.8
				c0.8,0,1.5-0.3,2-0.8c0.5-0.5,0.7-1.2,0.7-2.1c0-0.4-0.1-0.8-0.2-1.2c-0.1-0.4-0.3-0.7-0.6-0.9c-0.2-0.3-0.5-0.5-0.9-0.6
				c-0.3-0.1-0.7-0.2-1.1-0.2s-0.8,0.1-1.1,0.2c-0.3,0.1-0.6,0.3-0.9,0.6c-0.2,0.3-0.4,0.6-0.6,0.9
				C-375.5,504.2-375.6,504.6-375.6,505z"/>
			<g>
				<path class="st0" d="M-399.4,509.6h2v-3h-2V509.6z M-399.4,500.5v3h2v-3H-399.4z"/>
				<path class="st0" d="M-399.4,500.5v3h2v-3H-399.4z"/>
				<path class="st0" d="M-399.4,506.6v3h2v-3H-399.4z"/>
			</g>
			<g>
				<path class="st0" d="M-399.4,509.6h2v-3h-2V509.6z M-399.4,500.5v3h2v-3H-399.4z"/>
			</g>
		</g>
	</g>
</g>
<g id="espaciado">
	<g class="st5">
		<path class="st3" d="M-581,11.9c0-1.4,0.3-2.7,0.8-3.9c0.5-1.2,1.2-2.1,2.1-2.9c0.9-0.8,1.9-1.4,3.1-1.9c1.2-0.4,2.5-0.7,3.9-0.7
			c1.4,0,2.7,0.2,3.9,0.7c1.2,0.4,2.2,1.1,3.1,1.9c0.9,0.8,1.6,1.8,2.1,2.9s0.8,2.4,0.8,3.9c0,1.4-0.3,2.7-0.8,3.8
			c-0.5,1.2-1.2,2.2-2.1,3c-0.9,0.8-1.9,1.5-3.1,1.9c-1.2,0.5-2.5,0.7-3.9,0.7c-1.4,0-2.7-0.2-3.9-0.7c-1.2-0.5-2.2-1.1-3.1-1.9
			c-0.9-0.8-1.6-1.8-2.1-3C-580.8,14.5-581,13.2-581,11.9z M-576.7,11.9c0,1.8,0.5,3.2,1.5,4.2c1,1,2.3,1.5,3.9,1.5
			c1.6,0,3-0.5,4-1.5c1-1,1.5-2.4,1.5-4.2c0-0.8-0.1-1.6-0.4-2.3c-0.3-0.7-0.6-1.3-1.1-1.8c-0.5-0.5-1-0.9-1.7-1.2
			c-0.7-0.3-1.4-0.4-2.2-0.4s-1.6,0.1-2.2,0.4c-0.7,0.3-1.2,0.7-1.7,1.2c-0.5,0.5-0.8,1.1-1.1,1.8C-576.6,10.3-576.7,11-576.7,11.9z
			"/>
		<path class="st3" d="M-551.3,21.3c-1.4,0-2.7-0.2-3.9-0.7c-1.2-0.5-2.2-1.1-3.1-1.9c-0.9-0.8-1.6-1.8-2.1-3
			c-0.5-1.2-0.8-2.4-0.8-3.8c0-1.4,0.3-2.7,0.8-3.9c0.5-1.2,1.2-2.1,2.1-2.9c0.9-0.8,1.9-1.4,3.1-1.9c1.2-0.4,2.5-0.7,3.9-0.7
			 M-551.3,6.1c-0.8,0-1.6,0.1-2.2,0.4c-0.7,0.3-1.2,0.7-1.7,1.2c-0.5,0.5-0.8,1.1-1.1,1.8c-0.3,0.7-0.4,1.5-0.4,2.3
			c0,1.8,0.5,3.2,1.5,4.2c1,1,2.3,1.5,3.9,1.5"/>
		<path class="st3" d="M-652.1,21c1.4,0,2.7,0.3,3.9,0.8c1.2,0.5,2.1,1.2,2.9,2.1c0.8,0.9,1.4,1.9,1.9,3.1c0.4,1.2,0.7,2.5,0.7,3.9
			c0,1.4-0.2,2.7-0.7,3.9c-0.4,1.2-1.1,2.2-1.9,3.1c-0.8,0.9-1.8,1.6-2.9,2.1c-1.2,0.5-2.4,0.8-3.9,0.8c-1.4,0-2.7-0.3-3.8-0.8
			c-1.2-0.5-2.2-1.2-3-2.1c-0.8-0.9-1.5-1.9-1.9-3.1c-0.5-1.2-0.7-2.5-0.7-3.9c0-1.4,0.2-2.7,0.7-3.9c0.5-1.2,1.1-2.2,1.9-3.1
			c0.8-0.9,1.8-1.6,3-2.1C-654.7,21.3-653.5,21-652.1,21z M-652.1,25.4c-1.8,0-3.2,0.5-4.2,1.5c-1,1-1.5,2.3-1.5,3.9
			c0,1.6,0.5,3,1.5,4c1,1,2.4,1.5,4.2,1.5c0.8,0,1.6-0.1,2.3-0.4c0.7-0.3,1.3-0.6,1.8-1.1c0.5-0.5,0.9-1,1.2-1.7
			c0.3-0.7,0.4-1.4,0.4-2.2c0-0.8-0.1-1.6-0.4-2.2c-0.3-0.7-0.7-1.2-1.2-1.7c-0.5-0.5-1.1-0.8-1.8-1.1
			C-650.5,25.5-651.2,25.4-652.1,25.4z"/>
		<path class="st3" d="M-661.5,50.8c0-1.4,0.2-2.7,0.7-3.9c0.5-1.2,1.1-2.2,1.9-3.1c0.8-0.9,1.8-1.6,3-2.1c1.2-0.5,2.4-0.8,3.8-0.8
			c1.4,0,2.7,0.3,3.9,0.8c1.2,0.5,2.1,1.2,2.9,2.1c0.8,0.9,1.4,1.9,1.9,3.1c0.4,1.2,0.7,2.5,0.7,3.9 M-646.4,50.8
			c0-0.8-0.1-1.6-0.4-2.2c-0.3-0.7-0.7-1.2-1.2-1.7c-0.5-0.5-1.1-0.8-1.8-1.1c-0.7-0.3-1.5-0.4-2.3-0.4c-1.8,0-3.2,0.5-4.2,1.5
			c-1,1-1.5,2.3-1.5,3.9"/>
		<path class="st3" d="M-652.2,2.8c-1.4,0-2.7-0.3-3.9-0.8c-1.2-0.5-2.1-1.2-2.9-2.1c-0.8-0.9-1.4-1.9-1.9-3.1
			c-0.4-1.2-0.7-2.5-0.7-3.9c0-1.4,0.2-2.7,0.7-3.9c0.4-1.2,1.1-2.2,1.9-3.1c0.8-0.9,1.8-1.6,2.9-2.1c1.2-0.5,2.4-0.8,3.9-0.8
			c1.4,0,2.7,0.3,3.8,0.8c1.2,0.5,2.2,1.2,3,2.1c0.8,0.9,1.5,1.9,1.9,3.1c0.5,1.2,0.7,2.5,0.7,3.9c0,1.4-0.2,2.7-0.7,3.9
			c-0.5,1.2-1.1,2.2-1.9,3.1c-0.8,0.9-1.8,1.6-3,2.1C-649.6,2.6-650.8,2.8-652.2,2.8z M-652.2-1.5c1.8,0,3.2-0.5,4.2-1.5
			c1-1,1.5-2.3,1.5-3.9c0-1.6-0.5-3-1.5-4c-1-1-2.4-1.5-4.2-1.5c-0.8,0-1.6,0.1-2.3,0.4c-0.7,0.3-1.3,0.6-1.8,1.1
			c-0.5,0.5-0.9,1-1.2,1.7c-0.3,0.7-0.4,1.4-0.4,2.2s0.1,1.6,0.4,2.2c0.3,0.7,0.7,1.2,1.2,1.7c0.5,0.5,1.1,0.8,1.8,1.1
			C-653.8-1.7-653-1.5-652.2-1.5z"/>
		<path class="st3" d="M-642.8-27c0,1.4-0.2,2.7-0.7,3.9c-0.5,1.2-1.1,2.2-1.9,3.1c-0.8,0.9-1.8,1.6-3,2.1c-1.2,0.5-2.4,0.8-3.8,0.8
			c-1.4,0-2.7-0.3-3.9-0.8c-1.2-0.5-2.1-1.2-2.9-2.1c-0.8-0.9-1.4-1.9-1.9-3.1c-0.4-1.2-0.7-2.5-0.7-3.9 M-657.9-27
			c0,0.8,0.1,1.6,0.4,2.2c0.3,0.7,0.7,1.2,1.2,1.7c0.5,0.5,1.1,0.8,1.8,1.1c0.7,0.3,1.5,0.4,2.3,0.4c1.8,0,3.2-0.5,4.2-1.5
			c1-1,1.5-2.3,1.5-3.9"/>
		<path class="st3" d="M-721.3,12c0,1.4-0.3,2.7-0.8,3.9c-0.5,1.2-1.2,2.1-2.1,2.9c-0.9,0.8-1.9,1.4-3.1,1.9
			c-1.2,0.4-2.5,0.7-3.9,0.7c-1.4,0-2.7-0.2-3.9-0.7c-1.2-0.4-2.2-1.1-3.1-1.9c-0.9-0.8-1.6-1.8-2.1-2.9s-0.8-2.4-0.8-3.9
			c0-1.4,0.3-2.7,0.8-3.8c0.5-1.2,1.2-2.2,2.1-3c0.9-0.8,1.9-1.5,3.1-1.9c1.2-0.5,2.5-0.7,3.9-0.7c1.4,0,2.7,0.2,3.9,0.7
			c1.2,0.5,2.2,1.1,3.1,1.9c0.9,0.8,1.6,1.8,2.1,3C-721.5,9.3-721.3,10.6-721.3,12z M-725.6,12c0-1.8-0.5-3.2-1.5-4.2
			c-1-1-2.3-1.5-3.9-1.5c-1.6,0-3,0.5-4,1.5c-1,1-1.5,2.4-1.5,4.2c0,0.8,0.1,1.6,0.4,2.3c0.3,0.7,0.6,1.3,1.1,1.8
			c0.5,0.5,1,0.9,1.7,1.2c0.7,0.3,1.4,0.4,2.2,0.4s1.6-0.1,2.2-0.4c0.7-0.3,1.2-0.7,1.7-1.2c0.5-0.5,0.8-1.1,1.1-1.8
			C-725.7,13.6-725.6,12.8-725.6,12z"/>
		<path class="st3" d="M-751,2.5c1.4,0,2.7,0.2,3.9,0.7c1.2,0.5,2.2,1.1,3.1,1.9c0.9,0.8,1.6,1.8,2.1,3c0.5,1.2,0.8,2.4,0.8,3.8
			c0,1.4-0.3,2.7-0.8,3.9c-0.5,1.2-1.2,2.1-2.1,2.9c-0.9,0.8-1.9,1.4-3.1,1.9c-1.2,0.4-2.5,0.7-3.9,0.7 M-751,17.7
			c0.8,0,1.6-0.1,2.2-0.4c0.7-0.3,1.2-0.7,1.7-1.2c0.5-0.5,0.8-1.1,1.1-1.8c0.3-0.7,0.4-1.5,0.4-2.3c0-1.8-0.5-3.2-1.5-4.2
			c-1-1-2.3-1.5-3.9-1.5"/>
	</g>
	<g class="st5">
		<path class="st3" d="M-635.4,230.7c0,0.5-0.1,1-0.3,1.4c-0.2,0.4-0.4,0.8-0.7,1.1c-0.3,0.3-0.7,0.5-1.1,0.7
			c-0.5,0.2-0.9,0.2-1.4,0.2c-0.5,0-1-0.1-1.4-0.2c-0.4-0.2-0.8-0.4-1.1-0.7c-0.3-0.3-0.6-0.7-0.7-1.1c-0.2-0.4-0.3-0.9-0.3-1.4
			c0-0.5,0.1-1,0.3-1.4c0.2-0.4,0.4-0.8,0.7-1.1c0.3-0.3,0.7-0.5,1.1-0.7c0.5-0.2,0.9-0.2,1.4-0.2c0.5,0,1,0.1,1.4,0.2
			c0.4,0.1,0.8,0.4,1.1,0.7c0.3,0.3,0.6,0.7,0.7,1.1C-635.5,229.7-635.4,230.2-635.4,230.7z M-637.1,230.7c0-0.3,0-0.5-0.1-0.8
			c-0.1-0.2-0.2-0.4-0.4-0.6c-0.2-0.2-0.4-0.3-0.6-0.4c-0.2-0.1-0.5-0.2-0.8-0.2c-0.5,0-1,0.2-1.3,0.6c-0.2,0.2-0.3,0.4-0.4,0.6
			c-0.1,0.3-0.1,0.5-0.1,0.8c0,0.3,0,0.6,0.1,0.8c0.1,0.2,0.2,0.5,0.4,0.6c0.2,0.2,0.4,0.3,0.6,0.4c0.5,0.2,1,0.2,1.5,0
			c0.2-0.1,0.4-0.2,0.6-0.4c0.2-0.2,0.3-0.4,0.4-0.6C-637.1,231.2-637.1,231-637.1,230.7z"/>
		<path class="st3" d="M-660.3,230.6c0,0.5-0.1,1-0.3,1.4c-0.2,0.4-0.4,0.8-0.7,1.1c-0.3,0.3-0.7,0.5-1.1,0.7
			c-0.5,0.2-0.9,0.2-1.4,0.2c-0.5,0-1-0.1-1.4-0.2c-0.4-0.2-0.8-0.4-1.1-0.7c-0.3-0.3-0.6-0.7-0.7-1.1c-0.2-0.4-0.3-0.9-0.3-1.4
			c0-0.5,0.1-1,0.3-1.4c0.2-0.4,0.4-0.8,0.7-1.1c0.3-0.3,0.7-0.5,1.1-0.7c0.5-0.2,0.9-0.2,1.4-0.2c0.5,0,1,0.1,1.4,0.2
			c0.4,0.1,0.8,0.4,1.1,0.7c0.3,0.3,0.6,0.7,0.7,1.1C-660.4,229.6-660.3,230.1-660.3,230.6z M-662,230.6c0-0.3,0-0.5-0.1-0.8
			c-0.1-0.2-0.2-0.4-0.4-0.6c-0.2-0.2-0.4-0.3-0.6-0.4c-0.2-0.1-0.5-0.2-0.8-0.2c-0.5,0-1,0.2-1.3,0.6c-0.2,0.2-0.3,0.4-0.4,0.6
			c-0.1,0.3-0.1,0.5-0.1,0.8c0,0.3,0,0.6,0.1,0.8c0.1,0.2,0.2,0.5,0.4,0.6c0.2,0.2,0.4,0.3,0.6,0.4c0.5,0.2,1,0.2,1.5,0
			c0.2-0.1,0.4-0.2,0.6-0.4c0.2-0.2,0.3-0.4,0.4-0.6C-662,231.1-662,230.8-662,230.6z"/>
	</g>
	<g class="st5">
		<path class="st3" d="M-631.9,178.6c0,0.6-0.1,1.2-0.3,1.7c-0.2,0.5-0.5,1-0.9,1.3c-0.4,0.4-0.9,0.7-1.4,0.9
			c-0.6,0.2-1.1,0.3-1.7,0.3c-0.6,0-1.2-0.1-1.7-0.3c-0.5-0.2-1-0.5-1.4-0.9c-0.4-0.4-0.7-0.8-0.9-1.3c-0.2-0.5-0.3-1.1-0.3-1.7
			c0-0.6,0.1-1.2,0.3-1.7c0.2-0.5,0.5-0.9,0.9-1.3c0.4-0.4,0.9-0.6,1.4-0.8c0.6-0.2,1.1-0.3,1.7-0.3c0.6,0,1.2,0.1,1.7,0.3
			c0.5,0.2,1,0.5,1.4,0.8c0.4,0.4,0.7,0.8,0.9,1.3C-632,177.5-631.9,178-631.9,178.6z M-633.9,178.6c0-0.3-0.1-0.7-0.2-1
			c-0.1-0.3-0.3-0.5-0.5-0.8c-0.2-0.2-0.4-0.4-0.7-0.5c-0.3-0.1-0.6-0.2-0.9-0.2c-0.6,0-1.2,0.2-1.6,0.7c-0.2,0.2-0.4,0.5-0.5,0.8
			c-0.1,0.3-0.2,0.6-0.2,1c0,0.3,0.1,0.7,0.2,1c0.1,0.3,0.3,0.6,0.5,0.8c0.2,0.2,0.4,0.4,0.7,0.5c0.6,0.2,1.3,0.2,1.8,0
			c0.3-0.1,0.5-0.3,0.7-0.5c0.2-0.2,0.4-0.5,0.5-0.8C-634,179.3-633.9,179-633.9,178.6z"/>
		<path class="st3" d="M-662.2,178.5c0,0.6-0.1,1.2-0.3,1.7c-0.2,0.5-0.5,1-0.9,1.3c-0.4,0.4-0.9,0.7-1.4,0.9
			c-0.6,0.2-1.1,0.3-1.7,0.3c-0.6,0-1.2-0.1-1.7-0.3c-0.5-0.2-1-0.5-1.4-0.9c-0.4-0.4-0.7-0.8-0.9-1.3c-0.2-0.5-0.3-1.1-0.3-1.7
			c0-0.6,0.1-1.2,0.3-1.7c0.2-0.5,0.5-0.9,0.9-1.3c0.4-0.4,0.9-0.6,1.4-0.8c0.6-0.2,1.1-0.3,1.7-0.3c0.6,0,1.2,0.1,1.7,0.3
			c0.5,0.2,1,0.5,1.4,0.8c0.4,0.4,0.7,0.8,0.9,1.3C-662.3,177.3-662.2,177.9-662.2,178.5z M-664.3,178.5c0-0.3-0.1-0.7-0.2-1
			c-0.1-0.3-0.3-0.5-0.5-0.8c-0.2-0.2-0.4-0.4-0.7-0.5c-0.3-0.1-0.6-0.2-0.9-0.2c-0.6,0-1.2,0.2-1.6,0.7c-0.2,0.2-0.4,0.5-0.5,0.8
			c-0.1,0.3-0.2,0.6-0.2,1c0,0.3,0.1,0.7,0.2,1c0.1,0.3,0.3,0.6,0.5,0.8c0.2,0.2,0.4,0.4,0.7,0.5c0.6,0.2,1.3,0.2,1.8,0
			c0.3-0.1,0.5-0.3,0.7-0.5c0.2-0.2,0.4-0.5,0.5-0.8C-664.3,179.2-664.3,178.8-664.3,178.5z"/>
		<path class="st3" d="M-647,170.1c0,0.6-0.1,1.2-0.3,1.7c-0.2,0.5-0.5,1-0.9,1.3c-0.4,0.4-0.9,0.7-1.4,0.9
			c-0.6,0.2-1.1,0.3-1.7,0.3c-0.6,0-1.2-0.1-1.7-0.3c-0.5-0.2-1-0.5-1.4-0.9c-0.4-0.4-0.7-0.8-0.9-1.3c-0.2-0.5-0.3-1.1-0.3-1.7
			c0-0.6,0.1-1.2,0.3-1.7c0.2-0.5,0.5-0.9,0.9-1.3c0.4-0.4,0.9-0.6,1.4-0.8c0.6-0.2,1.1-0.3,1.7-0.3c0.6,0,1.2,0.1,1.7,0.3
			c0.5,0.2,1,0.5,1.4,0.8c0.4,0.4,0.7,0.8,0.9,1.3C-647.1,168.9-647,169.5-647,170.1z M-649.1,170.1c0-0.3-0.1-0.7-0.2-1
			c-0.1-0.3-0.3-0.5-0.5-0.8c-0.2-0.2-0.4-0.4-0.7-0.5c-0.3-0.1-0.6-0.2-0.9-0.2c-0.6,0-1.2,0.2-1.6,0.7c-0.2,0.2-0.4,0.5-0.5,0.8
			c-0.1,0.3-0.2,0.6-0.2,1c0,0.3,0.1,0.7,0.2,1c0.1,0.3,0.3,0.6,0.5,0.8c0.2,0.2,0.4,0.4,0.7,0.5c0.6,0.2,1.3,0.2,1.8,0
			c0.3-0.1,0.5-0.3,0.7-0.5c0.2-0.2,0.4-0.5,0.5-0.8C-649.1,170.8-649.1,170.4-649.1,170.1z"/>
		<path class="st3" d="M-647,186.8c0,0.6-0.1,1.2-0.3,1.7c-0.2,0.5-0.5,1-0.9,1.3c-0.4,0.4-0.9,0.7-1.4,0.9
			c-0.6,0.2-1.1,0.3-1.7,0.3c-0.6,0-1.2-0.1-1.7-0.3c-0.5-0.2-1-0.5-1.4-0.9c-0.4-0.4-0.7-0.8-0.9-1.3c-0.2-0.5-0.3-1.1-0.3-1.7
			c0-0.6,0.1-1.2,0.3-1.7c0.2-0.5,0.5-0.9,0.9-1.3c0.4-0.4,0.9-0.6,1.4-0.8c0.6-0.2,1.1-0.3,1.7-0.3c0.6,0,1.2,0.1,1.7,0.3
			c0.5,0.2,1,0.5,1.4,0.8c0.4,0.4,0.7,0.8,0.9,1.3C-647.1,185.6-647,186.2-647,186.8z M-649.1,186.8c0-0.3-0.1-0.7-0.2-1
			c-0.1-0.3-0.3-0.5-0.5-0.8c-0.2-0.2-0.4-0.4-0.7-0.5c-0.3-0.1-0.6-0.2-0.9-0.2c-0.6,0-1.2,0.2-1.6,0.7c-0.2,0.2-0.4,0.5-0.5,0.8
			c-0.1,0.3-0.2,0.6-0.2,1c0,0.3,0.1,0.7,0.2,1c0.1,0.3,0.3,0.6,0.5,0.8c0.2,0.2,0.4,0.4,0.7,0.5c0.6,0.2,1.3,0.2,1.8,0
			c0.3-0.1,0.5-0.3,0.7-0.5c0.2-0.2,0.4-0.5,0.5-0.8C-649.1,187.4-649.1,187.1-649.1,186.8z"/>
	</g>
	<g class="st5">
		<path class="st3" d="M-634.2,104.9c0-0.7,0.1-1.3,0.4-1.9c0.3-0.6,0.6-1.1,1-1.5c0.4-0.4,0.9-0.7,1.5-0.9c0.6-0.2,1.2-0.3,1.9-0.3
			c0.7,0,1.3,0.1,1.9,0.3c0.6,0.2,1.1,0.5,1.5,0.9c0.4,0.4,0.8,0.9,1,1.5c0.3,0.6,0.4,1.2,0.4,1.9c0,0.7-0.1,1.3-0.4,1.9
			c-0.3,0.6-0.6,1.1-1,1.5c-0.4,0.4-0.9,0.7-1.5,1c-0.6,0.2-1.2,0.3-1.9,0.3c-0.7,0-1.3-0.1-1.9-0.3c-0.6-0.2-1.1-0.5-1.5-1
			c-0.4-0.4-0.8-0.9-1-1.5C-634.1,106.2-634.2,105.5-634.2,104.9z M-632.1,104.9c0,0.9,0.2,1.6,0.7,2.1c0.5,0.5,1.1,0.8,1.9,0.8
			c0.8,0,1.5-0.3,2-0.8c0.5-0.5,0.7-1.2,0.7-2.1c0-0.4-0.1-0.8-0.2-1.1c-0.1-0.3-0.3-0.6-0.5-0.9c-0.2-0.2-0.5-0.4-0.9-0.6
			c-0.3-0.1-0.7-0.2-1.1-0.2s-0.8,0.1-1.1,0.2c-0.3,0.1-0.6,0.3-0.8,0.6c-0.2,0.3-0.4,0.5-0.5,0.9
			C-632,104.1-632.1,104.4-632.1,104.9z"/>
		<path class="st3" d="M-624.5,104.9c0-0.7,0.1-1.3,0.4-1.9c0.3-0.6,0.6-1.1,1-1.5c0.4-0.4,0.9-0.7,1.5-0.9c0.6-0.2,1.2-0.3,1.9-0.3
			c0.7,0,1.3,0.1,1.9,0.3c0.6,0.2,1.1,0.5,1.5,0.9c0.4,0.4,0.8,0.9,1,1.5c0.3,0.6,0.4,1.2,0.4,1.9c0,0.7-0.1,1.3-0.4,1.9
			c-0.3,0.6-0.6,1.1-1,1.5c-0.4,0.4-0.9,0.7-1.5,1c-0.6,0.2-1.2,0.3-1.9,0.3c-0.7,0-1.3-0.1-1.9-0.3c-0.6-0.2-1.1-0.5-1.5-1
			c-0.4-0.4-0.8-0.9-1-1.5C-624.4,106.2-624.5,105.5-624.5,104.9z M-622.3,104.9c0,0.9,0.2,1.6,0.7,2.1c0.5,0.5,1.1,0.8,1.9,0.8
			c0.8,0,1.5-0.3,2-0.8c0.5-0.5,0.7-1.2,0.7-2.1c0-0.4-0.1-0.8-0.2-1.1c-0.1-0.3-0.3-0.6-0.5-0.9c-0.2-0.2-0.5-0.4-0.9-0.6
			c-0.3-0.1-0.7-0.2-1.1-0.2s-0.8,0.1-1.1,0.2c-0.3,0.1-0.6,0.3-0.8,0.6c-0.2,0.3-0.4,0.5-0.5,0.9
			C-622.3,104.1-622.3,104.4-622.3,104.9z"/>
		<path class="st3" d="M-687.7,104.9c0-0.7,0.1-1.3,0.4-1.9c0.3-0.6,0.6-1.1,1-1.5c0.4-0.4,0.9-0.7,1.5-0.9c0.6-0.2,1.2-0.3,1.9-0.3
			c0.7,0,1.3,0.1,1.9,0.3c0.6,0.2,1.1,0.5,1.5,0.9c0.4,0.4,0.8,0.9,1,1.5c0.3,0.6,0.4,1.2,0.4,1.9c0,0.7-0.1,1.3-0.4,1.9
			c-0.3,0.6-0.6,1.1-1,1.5c-0.4,0.4-0.9,0.7-1.5,1c-0.6,0.2-1.2,0.3-1.9,0.3c-0.7,0-1.3-0.1-1.9-0.3c-0.6-0.2-1.1-0.5-1.5-1
			c-0.4-0.4-0.8-0.9-1-1.5C-687.6,106.2-687.7,105.5-687.7,104.9z M-685.5,104.9c0,0.9,0.2,1.6,0.7,2.1c0.5,0.5,1.1,0.8,1.9,0.8
			c0.8,0,1.5-0.3,2-0.8c0.5-0.5,0.7-1.2,0.7-2.1c0-0.4-0.1-0.8-0.2-1.1c-0.1-0.3-0.3-0.6-0.5-0.9c-0.2-0.2-0.5-0.4-0.9-0.6
			c-0.3-0.1-0.7-0.2-1.1-0.2s-0.8,0.1-1.1,0.2c-0.3,0.1-0.6,0.3-0.8,0.6c-0.2,0.3-0.4,0.5-0.5,0.9
			C-685.5,104.1-685.5,104.4-685.5,104.9z"/>
		<path class="st3" d="M-678,104.9c0-0.7,0.1-1.3,0.4-1.9c0.3-0.6,0.6-1.1,1-1.5c0.4-0.4,0.9-0.7,1.5-0.9c0.6-0.2,1.2-0.3,1.9-0.3
			c0.7,0,1.3,0.1,1.9,0.3c0.6,0.2,1.1,0.5,1.5,0.9c0.4,0.4,0.8,0.9,1,1.5c0.3,0.6,0.4,1.2,0.4,1.9c0,0.7-0.1,1.3-0.4,1.9
			c-0.3,0.6-0.6,1.1-1,1.5c-0.4,0.4-0.9,0.7-1.5,1c-0.6,0.2-1.2,0.3-1.9,0.3c-0.7,0-1.3-0.1-1.9-0.3c-0.6-0.2-1.1-0.5-1.5-1
			c-0.4-0.4-0.8-0.9-1-1.5C-677.9,106.2-678,105.5-678,104.9z M-675.8,104.9c0,0.9,0.2,1.6,0.7,2.1c0.5,0.5,1.1,0.8,1.9,0.8
			c0.8,0,1.5-0.3,2-0.8c0.5-0.5,0.7-1.2,0.7-2.1c0-0.4-0.1-0.8-0.2-1.1c-0.1-0.3-0.3-0.6-0.5-0.9c-0.2-0.2-0.5-0.4-0.9-0.6
			c-0.3-0.1-0.7-0.2-1.1-0.2c-0.4,0-0.8,0.1-1.1,0.2c-0.3,0.1-0.6,0.3-0.8,0.6c-0.2,0.3-0.4,0.5-0.5,0.9
			C-675.8,104.1-675.8,104.4-675.8,104.9z"/>
		<path class="st3" d="M-650.8,122.8c0.7,0,1.3,0.1,1.9,0.4c0.6,0.3,1.1,0.6,1.5,1c0.4,0.4,0.7,0.9,0.9,1.5c0.2,0.6,0.3,1.2,0.3,1.9
			c0,0.7-0.1,1.3-0.3,1.9c-0.2,0.6-0.5,1.1-0.9,1.5c-0.4,0.4-0.9,0.8-1.5,1c-0.6,0.3-1.2,0.4-1.9,0.4c-0.7,0-1.3-0.1-1.9-0.4
			c-0.6-0.3-1.1-0.6-1.5-1c-0.4-0.4-0.7-0.9-1-1.5c-0.2-0.6-0.3-1.2-0.3-1.9c0-0.7,0.1-1.3,0.3-1.9c0.2-0.6,0.5-1.1,1-1.5
			c0.4-0.4,0.9-0.8,1.5-1C-652.1,122.9-651.5,122.8-650.8,122.8z M-650.8,124.9c-0.9,0-1.6,0.2-2.1,0.7c-0.5,0.5-0.8,1.1-0.8,1.9
			c0,0.8,0.3,1.5,0.8,2c0.5,0.5,1.2,0.7,2.1,0.7c0.4,0,0.8-0.1,1.1-0.2c0.3-0.1,0.6-0.3,0.9-0.5c0.2-0.2,0.4-0.5,0.6-0.9
			c0.1-0.3,0.2-0.7,0.2-1.1s-0.1-0.8-0.2-1.1c-0.1-0.3-0.3-0.6-0.6-0.8c-0.3-0.2-0.5-0.4-0.9-0.5C-650,125-650.4,124.9-650.8,124.9z
			"/>
		<path class="st3" d="M-650.8,132.5c0.7,0,1.3,0.1,1.9,0.4c0.6,0.3,1.1,0.6,1.5,1c0.4,0.4,0.7,0.9,0.9,1.5c0.2,0.6,0.3,1.2,0.3,1.9
			c0,0.7-0.1,1.3-0.3,1.9c-0.2,0.6-0.5,1.1-0.9,1.5c-0.4,0.4-0.9,0.8-1.5,1c-0.6,0.3-1.2,0.4-1.9,0.4c-0.7,0-1.3-0.1-1.9-0.4
			c-0.6-0.3-1.1-0.6-1.5-1c-0.4-0.4-0.7-0.9-1-1.5c-0.2-0.6-0.3-1.2-0.3-1.9c0-0.7,0.1-1.3,0.3-1.9c0.2-0.6,0.5-1.1,1-1.5
			c0.4-0.4,0.9-0.8,1.5-1C-652.1,132.6-651.5,132.5-650.8,132.5z M-650.8,134.6c-0.9,0-1.6,0.2-2.1,0.7c-0.5,0.5-0.8,1.1-0.8,1.9
			c0,0.8,0.3,1.5,0.8,2c0.5,0.5,1.2,0.7,2.1,0.7c0.4,0,0.8-0.1,1.1-0.2c0.3-0.1,0.6-0.3,0.9-0.5c0.2-0.2,0.4-0.5,0.6-0.9
			c0.1-0.3,0.2-0.7,0.2-1.1c0-0.4-0.1-0.8-0.2-1.1c-0.1-0.3-0.3-0.6-0.6-0.8c-0.3-0.2-0.5-0.4-0.9-0.5
			C-650,134.7-650.4,134.6-650.8,134.6z"/>
		<path class="st3" d="M-650.8,67.5c0.7,0,1.3,0.1,1.9,0.4c0.6,0.3,1.1,0.6,1.5,1c0.4,0.4,0.7,0.9,0.9,1.5c0.2,0.6,0.3,1.2,0.3,1.9
			c0,0.7-0.1,1.3-0.3,1.9c-0.2,0.6-0.5,1.1-0.9,1.5c-0.4,0.4-0.9,0.8-1.5,1c-0.6,0.3-1.2,0.4-1.9,0.4c-0.7,0-1.3-0.1-1.9-0.4
			c-0.6-0.3-1.1-0.6-1.5-1c-0.4-0.4-0.7-0.9-1-1.5c-0.2-0.6-0.3-1.2-0.3-1.9c0-0.7,0.1-1.3,0.3-1.9c0.2-0.6,0.5-1.1,1-1.5
			c0.4-0.4,0.9-0.8,1.5-1C-652.1,67.7-651.5,67.5-650.8,67.5z M-650.8,69.7c-0.9,0-1.6,0.2-2.1,0.7c-0.5,0.5-0.8,1.1-0.8,1.9
			c0,0.8,0.3,1.5,0.8,2c0.5,0.5,1.2,0.7,2.1,0.7c0.4,0,0.8-0.1,1.1-0.2c0.3-0.1,0.6-0.3,0.9-0.5c0.2-0.2,0.4-0.5,0.6-0.9
			c0.1-0.3,0.2-0.7,0.2-1.1s-0.1-0.8-0.2-1.1c-0.1-0.3-0.3-0.6-0.6-0.8c-0.3-0.2-0.5-0.4-0.9-0.5C-650,69.8-650.4,69.7-650.8,69.7z"
			/>
		<path class="st3" d="M-650.8,77.3c0.7,0,1.3,0.1,1.9,0.4c0.6,0.3,1.1,0.6,1.5,1c0.4,0.4,0.7,0.9,0.9,1.5c0.2,0.6,0.3,1.2,0.3,1.9
			c0,0.7-0.1,1.3-0.3,1.9c-0.2,0.6-0.5,1.1-0.9,1.5c-0.4,0.4-0.9,0.8-1.5,1c-0.6,0.3-1.2,0.4-1.9,0.4c-0.7,0-1.3-0.1-1.9-0.4
			c-0.6-0.3-1.1-0.6-1.5-1c-0.4-0.4-0.7-0.9-1-1.5c-0.2-0.6-0.3-1.2-0.3-1.9c0-0.7,0.1-1.3,0.3-1.9c0.2-0.6,0.5-1.1,1-1.5
			c0.4-0.4,0.9-0.8,1.5-1C-652.1,77.4-651.5,77.3-650.8,77.3z M-650.8,79.4c-0.9,0-1.6,0.2-2.1,0.7c-0.5,0.5-0.8,1.1-0.8,1.9
			c0,0.8,0.3,1.5,0.8,2c0.5,0.5,1.2,0.7,2.1,0.7c0.4,0,0.8-0.1,1.1-0.2c0.3-0.1,0.6-0.3,0.9-0.5c0.2-0.2,0.4-0.5,0.6-0.9
			c0.1-0.3,0.2-0.7,0.2-1.1s-0.1-0.8-0.2-1.1c-0.1-0.3-0.3-0.6-0.6-0.8c-0.3-0.2-0.5-0.4-0.9-0.5C-650,79.5-650.4,79.4-650.8,79.4z"
			/>
	</g>
</g>
<g id="Capa_2">
</g>
</svg>
