<svg xmlns="http://www.w3.org/2000/svg" width="31.107" height="31.108" viewBox="0 0 31.107 31.108">
  <g id="Page-1" transform="translate(0.03 -0.524)">
    <g id="_019---Voicemail" data-name="019---Voicemail" transform="translate(-0.03 0.524)">
      <path id="Shape" d="M12.867,18.738A12.568,12.568,0,0,1,9.072,11.6a1.067,1.067,0,0,1,.307-.893l2.405-2.4a1.074,1.074,0,0,0,.151-1.329L8.105,1.03A1.074,1.074,0,0,0,6.714.638L.566,3.534A1.068,1.068,0,0,0-.024,4.6C.3,7.661,1.632,15.184,9.025,22.577S23.94,31.3,27,31.626a1.068,1.068,0,0,0,1.067-.591l2.9-6.148a1.074,1.074,0,0,0-.389-1.389L24.628,19.67a1.074,1.074,0,0,0-1.329.15l-2.4,2.405a1.067,1.067,0,0,1-.893.307,12.568,12.568,0,0,1-7.135-3.795Z" transform="translate(0.03 -0.524)" fill="#1c1c1c"/>
    </g>
  </g>
</svg>
