<svg xmlns="http://www.w3.org/2000/svg" width="37.633" height="37.814" viewBox="0 0 37.633 37.814">
  <path id="Trazado_25" data-name="Trazado 25" d="M55.71,26.474A18.742,18.742,0,0,0,26.218,49.083l-2.658,9.71,9.933-2.606a18.718,18.718,0,0,0,8.954,2.281h.008A18.746,18.746,0,0,0,55.71,26.474ZM51,43.639c-.468-.234-2.77-1.367-3.2-1.523s-.741-.234-1.053.234-1.209,1.523-1.483,1.836-.546.352-1.014.117a12.788,12.788,0,0,1-3.765-2.324,14.124,14.124,0,0,1-2.6-3.243c-.273-.469,0-.7.205-.956a13.248,13.248,0,0,0,1.17-1.6.861.861,0,0,0-.039-.82c-.117-.234-1.053-2.539-1.443-3.477-.38-.913-.766-.789-1.054-.8s-.585-.016-.9-.016a1.72,1.72,0,0,0-1.249.586,5.251,5.251,0,0,0-1.638,3.906A9.108,9.108,0,0,0,34.846,40.4c.234.313,3.3,5.042,8,7.069a26.79,26.79,0,0,0,2.669.986,6.418,6.418,0,0,0,2.949.186,5.453,5.453,0,0,0,3.054-1.993c-.049.1.046-.065.106-.234a3.912,3.912,0,0,0,.273-2.227C51.778,43.991,51.466,43.874,51,43.639Z" transform="translate(-23.56 -20.979)" fill="#1c1c1c" fill-rule="evenodd"/>
</svg>
