<?xml version="1.0" encoding="utf-8"?>
<!-- Generator: Adobe Illustrator 24.0.3, SVG Export Plug-In . SVG Version: 6.00 Build 0)  -->
<svg version="1.1" id="Layer_1" xmlns="http://www.w3.org/2000/svg" xmlns:xlink="http://www.w3.org/1999/xlink" x="0px" y="0px"
	 viewBox="0 0 2200 2500" style="enable-background:new 0 0 2200 2500;" xml:space="preserve">
<style type="text/css">
	.st0{fill:#252F3E;}
	.st1{fill-rule:evenodd;clip-rule:evenodd;fill:#FF9900;}
</style>
<g>
	<path class="st0" d="M635.8,1075.9c0,26.2,2.8,47.4,7.8,63c5.7,15.6,12.7,32.5,22.6,50.9c3.5,5.7,5,11.3,5,16.3
		c0,7.1-4.2,14.2-13.4,21.2l-44.6,29.7c-6.4,4.2-12.7,6.4-18.4,6.4c-7.1,0-14.2-3.5-21.2-9.9c-9.9-10.6-18.4-21.9-25.5-33.3
		c-7.1-12-14.2-25.5-21.9-41.7c-55.2,65.1-124.5,97.6-208,97.6c-59.4,0-106.8-17-141.5-50.9c-34.7-34-52.4-79.2-52.4-135.8
		c0-60.1,21.2-109,64.4-145.8c43.2-36.8,100.5-55.2,173.3-55.2c24.1,0,48.8,2.1,75,5.7c26.2,3.5,53.1,9.2,81.4,15.6V858
		c0-53.8-11.3-91.3-33.3-113.2c-22.6-21.9-60.8-32.5-115.3-32.5c-24.8,0-50.2,2.8-76.4,9.2c-26.2,6.4-51.7,14.2-76.4,24.1
		c-11.3,5-19.8,7.8-24.8,9.2c-5,1.4-8.5,2.1-11.3,2.1c-9.9,0-14.9-7.1-14.9-21.9v-34.7c0-11.3,1.4-19.8,5-24.8
		c3.5-5,9.9-9.9,19.8-14.9c24.8-12.7,54.5-23.3,89.1-31.8c34.7-9.2,71.5-13.4,110.4-13.4c84.2,0,145.8,19.1,185.4,57.3
		c38.9,38.2,58.7,96.2,58.7,174.1v229.2H635.8z M348.6,1183.5c23.3,0,47.4-4.2,72.9-12.7s48.1-24.1,67.2-45.3
		c11.3-13.4,19.8-28.3,24.1-45.3c4.2-17,7.1-37.5,7.1-61.6v-29.7c-20.5-5-42.5-9.2-65.1-12c-22.6-2.8-44.6-4.2-66.5-4.2
		c-47.4,0-82.1,9.2-105.4,28.3c-23.3,19.1-34.7,46-34.7,81.4c0,33.3,8.5,58,26.2,75C291.3,1175,316,1183.5,348.6,1183.5z
		 M916.7,1259.9c-12.7,0-21.2-2.1-26.9-7.1c-5.7-4.2-10.6-14.2-14.9-27.6L708.7,678.3c-4.2-14.2-6.4-23.3-6.4-28.3
		c0-11.3,5.7-17.7,17-17.7h69.3c13.4,0,22.6,2.1,27.6,7.1c5.7,4.2,9.9,14.2,14.2,27.6l118.9,468.4L1059.6,667
		c3.5-14.2,7.8-23.3,13.4-27.6s15.6-7.1,28.3-7.1h56.6c13.4,0,22.6,2.1,28.3,7.1c5.7,4.2,10.6,14.2,13.4,27.6l111.8,474l122.4-474
		c4.2-14.2,9.2-23.3,14.2-27.6c5.7-4.2,14.9-7.1,27.6-7.1h65.8c11.3,0,17.7,5.7,17.7,17.7c0,3.5-0.7,7.1-1.4,11.3
		c-0.7,4.2-2.1,9.9-5,17.7l-170.5,546.9c-4.2,14.2-9.2,23.3-14.9,27.6c-5.7,4.2-14.9,7.1-26.9,7.1h-60.8c-13.4,0-22.6-2.1-28.3-7.1
		c-5.7-5-10.6-14.2-13.4-28.3l-109.7-456.4l-109,455.7c-3.5,14.2-7.8,23.3-13.4,28.3c-5.7,5-15.6,7.1-28.3,7.1H916.7z M1825.9,1279
		c-36.8,0-73.6-4.2-109-12.7c-35.4-8.5-63-17.7-81.4-28.3c-11.3-6.4-19.1-13.4-21.9-19.8c-2.8-6.4-4.2-13.4-4.2-19.8v-36.1
		c0-14.9,5.7-21.9,16.3-21.9c4.2,0,8.5,0.7,12.7,2.1s10.6,4.2,17.7,7.1c24.1,10.6,50.2,19.1,77.8,24.8c28.3,5.7,55.9,8.5,84.2,8.5
		c44.6,0,79.2-7.8,103.3-23.3c24.1-15.6,36.8-38.2,36.8-67.2c0-19.8-6.4-36.1-19.1-49.5c-12.7-13.4-36.8-25.5-71.5-36.8l-102.6-31.8
		c-51.7-16.3-89.9-40.3-113.2-72.2c-23.3-31.1-35.4-65.8-35.4-102.6c0-29.7,6.4-55.9,19.1-78.5c12.7-22.6,29.7-42.5,50.9-58
		c21.2-16.3,45.3-28.3,73.6-36.8c28.3-8.5,58-12,89.1-12c15.6,0,31.8,0.7,47.4,2.8c16.3,2.1,31.1,5,46,7.8
		c14.2,3.5,27.6,7.1,40.3,11.3c12.7,4.2,22.6,8.5,29.7,12.7c9.9,5.7,17,11.3,21.2,17.7c4.2,5.7,6.4,13.4,6.4,23.3v33.3
		c0,14.9-5.7,22.6-16.3,22.6c-5.7,0-14.9-2.8-26.9-8.5c-40.3-18.4-85.6-27.6-135.8-27.6c-40.3,0-72.2,6.4-94.1,19.8
		c-21.9,13.4-33.3,34-33.3,63c0,19.8,7.1,36.8,21.2,50.2c14.2,13.4,40.3,26.9,77.8,38.9l100.5,31.8c50.9,16.3,87.7,38.9,109.7,67.9
		c21.9,29,32.5,62.3,32.5,99.1c0,30.4-6.4,58-18.4,82.1c-12.7,24.1-29.7,45.3-51.7,62.3c-21.9,17.7-48.1,30.4-78.5,39.6
		C1895.3,1274.1,1862,1279,1825.9,1279z"/>
	<g>
		<path class="st1" d="M1959.6,1622.9c-232.8,171.9-571,263.2-861.8,263.2c-407.5,0-774.8-150.7-1052.1-401.2
			c-21.9-19.8-2.1-46.7,24.1-31.1c300,174.1,670,279.5,1052.8,279.5c258.3,0,542-53.8,803.1-164.1
			C1964.6,1551.4,1997.8,1594.6,1959.6,1622.9z"/>
		<path class="st1" d="M2056.6,1512.5c-29.7-38.2-196.7-18.4-272.4-9.2c-22.6,2.8-26.2-17-5.7-31.8c133-93.4,351.6-66.5,377.1-35.4
			c25.5,31.8-7.1,250.5-131.6,355.2c-19.1,16.3-37.5,7.8-29-13.4C2023.3,1707.8,2086.3,1550,2056.6,1512.5z"/>
	</g>
</g>
</svg>
