<svg xmlns="http://www.w3.org/2000/svg" viewBox="0 0 1343.58 809.24"><title>branding0</title><g id="Capa_2" data-name="Capa 2"><g id="Branding"><path d="M677,518.92h162.3c19.74,0,34.8,5.4,34.8,23.53,0,8.53-5.08,17.62-16.24,20.54v.58c13.57,2.5,20.69,9.66,20.69,22.36,0,19.34-15.85,28-36.54,28H677Zm161.31,38.13c10.43,0,14.79-4.4,14.79-11.58s-4.64-9.82-14.63-9.82h-140v21.4Zm2,40.15c11.7,0,17.29-4.24,17.29-12.9,0-8.34-5.47-11.78-17.29-11.78H698.42V597.2Z" fill="#fff" stroke="#fff" stroke-miterlimit="10"/><path d="M947.7,575.9c10.12-4.54,16.89-13.41,16.89-27.38,0-22.6-16.53-29.61-36.66-29.61H894.16v95H915.7V579.74H927l18.15,34.19h24.06Zm-32-39.9h10.49c11.26,0,17.34,3.12,17.34,12.52s-6.08,14.17-17.34,14.17H915.7Z" fill="#fff" stroke="#fff" stroke-miterlimit="10"/><path d="M1028.14,518.91h-25.8l-29.57,95h22l5.79-22.6h28.64l5.75,22.6h22.76Zm-23.25,55.65,2.23-8.75c2.39-9.48,5.06-20.62,7.37-30.62h.56c2.31,10,5.19,21.14,7.62,30.62l2.23,8.75Z" fill="#fff" stroke="#fff" stroke-miterlimit="10"/><path d="M1068.63,518.92h22l6.54,47.23,8.14,20.88h.5c-1-10-3-23.32-3-34.53V518.92h19.93v95h-21.47l-6.55-47.33-8.13-20.78h-.5c1,10.51,3,23.24,3,34.41v33.7h-20.5Z" fill="#fff" stroke="#fff" stroke-miterlimit="10"/><path d="M1138.38,518.92h159c27.56,0,45.69,14.43,45.69,47.06s-18.13,47.94-44.48,47.94H1138.38Zm157.82,77.69c14.78,0,24.83-7.9,24.83-30.63s-10-29.75-24.83-29.75H1161.41v60.38Z" fill="#fff" stroke="#fff" stroke-miterlimit="10"/><path d="M1073.37,58.48,1274.06,140v56C919.11,49.59,1049.66,79.74,735,195.92v-56L933.29,59.36l20.89-8.48a133.61,133.61,0,0,1,100.65,0Z" fill="none" stroke="#fff" stroke-miterlimit="10" stroke-width="12"/><path d="M935.66,303,735,221.51v-56c355,146.41,224.4,116.26,539.09.08v56l-198.32,80.55-20.89,8.48a133.58,133.58,0,0,1-100.64-.05Z" fill="none" stroke="#fff" stroke-miterlimit="10" stroke-width="12"/><path d="M1004.52,145.28A35.7,35.7,0,1,1,968.82,181a35.73,35.73,0,0,1,35.7-35.69m0-12A47.7,47.7,0,1,0,1052.21,181a47.7,47.7,0,0,0-47.69-47.69Z" fill="#fff"/><path d="M785.32,339.39l70.11,28.48v19.56c-124-51.15-78.39-40.61-188.32,0V367.84l69.28-28.14,7.3-3a46.7,46.7,0,0,1,35.16,0Z" fill="none" stroke="#fff" stroke-miterlimit="10"/><path d="M737.22,424.82l-70.11-28.48V376.78c124,51.15,78.39,40.61,188.32,0v19.56l-69.28,28.14-7.3,3a46.68,46.68,0,0,1-35.15,0Z" fill="none" stroke="#fff" stroke-miterlimit="10"/><circle cx="761.27" cy="382.18" r="16.16" fill="#fff"/><path d="M761.27,366.52a15.66,15.66,0,1,1-15.66,15.66,15.68,15.68,0,0,1,15.66-15.66m0-1a16.66,16.66,0,1,0,16.66,16.66,16.66,16.66,0,0,0-16.66-16.66Z" fill="#fff"/><path d="M761.27,447.38A15.66,15.66,0,1,1,745.61,463a15.68,15.68,0,0,1,15.66-15.66m0-1A16.66,16.66,0,1,0,777.93,463a16.66,16.66,0,0,0-16.66-16.66Z" fill="#fff"/><path d="M798,447.38A15.66,15.66,0,1,1,782.3,463,15.68,15.68,0,0,1,798,447.38m0-1A16.66,16.66,0,1,0,814.62,463,16.66,16.66,0,0,0,798,446.38Z" fill="#fff"/><path d="M834.65,447.38A15.66,15.66,0,1,1,819,463a15.68,15.68,0,0,1,15.66-15.66m0-1A16.66,16.66,0,1,0,851.31,463a16.66,16.66,0,0,0-16.66-16.66Z" fill="#fff"/><circle cx="725.14" cy="463.04" r="16.16" fill="#fff"/><path d="M725.14,447.38A15.66,15.66,0,1,1,709.47,463a15.68,15.68,0,0,1,15.67-15.66m0-1A16.66,16.66,0,1,0,741.8,463a16.66,16.66,0,0,0-16.66-16.66Z" fill="#fff"/><path d="M689,447.38A15.66,15.66,0,1,1,673.34,463,15.68,15.68,0,0,1,689,447.38m0-1A16.66,16.66,0,1,0,705.66,463,16.66,16.66,0,0,0,689,446.38Z" fill="#fff"/><path d="M744.61,501.33a16.66,16.66,0,1,1,33.32,0" fill="none" stroke="#fff" stroke-miterlimit="10"/><path d="M814.62,484.67a16.66,16.66,0,1,1-33.32,0" fill="none" stroke="#fff" stroke-miterlimit="10"/><path d="M708.47,501.33a16.67,16.67,0,0,1,33.33,0" fill="#fff" stroke="#fff" stroke-miterlimit="10"/><path d="M672.34,501.33a16.66,16.66,0,1,1,33.32,0" fill="none" stroke="#fff" stroke-miterlimit="10"/><path d="M745.72,313.71a16.66,16.66,0,0,1,33.32,0" fill="#fff" stroke="#fff" stroke-miterlimit="10"/><path d="M742.35,297.05a16.66,16.66,0,1,1-33.32,0" fill="#fff" stroke="#fff" stroke-miterlimit="10"/><path d="M705.66,297.05a16.66,16.66,0,1,1-33.32,0" fill="none" stroke="#fff" stroke-miterlimit="10"/><path d="M815.18,297.05a16.66,16.66,0,1,1-33.32,0" fill="#fff" stroke="#fff" stroke-miterlimit="10"/><path d="M851.31,297.05a16.66,16.66,0,0,1-33.32,0" fill="none" stroke="#fff" stroke-miterlimit="10"/><path d="M1021.37,369.25l70.11,28.48v19.56c-124-51.15-78.39-40.61-188.32,0V397.7l69.28-28.14,7.3-3a46.7,46.7,0,0,1,35.16,0Z" fill="none" stroke="#fff" stroke-miterlimit="10"/><path d="M973.27,454.68,903.16,426.2V406.64c124,51.15,78.39,40.61,188.32,0v19.56l-69.28,28.14-7.3,3a46.68,46.68,0,0,1-35.15,0Z" fill="#fff" stroke="#fff" stroke-miterlimit="10"/><circle cx="997.32" cy="412.04" r="16.16" fill="#fff"/><path d="M997.32,396.38A15.66,15.66,0,1,1,981.66,412a15.68,15.68,0,0,1,15.66-15.66m0-1A16.66,16.66,0,1,0,1014,412a16.66,16.66,0,0,0-16.66-16.66Z" fill="#fff"/><path d="M1230.07,430.69l-28.48,70.11H1182c51.15-124,40.61-78.39,0-188.32h19.56l28.14,69.28,3,7.3a46.68,46.68,0,0,1,0,35.15Z" fill="none" stroke="#fff" stroke-miterlimit="10"/><path d="M1144.64,382.59l28.48-70.11h19.56c-51.14,124-40.61,78.39,0,188.32h-19.56L1145,431.52l-3-7.3a46.66,46.66,0,0,1,0-35.16Z" fill="#fff" stroke="#fff" stroke-miterlimit="10"/><path d="M1187.28,423.3a16.66,16.66,0,0,1,0-33.32" fill="#fff" stroke="#fff" stroke-miterlimit="10"/><path d="M1337,430.69l-28.48,70.11H1289c51.15-124,40.62-78.39,0-188.32h19.57l28.13,69.28,3,7.3a46.68,46.68,0,0,1,0,35.15Z" fill="none" stroke="#fff" stroke-miterlimit="10"/><path d="M1251.56,382.59,1280,312.48h19.56c-51.14,124-40.61,78.39,0,188.32H1280l-28.14-69.28-3-7.3a46.66,46.66,0,0,1,0-35.16Z" fill="#fff" stroke="#fff" stroke-miterlimit="10"/><path d="M1294.2,423.3a16.66,16.66,0,0,1,0-33.32" fill="#fff" stroke="#fff" stroke-miterlimit="10"/><path d="M805.56,631.77,882.33,663v21.42c-135.77-56-85.83-44.47-206.21,0V662.92L752,632.1l8-3.24a51.09,51.09,0,0,1,38.5,0Z" fill="none" stroke="#fff" stroke-miterlimit="10"/><path d="M752.89,725.31l-76.77-31.18V672.71c135.78,56,85.84,44.47,206.21,0v21.42L806.47,725l-8,3.24a51.14,51.14,0,0,1-38.5,0Z" fill="none" stroke="#fff" stroke-miterlimit="10"/><path d="M761,678.62a18.25,18.25,0,0,1,36.49,0" fill="none" stroke="#fff" stroke-miterlimit="10"/><path d="M1035.94,630.93l76.76,31.19v21.42c-135.77-56-85.83-44.47-206.21,0V662.08l75.86-30.81,8-3.24a51,51,0,0,1,38.5,0Z" fill="#fff" stroke="#fff" stroke-miterlimit="10"/><path d="M983.26,724.48,906.49,693.3V671.87c135.78,56,85.84,44.48,206.21,0v21.42l-75.86,30.81-8,3.25a51.14,51.14,0,0,1-38.5,0Z" fill="none" stroke="#fff" stroke-miterlimit="10"/><circle cx="1009.6" cy="677.79" r="17.74" fill="#fff"/><path d="M1009.6,660.54a17.25,17.25,0,1,1-17.25,17.25,17.26,17.26,0,0,1,17.25-17.25m0-1a18.25,18.25,0,1,0,18.24,18.25,18.25,18.25,0,0,0-18.24-18.25Z" fill="#fff"/><path d="M1266.31,634.93l76.77,31.19v21.42c-135.78-56-85.84-44.47-206.22,0V666.08l75.86-30.81,8-3.24a51,51,0,0,1,38.49,0Z" fill="none" stroke="#fff" stroke-miterlimit="10"/><path d="M1213.63,728.48l-76.77-31.18V675.87c135.78,56,85.84,44.48,206.22,0v21.42l-75.87,30.81-8,3.25a51.14,51.14,0,0,1-38.5,0Z" fill="#fff" stroke="#fff" stroke-miterlimit="10"/><path d="M1221.72,689a18.25,18.25,0,0,1,36.49,0" fill="#fff" stroke="#fff" stroke-miterlimit="10"/><path d="M1213.63,798.24l-76.77-31.18V745.63c135.78,56,85.84,44.48,206.22,0v21.42l-75.87,30.81-8,3.25a51.14,51.14,0,0,1-38.5,0Z" fill="none" stroke="#fff" stroke-miterlimit="10"/><path d="M1266.31,704.7l76.77,31.18V757.3c-135.78-56-85.84-44.47-206.22,0V735.84L1212.72,705l8-3.24a51.07,51.07,0,0,1,38.49,0Z" fill="none" stroke="#fff" stroke-miterlimit="10"/><path d="M1258.21,751.38a18.25,18.25,0,1,1-36.49,0" fill="none" stroke="#fff" stroke-miterlimit="10"/><path d="M983.26,802.07l-76.77-31.18V749.47c135.78,56,85.84,44.47,206.21,0v21.42l-75.86,30.82-8,3.24a51.09,51.09,0,0,1-38.5,0Z" fill="#fff" stroke="#fff" stroke-miterlimit="10"/><path d="M1035.94,708.53l76.76,31.18v21.42c-135.77-56-85.83-44.47-206.21,0V739.68l75.86-30.82,8-3.24a51.14,51.14,0,0,1,38.5,0Z" fill="none" stroke="#fff" stroke-miterlimit="10"/><circle cx="1009.6" cy="755.22" r="17.74" fill="#fff"/><path d="M1009.6,738a17.25,17.25,0,1,1-17.25,17.25A17.26,17.26,0,0,1,1009.6,738m0-1a18.25,18.25,0,1,0,18.24,18.25A18.25,18.25,0,0,0,1009.6,737Z" fill="#fff"/><path d="M752.89,802.07l-76.77-31.18V749.47c135.78,56,85.84,44.47,206.21,0v21.42l-75.86,30.82-8,3.24a51.09,51.09,0,0,1-38.5,0Z" fill="none" stroke="#fff" stroke-miterlimit="10"/><path d="M805.56,708.53l76.77,31.18v21.42c-135.77-56-85.83-44.47-206.21,0V739.68L752,708.86l8-3.24a51.14,51.14,0,0,1,38.5,0Z" fill="#fff" stroke="#fff" stroke-miterlimit="10"/><path d="M797.47,748A18.25,18.25,0,1,1,761,748" fill="#fff" stroke="#fff" stroke-miterlimit="10"/><circle cx="1004.52" cy="180.97" r="139.47" fill="none" stroke="#b2b2b2" stroke-miterlimit="10" stroke-width="0.5"/><line x1="665.96" y1="167.93" x2="1078.91" y2="0.23" fill="#fff" stroke="#b2b2b2" stroke-miterlimit="10" stroke-width="0.5"/><line x1="665.96" y1="223.93" x2="1142.45" y2="30.43" fill="#fff" stroke="#b2b2b2" stroke-miterlimit="10" stroke-width="0.5"/><line x1="1343.08" y1="168.01" x2="930.12" y2="0.32" fill="#fff" stroke="#b2b2b2" stroke-miterlimit="10" stroke-width="0.5"/><line x1="1343.08" y1="224.01" x2="866.38" y2="30.43" fill="#fff" stroke="#b2b2b2" stroke-miterlimit="10" stroke-width="0.5"/><line x1="1343.08" y1="194.25" x2="930.12" y2="361.95" fill="#fff" stroke="#b2b2b2" stroke-miterlimit="10" stroke-width="0.5"/><line x1="1343.08" y1="138.25" x2="872.44" y2="329.37" fill="#fff" stroke="#b2b2b2" stroke-miterlimit="10" stroke-width="0.5"/><line x1="665.96" y1="193.15" x2="1078.91" y2="360.85" fill="#fff" stroke="#b2b2b2" stroke-miterlimit="10" stroke-width="0.5"/><line x1="665.96" y1="137.15" x2="1145.09" y2="331.72" fill="#fff" stroke="#b2b2b2" stroke-miterlimit="10" stroke-width="0.5"/><circle cx="1004.52" cy="181.64" r="85.94" fill="none" stroke="#b2b2b2" stroke-miterlimit="10" stroke-width="0.5"/><path d="M.84,39H188.15c18,0,31.78,4.94,31.78,21.49,0,7.79-4.64,16.09-14.83,18.75v.53C217.49,82,224,88.58,224,100.17c0,17.66-14.47,25.56-33.37,25.56H.84ZM187.24,73.8c9.54,0,13.51-4,13.51-10.57s-4.23-9-13.36-9H20.44V73.8ZM189,110.46c10.68,0,15.78-3.87,15.78-11.78,0-7.61-5-10.76-15.78-10.76H20.44v22.54Z" fill="#fff"/><path d="M287.18,91c9.24-4.14,15.42-12.24,15.42-25,0-20.64-15.09-27-33.47-27H238.29v86.77H258V94.52h10.28l16.57,31.22h22ZM258,54.58h9.58c10.28,0,15.83,2.85,15.83,11.43S277.82,79,267.54,79H258Z" fill="#fff"/><path d="M360.63,39H337.07l-27,86.77h20.08l5.29-20.64h26.15l5.25,20.64h20.78ZM339.4,89.79l2-8c2.18-8.65,4.62-18.82,6.73-28h.52c2.11,9.14,4.73,19.31,6.95,28l2,8Z" fill="#fff"/><path d="M397.6,39h20.12L436,82.11l7.43,19.07H551.2c-.88-9.14-1.35-21.29-1.35-31.54V39h13.9v86.75h-124L421.49,82.51l-7.42-19h-.46c.88,9.59,2.71,21.22,2.71,31.42v30.77H397.6Z" fill="#fff"/><path d="M581.94,39h24c25.17,0,41.72,13.18,41.72,43S631.07,125.73,607,125.73H581.94Zm22.88,70.94c13.49,0,22.67-7.21,22.67-28s-9.18-27.17-22.67-27.17h-3.25v55.13Z" fill="#fff"/><path d="M.84,147.36h88c8.47,0,14.93,2.32,14.93,10.1a9,9,0,0,1-7,8.81v.25c5.83,1.08,8.88,4.15,8.88,9.6,0,8.3-6.8,12-15.68,12H.84Zm87.6,16.37c4.48,0,6.35-1.9,6.35-5s-2-4.22-6.28-4.22h-8v9.19ZM89.28,181c5,0,7.42-1.82,7.42-5.53s-2.34-5.06-7.42-5.06H10.05V181Z" fill="#fff"/><path d="M135.41,171.81c4.34-1.95,7.25-5.75,7.25-11.75,0-9.7-7.09-12.7-15.73-12.7h-14.5v40.77h9.25V173.46h4.83l7.79,14.67h10.32Zm-13.73-17.12h4.5c4.83,0,7.44,1.34,7.44,5.37s-2.61,6.09-7.44,6.09h-4.5Z" fill="#fff"/><path d="M223.86,147.36h-65l-12.69,40.77h9.44l2.48-9.7h66.22l2.47,9.7h9.77ZM160,171.24l1-3.76c1-4.06,2.17-8.84,3.16-13.14h.24c1,4.3,56.16,9.08,57.2,13.14l1,3.76Z" fill="#fff"/><path d="M241.24,147.36h9.45l8.58,20.27,3.49,9H263c-.42-4.29-1.28-10-1.28-14.82V147.36h8.15v40.77H261l-8.58-20.31L249,158.9h-.21c.41,4.51,1.27,10,1.27,14.77v14.46h-8.79Z" fill="#fff"/><path d="M278.4,147.36h11.26c11.83,0,19.61,6.19,19.61,20.2s-7.78,20.57-19.09,20.57H278.4Zm10.75,33.34c6.34,0,10.66-3.39,10.66-13.14s-4.32-12.77-10.66-12.77h-1.52V180.7Z" fill="#fff"/><path d="M339.2,147.36h88c8.48,0,14.94,2.32,14.94,10.1a9,9,0,0,1-7,8.81v.25c5.83,1.08,8.88,4.15,8.88,9.6,0,8.3-6.8,12-15.68,12H339.2Zm58.65,16.37c4.48,0,6.35-1.9,6.35-5s-2-4.22-6.28-4.22H348.41v9.19ZM427.64,181c5,0,7.42-1.82,7.42-5.53s-2.35-5.06-7.42-5.06H348.41V181Z" fill="#fff"/><path d="M473.77,171.81c4.34-1.95,7.24-5.75,7.24-11.75,0-9.7-7.09-12.7-15.73-12.7H450.79v40.77H460V173.46h4.84l7.78,14.67H483ZM460,154.69h4.51c4.83,0,7.44,1.34,7.44,5.37s-2.61,6.09-7.44,6.09H460Z" fill="#fff"/><path d="M508,147.36H497.21l-12.69,40.77H494l2.49-9.7h12l2.46,9.7h9.77Zm-9.67,23.88.95-3.76c1-4.06,2.18-8.84,3.17-13.14h.24c1,4.3,1.93,9.08,3,13.14l.95,3.76Z" fill="#fff"/><path d="M528.54,147.36H538l8.58,20.27,3.49,9h51.26c-.41-4.29-1.27-10-1.27-14.82V147.36h8.15v40.77H548.35l-8.58-20.31-3.49-8.92h-.22c.42,4.51,1.28,10,1.28,14.77v14.46h-8.8Z" fill="#fff"/><path d="M616.75,147.36H628c11.83,0,19.6,6.19,19.6,20.2s-7.77,20.57-19.08,20.57H616.75Zm10.76,33.34c6.34,0,10.65-3.39,10.65-13.14s-4.31-12.77-10.65-12.77H626V180.7Z" fill="#fff"/><path d="M0,204.78H60.62C79.54,204.78,94,210,94,227.32,94,235.49,89.1,244.2,78.4,247v.56c13,2.4,19.83,9.26,19.83,21.43,0,18.52-15.18,26.81-35,26.81H0Zm59.67,36.53c10,0,14.18-4.22,14.18-11.09s-4.45-9.42-14-9.42H42v20.51Zm1.88,38.46c11.2,0,16.56-4.06,16.56-12.36,0-8-5.24-11.29-16.56-11.29h-41v23.65Z" fill="#fff"/><path d="M380.45,259.36c9.7-4.35,16.18-12.84,16.18-26.23,0-21.65-15.83-28.36-35.12-28.36H113.23v91h20.64V263.05H360.58L378,295.8H401ZM133.87,221.14h226c10.79,0,16.61,3,16.61,12s-5.82,13.58-16.61,13.58h-226Z" fill="#fff"/><path d="M457,204.77H432.79l-28.33,91h21.07l5.55-21.66H458l5.51,21.66h21.81Zm-21.71,53.31,2.13-8.38c2.29-9.08,4.85-19.75,7.06-29.34H445c2.22,9.59,4.41,20.26,6.74,29.34l2.14,8.38Z" fill="#fff"/><path d="M495.74,204.78h21.12L536,250l7.79,20h.48c-.92-9.58-2.84-22.34-2.84-33.09V204.78h18.19v91H540l-19.15-45.35L513,230.54h-.48c.92,10.06,2.84,22.26,2.84,33v32.28H495.74Z" fill="#fff"/><path d="M578.71,204.78h25.14c26.41,0,43.77,13.82,43.77,45.09s-17.36,45.92-42.6,45.92H578.71Zm24,74.42c14.16,0,23.79-7.56,23.79-29.33s-9.63-28.51-23.79-28.51h-3.4V279.2Z" fill="#fff"/><path d="M78.4,350.93v-.56C89.09,347.58,94,338.87,94,330.7c0-17.37-14.42-22.55-33.34-22.55H0v73.51H20.56V359.5h41c11.33,0,16.56,3.3,16.56,11.29,0,5.41-2.27,9-7,10.87H96.71a27.56,27.56,0,0,0,1.51-9.3C98.22,360.19,91.41,353.33,78.4,350.93Zm-18.73-6.24H42V324.18H59.83c9.57,0,14,2.62,14,9.42S69.67,344.69,59.67,344.69Z" fill="#fff"/><path d="M396.62,336.51c0-21.65-15.83-28.36-35.11-28.36H113.22v73.51h20.65V366.43H360.58l8.08,15.23h22.46l-10.68-18.92C390.14,358.39,396.62,349.9,396.62,336.51Zm-36.78,13.58h-226V324.52h226c10.79,0,16.61,3,16.61,12S370.63,350.09,359.84,350.09Z" fill="#fff"/><path d="M457,308.15H432.79l-22.88,73.51H430l1.06-4.14H458l1.05,4.14h20.81Zm-21.72,53.31,2.14-8.38c2.29-9.08,4.85-19.75,7.06-29.34H445c2.21,9.59,4.41,20.26,6.74,29.34l2.13,8.38Z" fill="#fff"/><path d="M541.44,308.15v32.17c0,10.75,1.92,23.51,2.84,33.09h-.48l-7.79-20-19.15-45.25H495.74v73.51h19.64V366.89c0-10.71-1.92-22.91-2.84-33H513l7.79,19.9,11.76,27.84h27V308.15Z" fill="#fff"/><path d="M603.85,308.15H578.7v73.51h20.61V324.74h3.4c14.16,0,23.79,6.77,23.79,28.51,0,17.52-6.24,25.84-16,28.41h30.27c4.43-7.17,6.9-16.61,6.9-28.41C647.62,322,630.26,308.15,603.85,308.15Z" fill="#fff"/><path d="M60.62,395.4H0v23.7H42v-7.67H59.83c8.7,0,13.16,2.16,13.9,7.67h20.2c0-.38,0-.77,0-1.15C94,400.58,79.54,395.4,60.62,395.4Z" fill="#fff"/><path d="M361.51,395.4H113.22v23.7h20.65v-7.33h226c8.65,0,14.11,1.92,15.93,7.33h20.59C394.21,401.13,379.33,395.4,361.51,395.4Z" fill="#fff"/><path d="M457,395.4H432.79l-7.38,23.7h17.13c.65-2.75,1.28-5.47,1.89-8.11H445c.61,2.64,1.21,5.36,1.82,8.11h17.53Z" fill="#fff"/><path d="M516.86,395.4H495.74v23.7h31.15Zm24.58,0v23.7h18.18V395.4Z" fill="#fff"/><path d="M603.85,395.4H578.7v23.7h20.61V412h3.4c7.6,0,13.89,1.95,18.08,7.11h23.27C637.69,402.82,623.2,395.4,603.85,395.4Z" fill="#fff"/><path d="M.46,450.77H119.74c2.13.07,4.36.1,6.4.17,18.17,1.63,38.17-6.37,55.17,4.63,6,5,6,14,2,20-5,6-13,6-20,8,17,2,36,14,37,31,3,39-51,27-78.27,28.54l-8,0H.46ZM142,487.42c4.27-6.85,21.27-16.85,11.27-20.85-15-6-32,15-48.39,1.75-2.27-.49-4.76-.81-7.11-1.3H21.32v20.79H89.25c3.06.76,6.06.76,8.06,1.76,11,9,28,23,39.08,6.54A70.19,70.19,0,0,1,142,487.42Zm36,32.53c3.26-2.38,7.26-5.38,6.26-9.38-5-11-24-25-29-12-8,18-25,24-42,16-8-4-14-11-23-11.43-2.5-.13-5-.21-7.44-.3H21.32v24H97.56c3,.57,5.75.85,8.6,1.3,21.15,7.45,47.15,8.45,66.62-4.46C176.27,521.14,178.05,520,178.05,520Z" fill="#fff"/><path d="M263.29,502.15c12-6.58,16-19.58,14.92-32.8a18,18,0,0,0-3.18-7c-6.21-8.53-17.69-11.55-30.73-11.55H211.48a37.79,37.79,0,0,1-1.5,9.11c-7.67,20.7,1.33,41.7,6.33,62.7,2,7,0,14-3,20,7,1,17,4,21,0,6-8,5-22-1-33,18-4,22,19,31,31,1,2,6,3,9.23,2,5,.5,10.82.5,10.82.5a65.47,65.47,0,0,1-4.07-10.37c-3-7.13-5-14.13-10-20.48A108.67,108.67,0,0,0,263.29,502.15Zm-33.5-33.82c7.52-.76,18.52-3.76,23.52,3.24,5,6,2,15-4,19-7,4-15,6-20,2-2-1-1-8-1.34-12A69.35,69.35,0,0,1,229.79,468.33Z" fill="#fff"/><path d="M341.65,450.76H316.59a61.25,61.25,0,0,1-4.53,9.88c-8.75,14.93-9.75,32.93-11.75,49.93a93.33,93.33,0,0,1-12,33c8,0,18,3,23-1s8-13,7-21c10,0,21-3,28,1,5,3,6,13,5,21,7,0,17,2,21-2,3-4-2-13-5-19-9-20-25-38-22.67-62.21Zm-22.6,54.57c-1.74-13.76,2.26-26.76,6.26-39.76,3,13,4,27,12,39a56.73,56.73,0,0,0-9.07.49C323.6,505.17,319.05,505.33,319.05,505.33Z" fill="#fff"/><path d="M381,450.77H402.4a86,86,0,0,1,.55,12.42,61.46,61.46,0,0,0,17.36,54.38c-10-19-13-41-6-61.71v-5.09h19.36a51.71,51.71,0,0,1-1.15,9.33c-8.17,24.47,3.83,48.47,5.83,72.47,1,13-13,10-22,11,0-24-13-44-21-66-3,23,20,44,6,65-2,3-11,0-18-1,6-19-6-37-6-56A136.86,136.86,0,0,1,379.88,460,52.45,52.45,0,0,0,381,450.77Z" fill="#fff"/><path d="M448.76,450.77H603.24c26.78,0,44.38,14,44.38,45.72s-17.6,46.58-43.2,46.58H559a61.3,61.3,0,0,1-7.43-.29c-33.29-2.21-67.29,2.79-100.29.79,1-6,3-11,2-17-6-22-11-44-4.55-66.2Zm153.32,75.47c14.36,0,24.12-7.67,24.12-29.75s-9.76-28.9-24.12-28.9H560.65c-2.56,0-5.17,0-8.13-.24-28.21-2.78-60.21-6.78-81.21,5.22-15,9-3,39,8,56,2,3,12,2,18,0,24-7,47-11,70.82-2.33h34Z" fill="#fff"/><path d="M.46,565.2H119.74c2.13.07,4.36.11,6.4.17C144.31,567,164.31,559,181.31,570c6,5,6,14,2,20-2.5,3-5.75,4.5-10,5.46-4,1.1-8,2.1-12,3.1,8-1,10,8,13,14,4,10,20,12,22,21,7,28-39,26-59,26-20,1-32-14-48-26-1-1-5,2-7,4-9,13,2,32-13,38-19,9-40-2-53.15-15.87-1.94-1.53-3.45-2.2-4.61-2.2H.46Zm137.76,37.28c2.52-2,5.91-4,8.55-6.11,2.28-2.06,4.49-4.08,6.26-6,3.53-3.85,5.28-7.35.28-9.35-15-6-32,15-48.39,1.75-2.27-.49-4.76-.82-7.11-1.31H21.32v20.8h8.54c2.45,3.32,4.45,8.32,5.45,8.32,15,0,29-16,44-10,18,8,38,22,55,4.23A37.82,37.82,0,0,0,138.22,602.48Zm32.38,31.25c-.29-2.16.71-5.16-1.29-7.16-8-5-14-12-21-15-11-5-13,13-19,21-3,2-7,1-10,0-17-8-29-27-50-24-19,2-29,20-26,39,1,9-9,4-12,0-7-8-9-17-12-26-6,24,9,51,35,50,23,0,9-26,11-40,1-5,4-10,9-12,9-3,20-1,25,7,10,15,24,22,39,25,12,3,26-3,31.54-13.56C170.39,635.15,170.6,633.73,170.6,633.73Z" fill="#fff"/><path d="M256.83,615.75c9.48-3.18,17.48-10.18,20.68-19a42.73,42.73,0,0,0,.82-6.35,48.16,48.16,0,0,0-.12-6.57,18,18,0,0,0-3.18-7c-6.21-8.52-17.69-11.55-30.73-11.55H211.48a37.9,37.9,0,0,1-1.5,9.12A48.52,48.52,0,0,0,207,589.88c-.08,2.61-.11,5.24-1.64,8-3.08,6.71-17.08,11.71-10.08,18.71,10,11,26,20,23,37,7,0,19,2,20-6,2-12-8-21-16-28,21-1,32,20,43,36,3,5,10,0,16,1-3-12-8-23-16.79-31.12C260,619.55,256.83,615.75,256.83,615.75Zm-27-33c7.52-.75,18.52-3.75,23.52,3.25a11.38,11.38,0,0,1,2.13,10.25c-8.13,10.31-23.13,16.31-33.13,9.31-3-2,4-6,5.45-10.51A83.11,83.11,0,0,1,229.79,582.76Z" fill="#fff"/><path d="M341.65,565.19H316.59a61.25,61.25,0,0,1-4.53,9.88c-4.37,7.47-6.81,15.7-8.4,24.19a35.19,35.19,0,0,1-2.73,7.83c-7.62,15.48-3.62,34.48-15.62,48.48,8,1,16,5,24,1,6-3,7-13,5-20,10,2,27-7,31,6,3,13,10,24,19,15,10-10-7-27-12-40-2-6-3-12-4.6-17.93a77.84,77.84,0,0,0-1.78-7.73,51.15,51.15,0,0,1-1.29-17.12ZM314.58,620.6c-.27-5,1.73-9,2.69-13.49A36.55,36.55,0,0,1,320,599.6,191.08,191.08,0,0,1,325.31,580c1,4.33,1.78,8.77,2.67,13.22a27.25,27.25,0,0,1,.35,6.83c0,6.51,1,13.51,5,19.51-3,0-6,0-9.1,1.46C319.38,620.89,314.58,620.6,314.58,620.6Z" fill="#fff"/><path d="M381,565.2H402.4a86,86,0,0,1,.55,12.42,60.87,60.87,0,0,0-.23,20c.51,3.25,1.12,6.37,1.31,9.2.28,8.7,4.28,16.7,5.28,25.7,2-8,1-15,2-23.16a39.08,39.08,0,0,0-.35-7.62,73.59,73.59,0,0,1,3.34-31.49v-5.1h19.36a51.71,51.71,0,0,1-1.15,9.33c-3.07,9.18-3.29,18.29-2.27,27.36a41.6,41.6,0,0,1,.17,9.06c-3.07,16.62-7.07,31.62-8.07,48.62,0,3-11,2-13,1-11-10-6-27-6-41a195.67,195.67,0,0,0-4.8-19.4c-1.12-2.7-2.2-5.41-3.2-8.16a35.8,35.8,0,0,0,0,8.53c2,21,5,43-3,62-1,3-12,0-13-4-3-17-2-32-4-49a29.94,29.94,0,0,1,2-9.56c0-2.25.07-4.44.18-6.59a150.69,150.69,0,0,1,2.39-19A52.45,52.45,0,0,0,381,565.2Z" fill="#fff"/><path d="M448.76,565.2H603.24c26.78,0,44.38,14,44.38,45.73S630,657.5,604.42,657.5h-6.1a53.36,53.36,0,0,1-7.45-.41c-21.56-6.52-39.56-28.52-64.56-17.52-14,6-21,20-25,34-2,4-6,3-8,1-16-10-36-7-50-18-16-12-1-32,3.06-48.59-.3-2.76-.5-5.51-.59-8.27a79.76,79.76,0,0,1,3-24.91Zm153.32,75.48c14.36,0,24.12-7.67,24.12-29.75S616.44,582,602.08,582H560.65c-2.56,0-5.17,0-8.13-.23C524.31,579,492.31,575,471.31,587c-5,3-7,8.33-7,14.74,0,3.2.45,6.67.36,10.47-1.33,12.35-15.33,25.35-1.33,33.35,7,4,13-2,20-5,5-2,10,5,15,2,24-16,53-18,76.53-2.25,4.26.36,7.92.36,11.18.36Z" fill="#fff"/><path d="M.46,689.34H119.74c2.13.07,4.36.11,6.4.18,18.17,1.63,38.17-6.37,55.17,4.63a13.51,13.51,0,0,1,4.75,9.62,16.61,16.61,0,0,1-2.79,10.37c-8,4.43-17,6.43-25,9.43h4c0,16,11,21,23,29,6,3,13,13,6,18-31,30-80,25-102-12.85-1-1-5,2-7,4-9,13,2,32-13,38-19,9-40-2-53.15-15.87-1.94-1.53-3.45-2.2-4.61-2.2H.46Zm136.9,37.78c5.95-3.55,9.95-8.55,15.67-12.61,3.53-3.86,5.28-7.36.28-9.36-15-6-32,15-48.39,1.75-2.27-.49-4.76-.82-7.11-1.31H21.32v20.8h8.54c2.45,3.33,4.45,8.33,5.45,8.33,15,0,29-16,44-10,9,4,18.5,9.5,27.88,11.78a16.7,16.7,0,0,0,7.81,1.81c7.31-.74,13.31-4.74,18.17-9.09A42.85,42.85,0,0,0,137.36,727.12Zm23.89,31.76c-5.94-9.31-13.94-18.31-22.94-19.31-10-1-8,18-15,23-8,5-14-10-20.77-15.14a58.85,58.85,0,0,0-6.73-6.84c-7.75-5.37-16-9.37-26.5-7.87-19,2-29,20-26,39,1,9-9,4-12,0-7-8-9-17-12-26-6,24,9,51,35,50,23,0,9-26,11-40,1-5,4-10,9-12a25.5,25.5,0,0,1,14-.63c4.5,1.13,8.5,3.63,10.37,8.64,8.63,18.84,27.63,33.84,49.63,31.84,10-1,15-12,14.1-20.74C161.6,760.2,161.25,758.88,161.25,758.88Z" fill="#fff"/><path d="M276.44,739.78c8.87-10.21,12.87-27.21,2.87-37.21-17-16-27,8-42,12-16,5-16-17-28-23-2,16,2,36-20,39-2,1-5,4-4,6,10,16,29,22,40,39,1,3,13,3,15,0,8-13-10-21-20-27,13,6,30,0,39,13,7,12,17,23,31,18-6-10-10-18-8-30a9.65,9.65,0,0,0-4.16-8.28A17.58,17.58,0,0,0,276.44,739.78Zm-43.69-8.56c13.56,3.35,21.56-10.65,33.56-13.65,5-1,6,6,5,10-6,18-30,24-46,15,3-3,8-2,12-3-1-2-1-4-2.46-5.67C233.74,732.37,232.75,731.22,232.75,731.22Z" fill="#fff"/><path d="M332.45,689.42c-13.14,2.15-38.14-9.85-34.14,2.15,10,29-1,59-1,86,0,3,20,8,24-3,2-5,0-10-1-15,17,2,40-3,38,22,0,2,3,3,5,3,7-3,21-9,14-17-17-22-39-41-41.3-69.13C333.61,692.91,332.45,689.42,332.45,689.42ZM318.33,744.3c2-14.73,1-28.73-1-43.73,6,11,10,23,13,36,1,4,4,7,6,10-3,0-6,0-8.9-.14A22.47,22.47,0,0,0,318.33,744.3Z" fill="#fff"/><path d="M372.94,688.77c6.37-1.2,12.37.8,18.37.8-11,23,7,50,26,60,10,5,20,9,29,15-23-14-48-29-51-58-2-15,10-17,22-17-8,10-10,22-2,33,16,22,36,49,66,34-6,17-26,14-40,14-9,1-14,9-21,14-3,2-9,3-9,0-3-14,21-16,17-22-9-15-30-22-41-39,6,18,22,28,36,39-13,6-27,31-37,21-4-4,12-14,4-23-15-18-21-39-21.53-62.2A47.85,47.85,0,0,0,372.94,688.77Z" fill="#fff"/><path d="M428,690.85a24.33,24.33,0,0,1,.29,4.72c23-8,49-18,73.24-6.23H603.24c26.78,0,44.38,14,44.38,45.73s-17.6,46.58-43.2,46.58h-6.1a52.1,52.1,0,0,1-7.45-.42c-21.56-6.51-39.56-28.51-64.56-17.51-14,6-21,20-25,34-2,4-6,3-8,1-13.33-8.34-29.44-7.64-42.54-13.55a25,25,0,0,1-7-4.43c-3.45-4.17.55-8.17,4.55-8.17a53.39,53.39,0,0,0,22-2c7-3,13-7,17-14,2-5,5-17,1-15-10,4-19,15-31,11-22-8-37-34-32.74-56.75A26.4,26.4,0,0,1,428,690.85Zm174.06,74c14.36,0,24.12-7.67,24.12-29.75s-9.76-28.9-24.12-28.9H560.65c-2.56,0-5.17,0-8.13-.24-10.58-1-21.69-2.26-32.55-2.73a43.38,43.38,0,0,1-5.67-.55c-18-11.08-39-18.08-60-11.08-9,4-16,14-12,24,4,9,9,21,20,23,13,3,9-16,15-18,21-7,21,27,15,42,6-4,8-11,12-17,2,6-4,11-1,17,2-1,4-3,5.59-2.82,1.76.08,5-1.25,8.19-2.35,19.38-6.57,40.1-4.75,57.75,7.06,4.26.36,7.92.36,11.18.36Z" fill="#fff"/><path d="M610.45,381.66a30.25,30.25,0,0,1-7.74.92h-3.4v-.92Z" fill="#fff"/><path d="M907.89,501.33a16.66,16.66,0,1,1,0-33.32" fill="#fff" stroke="#fff" stroke-miterlimit="10"/><path d="M932.36,501.33a16.66,16.66,0,1,1,0-33.32" fill="#fff" stroke="#fff" stroke-miterlimit="10"/><path d="M956.84,501.33a16.66,16.66,0,0,1,0-33.32" fill="#fff" stroke="#fff" stroke-miterlimit="10"/><path d="M981.32,501.33a16.66,16.66,0,0,1,0-33.32" fill="#fff" stroke="#fff" stroke-miterlimit="10"/><path d="M1005.8,501.33a16.66,16.66,0,1,1,0-33.32" fill="#fff" stroke="#fff" stroke-miterlimit="10"/><path d="M1030.28,501.33a16.66,16.66,0,1,1,0-33.32" fill="#fff" stroke="#fff" stroke-miterlimit="10"/><path d="M1054.75,501.33a16.66,16.66,0,0,1,0-33.32" fill="#fff" stroke="#fff" stroke-miterlimit="10"/><path d="M1079.23,501.33a16.66,16.66,0,0,1,0-33.32" fill="#fff" stroke="#fff" stroke-miterlimit="10"/><path d="M1103.71,501.33a16.66,16.66,0,0,1,0-33.32" fill="#fff" stroke="#fff" stroke-miterlimit="10"/><path d="M1111.53,468a16.66,16.66,0,1,1,0,33.32" fill="#fff" stroke="#fff" stroke-miterlimit="10"/></g></g></svg>