<svg xmlns="http://www.w3.org/2000/svg" xmlns:xlink="http://www.w3.org/1999/xlink" width="1366" height="193.262" viewBox="0 0 1366 193.262">
  <defs>
    <linearGradient id="linear-gradient" x1="0.5" x2="0.5" y2="1" gradientUnits="objectBoundingBox">
      <stop offset="0" stop-color="#262626"/>
      <stop offset="1" stop-color="#030303"/>
    </linearGradient>
  </defs>
  <g id="Grupo_1" data-name="Grupo 1" transform="translate(-53 -2982.551)">
    <g id="Capa_2_2_" transform="translate(53 2982.551)">
      <g id="Layer_1_1_" transform="translate(0 0)">
        <path id="Trazado_1" data-name="Trazado 1" d="M171.3,92.876a90.385,90.385,0,0,1-8.908,41.455,83.376,83.376,0,0,1-23.64,28.779,92.85,92.85,0,0,1-32.89,16.445,136.75,136.75,0,0,1-37.344,5.482H0V1.4H66.466a160.914,160.914,0,0,1,38.372,4.454,92.97,92.97,0,0,1,33.575,15.075A73.178,73.178,0,0,1,162.4,49.022,92.517,92.517,0,0,1,171.3,92.876Zm-46.252,0a54.865,54.865,0,0,0-5.139-25.7,47.988,47.988,0,0,0-13.362-16.445A50.911,50.911,0,0,0,87.365,42.17,96.655,96.655,0,0,0,65.1,39.429H43.168V146.665h20.9a102.613,102.613,0,0,0,22.955-2.741,59.362,59.362,0,0,0,19.529-8.908,44.356,44.356,0,0,0,13.362-16.445,56.6,56.6,0,0,0,5.139-25.7Z" transform="translate(0 3.396)" fill="url(#linear-gradient)"/>
        <path id="Trazado_2" data-name="Trazado 2" d="M57.5,185.037V1.4h44.539V185.037Z" transform="translate(139.499 3.396)" fill="url(#linear-gradient)"/>
        <path id="Trazado_3" data-name="Trazado 3" d="M188.145,185.037h-44.2L74.4,1.4h49.678l42.483,130.19h1.028L210.072,1.4h48.993Z" transform="translate(180.499 3.396)" fill="url(#linear-gradient)"/>
        <path id="Trazado_4" data-name="Trazado 4" d="M132.2,185.037V1.4H255.538V38.744H175.026v34.6h76.059v35.631H175.026v38.029h85.309v38.029Z" transform="translate(320.725 3.396)" fill="url(#linear-gradient)"/>
        <path id="Trazado_5" data-name="Trazado 5" d="M275.785,185.037l-39.742-72.975H220.968v72.975H177.8V1.4h69.892a128.271,128.271,0,0,1,25.7,2.741A68.548,68.548,0,0,1,296,13.391a50.29,50.29,0,0,1,15.76,17.13A54.083,54.083,0,0,1,317.583,56.9a48.487,48.487,0,0,1-9.936,31.177,55.068,55.068,0,0,1-28.094,18.158l47.965,78.457H275.785ZM273.73,57.93a19.7,19.7,0,0,0-2.741-10.621,16.92,16.92,0,0,0-6.852-6.167,44.839,44.839,0,0,0-9.593-3.083c-3.426-.343-6.852-.685-10.278-.685h-23.64V79.857h20.9a63.083,63.083,0,0,0,11.306-1.028A36.318,36.318,0,0,0,263.109,75.4c3.083-1.713,5.824-3.769,7.537-6.852A14.512,14.512,0,0,0,273.73,57.93Z" transform="translate(431.354 3.396)" fill="url(#linear-gradient)"/>
        <path id="Trazado_6" data-name="Trazado 6" d="M334.489,52.276a45.741,45.741,0,0,0-15.074-11.649A39.979,39.979,0,0,0,301.6,36.516a77.952,77.952,0,0,0-8.908.685,20.243,20.243,0,0,0-8.223,3.083,19.921,19.921,0,0,0-6.167,5.824,14.063,14.063,0,0,0-2.4,8.908,15.915,15.915,0,0,0,2.056,7.88,14.948,14.948,0,0,0,5.824,5.482,42.047,42.047,0,0,0,8.908,4.111c3.426,1.37,7.195,2.741,11.649,4.111,6.167,2.056,12.676,4.454,19.528,6.852a80.514,80.514,0,0,1,18.5,9.936,53.529,53.529,0,0,1,13.7,15.417,44.6,44.6,0,0,1,5.482,22.955,58.121,58.121,0,0,1-5.824,27.409,59.435,59.435,0,0,1-15.76,18.843,63.051,63.051,0,0,1-22.612,10.963,97.644,97.644,0,0,1-26.038,3.769,109.873,109.873,0,0,1-38.029-6.852A81.742,81.742,0,0,1,222.8,166.364L251.921,136.9a49.8,49.8,0,0,0,17.816,13.7,49.445,49.445,0,0,0,21.927,5.482,45.666,45.666,0,0,0,9.593-1.028,24.679,24.679,0,0,0,8.223-3.426,18.778,18.778,0,0,0,5.482-6.167,21.461,21.461,0,0,0,2.056-9.25,14.4,14.4,0,0,0-2.741-8.908,23.078,23.078,0,0,0-7.537-6.51,54,54,0,0,0-11.991-5.482c-4.8-1.713-10.278-3.426-16.1-5.139a148.783,148.783,0,0,1-17.13-6.852,54.808,54.808,0,0,1-15.074-9.936,44.991,44.991,0,0,1-10.621-14.732,54.589,54.589,0,0,1-4.111-21.242,52.2,52.2,0,0,1,6.167-26.038A51.317,51.317,0,0,1,254.32,13.562,70.962,70.962,0,0,1,276.932,3.283,107.633,107.633,0,0,1,302.627.2a92.014,92.014,0,0,1,31.862,5.824,82.248,82.248,0,0,1,28.436,16.788Z" transform="translate(540.527 0.485)" fill="url(#linear-gradient)"/>
        <path id="Trazado_7" data-name="Trazado 7" d="M401.445,185.037h-44.2L287.7,1.4h49.678l42.483,130.19h1.028L423.029,1.4h48.993Z" transform="translate(697.978 3.396)" fill="url(#linear-gradient)"/>
        <path id="Trazado_8" data-name="Trazado 8" d="M540.16,95.93a98.846,98.846,0,0,1-7.538,39.742,91.063,91.063,0,0,1-20.9,30.835,96.092,96.092,0,0,1-31.862,19.871,112.846,112.846,0,0,1-39.742,6.852,104.461,104.461,0,0,1-39.742-6.852,94.62,94.62,0,0,1-31.52-19.871,91.059,91.059,0,0,1-20.9-30.835A105.052,105.052,0,0,1,340.42,95.93a98.832,98.832,0,0,1,7.538-39.742,91.723,91.723,0,0,1,20.9-30.149,90.792,90.792,0,0,1,31.52-19.186A112.844,112.844,0,0,1,440.119,0a119.645,119.645,0,0,1,39.742,6.852,92.2,92.2,0,0,1,31.862,19.186,91.727,91.727,0,0,1,20.9,30.149A105.062,105.062,0,0,1,540.16,95.93Zm-47.623,0a70.672,70.672,0,0,0-3.768-22.269,58.584,58.584,0,0,0-10.621-17.816A49.754,49.754,0,0,0,461.7,44.2a46.145,46.145,0,0,0-21.242-4.111,50.455,50.455,0,0,0-37.687,15.76A47.5,47.5,0,0,0,392.154,73.66a70.672,70.672,0,0,0-3.768,22.269,73.265,73.265,0,0,0,3.768,22.955A58.578,58.578,0,0,0,402.774,136.7c4.454,5.139,10.278,8.908,16.445,11.991a53.83,53.83,0,0,0,42.483,0A47.4,47.4,0,0,0,478.148,136.7a53.354,53.354,0,0,0,10.963-17.816A65.528,65.528,0,0,0,492.537,95.93Z" transform="translate(825.811 0)" fill="url(#linear-gradient)"/>
        <rect id="Rect치ngulo_5" data-name="Rect치ngulo 5" width="44.539" height="43.854" transform="translate(927.778 4.796)" fill="url(#linear-gradient)"/>
        <rect id="Rect치ngulo_6" data-name="Rect치ngulo 6" width="44.539" height="46.594" transform="translate(927.778 141.839)" fill="url(#linear-gradient)"/>
      </g>
    </g>
  </g>
</svg>
