<?xml version="1.0" encoding="utf-8"?>
<!-- Generator: Adobe Illustrator 24.0.3, SVG Export Plug-In . SVG Version: 6.00 Build 0)  -->
<svg version="1.1" id="Capa_1" xmlns="http://www.w3.org/2000/svg" xmlns:xlink="http://www.w3.org/1999/xlink" x="0px" y="0px"
	 viewBox="0 0 2200 2500" style="enable-background:new 0 0 2200 2500;" xml:space="preserve">
<style type="text/css">
	.st0{fill-rule:evenodd;clip-rule:evenodd;fill:#CC0000;}
</style>
<g transform="translate(8 8)">
	<path class="st0" d="M1907,1522v100.5h181.6c37.2,0,101.1-27.2,103.3-103.3v-38.9c0-65-53.3-103.3-103.3-103.3h-90.5v-46.7h179.4
		v-101.1h-172.2c-44.4,0-103.9,36.7-103.9,105v35c0,68.3,58.9,103.3,103.9,103.3c125,0.6-30,0,85.5,0v48.9 M933.9,1497.5
		c0,0,97.2-8.3,97.2-133.9s-117.8-137.2-117.8-137.2H701.1v396h106.6V1527l92.2,95.5h157.8L933.9,1497.5z M892.8,1416.4h-85v-90.5
		h85.5c0,0,23.9,8.9,23.9,45S892.8,1416.4,892.8,1416.4z M1294.4,1229.2H1186c-77.2,0-103.3,70-103.3,103.3v290H1191v-69.4h101.7
		v69.4h105v-290C1397.7,1248.1,1321,1229.2,1294.4,1229.2z M1292.7,1440.9h-102.2v-96.1c0,0,0-21.7,33.9-21.7h37.2
		c30,0,30.6,21.7,30.6,21.7v96.1H1292.7z"/>
	<rect x="1447.1" y="1229.2" class="st0" width="112.8" height="393.3"/>
	<polygon class="st0" points="1718.2,1520.8 1718.2,1229.2 1606,1229.2 1606,1520.8 1606,1622.5 1718.2,1622.5 1869.8,1622.5 
		1869.8,1520.8 	"/>
	<path class="st0" d="M31.8,1622.5h438.8c0,0-83.9-382.7,193.9-537.7c60.5-29.4,253.3-139.4,568.8,93.9c10-8.3,19.4-15,19.4-15
		S963.9,875.4,642.2,907.6c-161.6,14.4-360.5,161.6-477.1,356.1S31.8,1622.5,31.8,1622.5z"/>
	<path class="st0" d="M31.8,1622.5h438.8c0,0-83.9-382.7,193.9-537.7c60.5-29.4,253.3-139.4,568.8,93.9c10-8.3,19.4-15,19.4-15
		S963.9,875.4,642.2,907.6c-161.6,14.4-360.5,161.6-477.1,356.1S31.8,1622.5,31.8,1622.5z"/>
	<path class="st0" d="M31.8,1622.5h438.8c0,0-83.9-382.7,193.9-537.7c60.5-29.4,253.3-139.4,568.8,93.9c10-8.3,19.4-15,19.4-15
		S963.9,875.4,642.2,907.6c-162.2,14.4-361.1,161.6-477.7,356.1S31.8,1622.5,31.8,1622.5z M946.1,938.7l2.2-37.2
		c-5-2.8-18.9-9.4-53.9-19.4l-2.2,36.7C910.5,924.8,928.3,931.5,946.1,938.7z"/>
	<path class="st0" d="M893.3,1056.5l-2.2,35c18.3,0.6,36.7,2.8,55,6.7l2.2-34.4C929.4,1059.8,911.1,1057.6,893.3,1056.5z
		 M687.8,883.2h5.6l-11.1-33.9c-17.2,0-35,1.1-53.3,3.3l10.6,32.8C655.6,883.7,671.7,883.2,687.8,883.2z M714.5,1087.6l12.8,38.3
		c16.1-7.8,32.2-14.4,48.3-19.4l-12.2-36.7C744.4,1075.4,728.3,1081.5,714.5,1087.6z M462.3,941.5l-25-38.3
		c-13.9,7.2-28.3,15-43.3,23.9l25.6,38.9C433.9,957,447.8,948.7,462.3,941.5z M576.1,1191.5l26.7,40c9.4-13.9,20.6-26.7,32.8-39.4
		l-25-37.8C597.8,1165.9,586.1,1178.7,576.1,1191.5z M495.6,1370.3l45,35.5c2.2-21.7,6.1-43.3,11.7-65l-40-31.7
		C505,1329.8,500,1350.3,495.6,1370.3z M252.3,1106.5l-39.4-34.4c-14.4,13.9-28.3,27.8-41.1,41.7l42.8,36.7
		C226.2,1135.4,239,1120.4,252.3,1106.5z M84.6,1354.8l-63.9-23.3c-10.6,23.9-22.2,51.7-27.8,66.7l63.9,23.3
		C64,1402.5,75.7,1375.3,84.6,1354.8z M487.3,1511.4c1.1,29.4,3.9,53.3,6.7,70l66.7,23.9c-5-21.7-10-46.1-13.3-72.2L487.3,1511.4z"
		/>
</g>
</svg>
