<svg xmlns="http://www.w3.org/2000/svg" xmlns:xlink="http://www.w3.org/1999/xlink" viewBox="0 0 624.1 582.45"><defs><linearGradient id="Degradado_sin_nombre_6" x1="328.75" y1="151.57" x2="382.92" y2="151.57" gradientUnits="userSpaceOnUse"><stop offset="0" stop-color="#0071bb"/><stop offset="1" stop-color="#2e3191"/></linearGradient></defs><title>webs-y-apps</title><g id="Capa_2" data-name="Capa 2"><g id="Software"><polygon points="439.58 216.98 439.58 47.09 623.5 153.27 624.1 322.82 439.58 216.98" style="fill:#4d4d4d"/><polygon points="436.75 218.98 436.75 49.09 620.67 155.27 621.27 324.82 436.75 218.98" style="fill:#666"/><polygon points="624.1 322.82 621.27 324.82 621.24 317.71 624.1 322.82" style="fill:#4d4d4d"/><polygon points="436.75 49.09 439.58 47.09 443.94 49.6 440.79 51.42 436.75 49.09" style="fill:#4d4d4d"/><polyline points="526.99 270.74 526.99 101.19 531.03 99.89" style="fill:none;stroke:#333;stroke-miterlimit:10;stroke-width:0.5px"/><path d="M382.92,125.46l-.31,4.92-8.75,35.69s0,11.61-18,11.61-18.05-11-18.05-11l-9-36.47,0-4.46" style="fill:url(#Degradado_sin_nombre_6)"/><path d="M382.4,123.69c-2.39,4.12-13.38,7.24-26.58,7.24s-24.2-3.12-26.59-7.24c2.39-4.12,13.39-7.23,26.59-7.23S380,119.57,382.4,123.69Z" style="fill:#613d26"/><path d="M382.89,122c5.42,16.55-59.58,16.45-54.14,0a5,5,0,0,0,2.42,3.69h0C342.86,134,382,132,382.89,122Z" style="fill:#29aae1"/><path d="M382.89,122a3.35,3.35,0,0,1-.49,1.69,6.07,6.07,0,0,0-1.52-1.69c-4-3.26-13.74-5.55-25.06-5.55s-21,2.29-25.07,5.55a6.23,6.23,0,0,0-1.52,1.69,3.34,3.34,0,0,1-.48-1.69c0-4.93,12.12-8.92,27.07-8.92S382.89,117.08,382.89,122Z" style="fill:#1b1464"/><path d="M382.87,125.69a3,3,0,0,0,0-.31v.31Z" style="fill:#1b1464"/><path d="M417.46,18.05c8.65,7.33,10.09,21,5.35,29.29-5.81,10.16-17.4,6.12-23.33,15.81-7.14,11.68,5.88,23.79-.89,34.47-5.86,9.21-23.16,12.14-35.5,5.68-9.57-5-17.9-16.59-15.14-24.33,2.88-8.09,15.64-5.77,20.15-15.72,2.86-6.32-1.61-8.76.61-19.45a40.67,40.67,0,0,1,9.88-18.9c2.85-3.15,7.09-7.83,14.25-10.17C395.65,13.81,408.21,10.22,417.46,18.05Z" style="fill:#06803f"/><path d="M135.68,503.9s0,5.25-6.87,5.25-7-5.14-7-5.14l0-94.62h13.89Z" style="fill:#f1f1f1;stroke:#e5e5e5;stroke-miterlimit:10"/><path d="M25.33,449.68s0,5.25-6.87,5.25-7-5.15-7-5.15l0-94.61H25.33Z" style="fill:#f1f1f1;stroke:#e5e5e5;stroke-miterlimit:10"/><path d="M482.87,547.34s0,5.25-6.86,5.25-7-5.14-7-5.14l0-94.62h13.89Z" style="fill:#f1f1f1;stroke:#e5e5e5;stroke-miterlimit:10"/><path d="M597.72,476.69s0,5.25-6.86,5.25-7-5.15-7-5.15l0-94.61h13.89Z" style="fill:#f1f1f1;stroke:#e5e5e5;stroke-miterlimit:10"/><path d="M289,409s0,6.44-11.15,6.44-11.38-6.31-11.38-6.31l0-116.07H289Z" style="fill:#f1f1f1;stroke:#e5e5e5;stroke-miterlimit:10"/><path d="M423,442.91,294.11,368.49a36.46,36.46,0,0,0-36.48,0L147,432.37a36.52,36.52,0,0,1-36.51,0L9.2,373.9A18.4,18.4,0,0,1,9.2,342L257.6,198.61a36.56,36.56,0,0,1,36.53,0L604.68,377.89a10.8,10.8,0,0,1,0,18.71L487,464.55a26.47,26.47,0,0,1-26.46,0Z" style="fill:#c59b6d"/><path d="M423,439,294.11,364.59a36.46,36.46,0,0,0-36.48,0L147,428.46a36.52,36.52,0,0,1-36.51,0L9.2,370a18.4,18.4,0,0,1,0-31.87L257.6,194.71a36.51,36.51,0,0,1,36.53,0L604.68,374a10.81,10.81,0,0,1,0,18.72L487,460.65a26.47,26.47,0,0,1-26.46,0Z" style="fill:#2f73fa"/><path d="M137.52,334.72l2.72-1.59a5,5,0,0,1,5.08,0l6.51,3.76a2.55,2.55,0,0,1,0,4.4l-1.48.86Z" style="fill:#666"/><path d="M183.57,339.92l-2.72,1.59a5,5,0,0,1-5.08,0l-6.51-3.76a2.54,2.54,0,0,1,0-4.39l1.48-.87Z" style="fill:#666"/><path d="M172.69,339.75a3.86,3.86,0,0,1-2.72,1.76c-2.05.47-3.88-.75-10.32-5.18-4.56-3.13-6.19-4.27-8.27-3.91a6.22,6.22,0,0,0-3.51,2.16" style="fill:none;stroke:#e5e5e5;stroke-miterlimit:10"/><path d="M220.7,269.35l2.71-1.59a5.06,5.06,0,0,1,5.09,0L235,271.5a2.55,2.55,0,0,1,0,4.4l-1.48.86Z" style="fill:#666"/><path d="M274.46,287.82l-2.71,1.59a5.06,5.06,0,0,1-5.09,0l-6.51-3.75a2.55,2.55,0,0,1,0-4.4l1.48-.86Z" style="fill:#666"/><path d="M263.59,287.22a3.83,3.83,0,0,1-2.72,1.76c-2,.47-5.38-3.82-13-11.48-4.24-4.24-11.2-10.81-13.28-10.45a6.24,6.24,0,0,0-3.51,2.16" style="fill:none;stroke:#e5e5e5;stroke-miterlimit:10"/><path d="M345,291.48l4.73,2.72a3.72,3.72,0,0,0,3.76,0l7.62-4.39a2.49,2.49,0,0,0,0-4.3l-2.89-1.67Z" style="fill:#666"/><path d="M260.12,341.22l2.79,1.61a7.27,7.27,0,0,0,7.25,0L275,340a3.16,3.16,0,0,0,0-5.48l-1.86-1.08Z" style="fill:#666"/><path d="M357.59,307.94l-4.73-2.73a3.79,3.79,0,0,0-3.77,0l-7.61,4.4a2.49,2.49,0,0,0,0,4.3l2.89,1.67Z" style="fill:#666"/><path d="M431.1,354.42l4.73,2.73a3.77,3.77,0,0,0,3.76,0l7.62-4.4a2.49,2.49,0,0,0,0-4.3l-2.89-1.67Z" style="fill:#666"/><path d="M480.8,345l-4.73-2.73a3.77,3.77,0,0,0-3.76,0l-7.62,4.4a2.49,2.49,0,0,0,0,4.3l2.89,1.66Z" style="fill:#666"/><path d="M202.67,376.73l-78.41,44.44a4.76,4.76,0,0,1-4.3.06L15.84,359.16c-1.13-.67-1-1.78.21-2.49l78.42-44.43a4.74,4.74,0,0,1,4.29-.06l104.13,62.06C204,374.91,203.92,376,202.67,376.73Z" style="fill:#1b1464"/><path d="M202.67,375.31l-78.41,44.43a4.76,4.76,0,0,1-4.3.06L15.84,357.74c-1.13-.68-1-1.79.21-2.5l78.42-44.43a4.74,4.74,0,0,1,4.29-.06l104.13,62.07C204,373.49,203.92,374.6,202.67,375.31Z" style="fill:blue"/><path d="M145.61,371.26l-26.87,15.22a8.81,8.81,0,0,1-8,.12h0c-2.1-1.26-1.92-3.34.4-4.65L138,366.72a8.84,8.84,0,0,1,8-.11h0C148.1,367.86,147.93,370,145.61,371.26Z" style="fill:#f05a24;stroke:#fff;stroke-miterlimit:10"/><line x1="121.25" y1="409.08" x2="184.32" y2="373.34" style="fill:none;stroke:#f1f1f1;stroke-linecap:round;stroke-linejoin:round"/><polygon points="126.78 353.44 108.4 342.48 81.63 346.96 73.23 362.4 91.62 373.36 118.39 368.88 126.78 353.44" style="fill:#f1f1f1"/><path d="M298.57,318.73l-73.36,43.45a4.52,4.52,0,0,1-4.17,0L115.34,300c-1.15-.68-1.13-1.78,0-2.47l73.36-43.45a4.54,4.54,0,0,1,4.18,0l105.7,62.17C299.75,316.94,299.74,318,298.57,318.73Z" style="fill:#1b1464"/><path d="M298.57,317.27l-73.36,43.45a4.52,4.52,0,0,1-4.17,0l-105.7-62.18c-1.15-.67-1.13-1.77,0-2.46l73.36-43.45a4.54,4.54,0,0,1,4.18,0l105.7,62.18C299.75,315.47,299.74,316.58,298.57,317.27Z" style="fill:blue"/><polygon points="183.57 300.21 159.28 314.6 139.74 303.1 164.02 288.71 183.57 300.21" style="fill:none;stroke:#e5e5e5;stroke-miterlimit:10"/><polygon points="186.43 277.94 169.34 288.06 167.23 286.82 184.31 276.7 186.43 277.94" style="fill:#e5e5e5"/><line x1="173.32" y1="290.4" x2="203.95" y2="272.26" style="fill:none;stroke:#e5e5e5;stroke-linecap:round;stroke-miterlimit:10"/><line x1="177.3" y1="292.74" x2="207.93" y2="274.6" style="fill:none;stroke:#e5e5e5;stroke-linecap:round;stroke-miterlimit:10"/><line x1="181.28" y1="295.08" x2="202.54" y2="282.49" style="fill:none;stroke:#e5e5e5;stroke-linecap:round;stroke-miterlimit:10"/><ellipse cx="204.41" cy="287.03" rx="1.76" ry="1.04" transform="translate(-5.47 3.97) rotate(-1.1)" style="fill:#f1f1f1"/><ellipse cx="209.64" cy="283.94" rx="1.76" ry="1.04" transform="translate(-5.41 4.07) rotate(-1.1)" style="fill:#f1f1f1"/><ellipse cx="214.87" cy="280.84" rx="1.76" ry="1.04" transform="translate(-5.35 4.17) rotate(-1.1)" style="fill:#f1f1f1"/><polygon points="210.31 315.94 186.02 330.32 166.47 318.82 190.76 304.44 210.31 315.94" style="fill:none;stroke:#e5e5e5;stroke-miterlimit:10"/><polygon points="213.16 293.67 196.08 303.79 193.96 302.54 211.05 292.42 213.16 293.67" style="fill:#e5e5e5"/><line x1="200.05" y1="306.13" x2="230.69" y2="287.98" style="fill:none;stroke:#e5e5e5;stroke-linecap:round;stroke-miterlimit:10"/><line x1="204.03" y1="308.47" x2="234.66" y2="290.32" style="fill:none;stroke:#e5e5e5;stroke-linecap:round;stroke-miterlimit:10"/><line x1="208.01" y1="310.81" x2="229.27" y2="298.21" style="fill:none;stroke:#e5e5e5;stroke-linecap:round;stroke-miterlimit:10"/><ellipse cx="231.15" cy="302.76" rx="1.76" ry="1.04" transform="translate(-5.77 4.49) rotate(-1.1)" style="fill:#f1f1f1"/><ellipse cx="236.37" cy="299.66" rx="1.76" ry="1.04" transform="translate(-5.7 4.59) rotate(-1.1)" style="fill:#f1f1f1"/><ellipse cx="241.6" cy="296.57" rx="1.76" ry="1.04" transform="translate(-5.64 4.69) rotate(-1.1)" style="fill:#f1f1f1"/><polygon points="237.04 331.66 212.76 346.05 193.21 334.55 217.5 320.17 237.04 331.66" style="fill:none;stroke:#e5e5e5;stroke-miterlimit:10"/><polygon points="239.9 309.39 222.81 319.51 220.7 318.27 237.78 308.15 239.9 309.39" style="fill:#e5e5e5"/><line x1="226.79" y1="321.85" x2="257.42" y2="303.71" style="fill:none;stroke:#e5e5e5;stroke-linecap:round;stroke-miterlimit:10"/><line x1="230.77" y1="324.19" x2="261.4" y2="306.05" style="fill:none;stroke:#e5e5e5;stroke-linecap:round;stroke-miterlimit:10"/><line x1="234.75" y1="326.53" x2="256.01" y2="313.94" style="fill:none;stroke:#e5e5e5;stroke-linecap:round;stroke-miterlimit:10"/><ellipse cx="257.88" cy="318.49" rx="1.76" ry="1.04" transform="translate(-6.06 5.01) rotate(-1.1)" style="fill:#f1f1f1"/><ellipse cx="263.11" cy="315.39" rx="1.76" ry="1.04" transform="translate(-6 5.11) rotate(-1.1)" style="fill:#f1f1f1"/><ellipse cx="268.34" cy="312.3" rx="1.76" ry="1.04" transform="translate(-5.94 5.2) rotate(-1.1)" style="fill:#f1f1f1"/><polyline points="230.77 356.64 219.94 350.28 244.23 335.89 254.88 342.16" style="fill:none;stroke:#e5e5e5;stroke-linecap:round;stroke-linejoin:round"/><polygon points="266.63 325.12 249.55 335.24 247.43 334 264.52 323.88 266.63 325.12" style="fill:#e5e5e5"/><line x1="253.53" y1="337.58" x2="284.16" y2="319.44" style="fill:none;stroke:#e5e5e5;stroke-linecap:round;stroke-miterlimit:10"/><polygon points="163.36 275.96 128.6 296.55 133.86 299.64 168.62 279.06 163.36 275.96" style="fill:#f1f1f1"/><path d="M389.66,264.86,315.32,309a4.56,4.56,0,0,1-4.22.05L204.41,246.7c-1.15-.68-1.13-1.79.05-2.49l74.34-44.14a4.59,4.59,0,0,1,4.22,0l106.69,62.35C390.86,263,390.84,264.16,389.66,264.86Z" style="fill:#1b1464"/><path d="M389.66,263.5l-74.34,44.14a4.59,4.59,0,0,1-4.22.05L204.41,245.34c-1.15-.67-1.13-1.78.05-2.48l74.34-44.14a4.59,4.59,0,0,1,4.22-.05L389.71,261C390.86,261.69,390.84,262.8,389.66,263.5Z" style="fill:blue"/><path d="M297,215.16l-64.44,38.26a4.61,4.61,0,0,1-4.23.05l-10.24-6c-1.15-.67-1.13-1.79,0-2.49l64.44-38.26a4.56,4.56,0,0,1,4.22,0l10.24,6C298.22,213.35,298.2,214.46,297,215.16Z" style="fill:none;stroke:#e5e5e5;stroke-miterlimit:10"/><path d="M329.15,257.07l-44.88,26.64a4.56,4.56,0,0,1-4.22.05l-42.64-24.91c-1.15-.68-1.13-1.79.05-2.49l44.88-26.65a4.58,4.58,0,0,1,4.23,0l42.63,24.91C330.35,255.25,330.33,256.37,329.15,257.07Z" style="fill:none;stroke:#e5e5e5;stroke-miterlimit:10"/><path d="M348.44,245.77,337.92,252a4.61,4.61,0,0,1-4.23,0L291.4,226.79c-1.15-.67-1.13-1.78.05-2.48L302,218.06a4.61,4.61,0,0,1,4.23-.05l42.29,25.28C349.64,244,349.62,245.07,348.44,245.77Z" style="fill:none;stroke:#e5e5e5;stroke-miterlimit:10"/><path d="M331,291.08l-16.91,10a4.59,4.59,0,0,1-4.22.05l-22.4-13.1c-1.16-.67-1.14-1.78,0-2.48l16.91-10a4.59,4.59,0,0,1,4.22-.05L331,288.59C332.16,289.27,332.14,290.38,331,291.08Z" style="fill:none;stroke:#e5e5e5;stroke-miterlimit:10"/><path d="M354.92,248.2l-42.74,25.38-1.75-1a.33.33,0,0,1,0-.62l42.21-25.07Z" style="fill:#f1f1f1"/><path d="M357.58,253.06l-39.94,23.72-1.74-1c-.29-.17-.28-.45,0-.62l39.41-23.4Z" style="fill:#f1f1f1"/><path d="M359.68,258.25,323.11,280l-1.74-1c-.29-.17-.29-.45,0-.63l36-21.41Z" style="fill:#f1f1f1"/><path d="M347,272.24l-18.41,10.93-1.74-1c-.29-.17-.28-.45,0-.62l17.88-10.62Z" style="fill:#f1f1f1"/><path d="M346,279.25l-12,7.11-1.74-1c-.29-.17-.29-.44,0-.62l11.44-6.79Z" style="fill:#f1f1f1"/><path d="M364,390.36l-72.62-41.95c-1.15-.66-1-1.8.28-2.55l121-68.74a5,5,0,0,1,4.46-.14l72.62,41.95c1.15.67,1,1.81-.29,2.55l-121,68.74A4.93,4.93,0,0,1,364,390.36Z" style="fill:#1b1464"/><path d="M364,388.85l-72.62-42c-1.15-.67-1-1.81.28-2.55l121-68.74a5,5,0,0,1,4.46-.14l72.62,41.95c1.15.67,1,1.81-.29,2.55l-121,68.74A5,5,0,0,1,364,388.85Z" style="fill:blue"/><polygon points="427.47 338.74 379.46 311 385.7 307.45 433.71 335.19 427.47 338.74" style="fill:none;stroke:#e5e5e5;stroke-miterlimit:10"/><line x1="392.44" y1="303.63" x2="406.64" y2="311.83" style="fill:none;stroke:#e5e5e5;stroke-miterlimit:10"/><polygon points="407.16 350.27 359.15 322.54 365.39 318.99 413.4 346.73 407.16 350.27" style="fill:none;stroke:#e5e5e5;stroke-miterlimit:10"/><line x1="372.13" y1="315.16" x2="386.33" y2="323.37" style="fill:none;stroke:#e5e5e5;stroke-miterlimit:10"/><polygon points="386.85 361.81 338.83 334.08 345.08 330.53 393.09 358.26 386.85 361.81" style="fill:none;stroke:#e5e5e5;stroke-miterlimit:10"/><line x1="351.82" y1="326.7" x2="366.02" y2="334.91" style="fill:none;stroke:#e5e5e5;stroke-miterlimit:10"/><path d="M344,354.84l-17.38-10c-1.82-1.05-1.62-2.85.45-4h0a7.86,7.86,0,0,1,7-.22l17.39,10c1.82,1.05,1.61,2.86-.45,4h0A7.89,7.89,0,0,1,344,354.84Z" style="fill:#f05a24;stroke:#e5e5e5;stroke-miterlimit:10"/><polygon points="441.48 310.23 449.49 305.68 447.39 299.88 437.28 298.62 429.27 303.17 431.37 308.98 441.48 310.23" style="fill:#f1f1f1"/><path d="M344.81,306.69s-6-5,4.1-7.64c7.74-2,13.15-4.18,9.72-8.79" style="fill:none;stroke:#e5e5e5;stroke-miterlimit:10"/><path d="M137.52,333.72l2.72-1.59a5,5,0,0,1,5.08,0l6.51,3.76a2.55,2.55,0,0,1,0,4.4l-1.48.86Z" style="fill:#fff"/><path d="M183.57,338.92l-2.72,1.59a5,5,0,0,1-5.08,0l-6.51-3.76a2.54,2.54,0,0,1,0-4.39l1.48-.87Z" style="fill:#fff"/><path d="M172.69,338.75a3.86,3.86,0,0,1-2.72,1.76c-2.05.47-3.88-.75-10.32-5.18-4.56-3.13-6.19-4.27-8.27-3.91a6.22,6.22,0,0,0-3.51,2.16" style="fill:none;stroke:#e5e5e5;stroke-miterlimit:10"/><path d="M220.7,268.35l2.71-1.59a5.06,5.06,0,0,1,5.09,0L235,270.5a2.55,2.55,0,0,1,0,4.4l-1.48.86Z" style="fill:#fff"/><path d="M274.46,286.82l-2.71,1.59a5.06,5.06,0,0,1-5.09,0l-6.51-3.75a2.55,2.55,0,0,1,0-4.4l1.48-.86Z" style="fill:#fff"/><path d="M263.59,286.22a3.83,3.83,0,0,1-2.72,1.76c-2,.47-5.38-3.82-13-11.48-4.24-4.24-11.2-10.81-13.28-10.45a6.24,6.24,0,0,0-3.51,2.16" style="fill:none;stroke:#e5e5e5;stroke-miterlimit:10"/><path d="M345,290.48l4.73,2.72a3.72,3.72,0,0,0,3.76,0l7.62-4.39a2.49,2.49,0,0,0,0-4.3l-2.89-1.67Z" style="fill:#fff"/><path d="M260.12,340.22l2.79,1.61a7.27,7.27,0,0,0,7.25,0L275,339a3.16,3.16,0,0,0,0-5.48l-1.86-1.08Z" style="fill:#fff"/><path d="M357.59,306.94l-4.73-2.73a3.79,3.79,0,0,0-3.77,0l-7.61,4.4a2.49,2.49,0,0,0,0,4.3l2.89,1.67Z" style="fill:#fff"/><path d="M431.1,353.42l4.73,2.73a3.77,3.77,0,0,0,3.76,0l7.62-4.4a2.49,2.49,0,0,0,0-4.3l-2.89-1.67Z" style="fill:#fff"/><path d="M480.8,344l-4.73-2.73a3.77,3.77,0,0,0-3.76,0l-7.62,4.4a2.49,2.49,0,0,0,0,4.3l2.89,1.66Z" style="fill:#fff"/><path d="M469,343.16S459,338,455.06,348c-2.11,5.41-5.36,11-11.33,5.73" style="fill:none;stroke:#e5e5e5;stroke-miterlimit:10"/><path d="M272,340.77s2.72,4.31,9,.9,20.28-13.65,29-20.88a209.41,209.41,0,0,1,23.28-16.41c4-2.34,6.69-.82,10.43,2.92" style="fill:none;stroke:#e5e5e5;stroke-miterlimit:10"/><path d="M116.66,397.49l1.3,3s-3.46,2.6-2.81,3.39l3.21-1.32,1.51-.87-.22-6.88,1.6,1.36s-.94,4.6.54,5c1,.29,2.55-6,2.55-6l-3.09-1.95s2.14-.89,3.7-1.46c0,0,2.68,1.28,4.3,1,2-.32-3.65-3.65-3.65-3.65l-15.54,5-7.12,1.72,1,1.31,4,3.24,4-.61" style="fill:#faaf3b"/><polygon points="51.61 374.31 53.92 384.42 47.45 389.38 41.61 389.8 44.15 378.39 51.61 374.31" style="fill:#c59b6d"/><path d="M34,450.52s-.46-46.58,2.39-56.5c2.72-9.48,6.31-9.18,6.31-9.18-.68,2.85,1.2,4.16,3,4.29,2.85.2,6-5.93,9.25-4.73,5.59,2.06,11.43,10.12,8.45,26.7-1.38,7.69-1.27,32.48-1.27,32.48l1.39,10.77a1.93,1.93,0,0,1-1.85,1.83l-1.6.07L33.19,454h0l0-.85a3.3,3.3,0,0,1,.32-1.55Z" style="fill:#f1f1f1"/><path d="M63.26,363.25c1.15,7-5.73,12.81-12.8,12.81a12.81,12.81,0,1,1,0-25.61C57.53,350.45,61.44,352.14,63.26,363.25Z" style="fill:#faaf3b"/><path d="M66.84,349.24c-2.7,6.54-13.1,9.4-14.59,9.79-3.4.89-6.42,1-6.89,2.64-.42,1.52,1.81,2.52,3.69,6.35.85,1.74,2.55,5.21,1.41,8-1.57,3.88-7.67,4.53-8.51,4.61-8.14.86-17.35-5.19-17.49-10.85-.09-3.91,4.19-6.33,3.2-8-1.43-2.41-10.54,2.35-12.39-.2-1.64-2.26,2.7-9.83,6.64-9.71,3.68.11,5,6.83,7.35,6.51,3.16-.44.49-12.83,7.19-20.73,5.39-6.36,17.1-10.13,24.59-4.85C66.11,336.41,69,344,66.84,349.24Z" style="fill:#f05a24"/><path d="M55.18,398.23s19.14,32.4,29.46,32.39c4.11,0,23.36-30.17,23.36-30.17l-5-4-19.27,24.4-2.2-3.92s-16.89-27.17-26.37-31.39" style="fill:#f1f1f1;stroke:#e5e5e5;stroke-miterlimit:10"/><polyline points="105.7 395.57 125.6 389.14 129.48 392.03" style="fill:none;stroke:#fff;stroke-linecap:round;stroke-linejoin:round"/><polyline points="120.64 392.99 124.34 395.18 121.79 401.15" style="fill:none;stroke:#fff;stroke-linecap:round;stroke-linejoin:round"/><polyline points="119.65 394.77 119.87 401.65 115.15 403.84" style="fill:none;stroke:#fff;stroke-linecap:round;stroke-linejoin:round"/><polygon points="33.19 454.02 60.06 456.25 60.46 459.34 33.11 456.87 33.19 454.02"/><path d="M67.87,512.45,56.93,575.13h-5l1.47-51.06c.9-5.52,2.34-10.58,1.9-11.23l-6.16-19.48.77,27L38.76,581.47l-3.9,1-1.12-47.9A15.53,15.53,0,0,1,35.21,528l3.55-7.42s-9.2-34.75-8.35-48.31,2.71-16.14,2.71-16.14l2.73,1,3.69.33,20.92,1.89Z" style="fill:#0071bb"/><path d="M49.11,493.36S46.78,484,46,482.43c-1.13-2.25-7.22-2.86-7.22-2.86a3.92,3.92,0,0,1-3-.8" style="fill:none;stroke:#1b1464;stroke-miterlimit:10;stroke-width:0.75px"/><path d="M62,470.38s-5.51-1.46-5.51-9" style="fill:none;stroke:#1b1464;stroke-miterlimit:10;stroke-width:0.75px"/><line x1="55.27" y1="512.84" x2="59.24" y2="513.97" style="fill:none;stroke:#1b1464;stroke-miterlimit:10;stroke-width:0.75px"/><line x1="38.76" y1="520.61" x2="43.79" y2="519.31" style="fill:none;stroke:#1b1464;stroke-miterlimit:10;stroke-width:0.75px"/><path d="M61,360.8s2.17,1.43,2.27,2.45S61,364.36,61,364.36" style="fill:none;stroke:#1b1464;stroke-miterlimit:10;stroke-width:0.75px"/><circle cx="61.79" cy="357.79" r="0.8" style="fill:#1b1464"/><circle cx="56.16" cy="361.6" r="0.98" style="fill:#1b1464"/><path d="M60.63,369.38,57.75,369s.72,1.62,1.44,1.55S60.63,369.38,60.63,369.38Z" style="fill:#fff"/><path d="M424,269.65s-6.08-34.43-7.25-41.68-8-16.42-16.08-15.48-15.14-1.35-14.29,11.31A109.13,109.13,0,0,1,385,248.55" style="fill:#f1f1f1;stroke:#e5e5e5;stroke-miterlimit:10"/><ellipse cx="396.91" cy="204.2" rx="9.68" ry="13.31" style="fill:#c59b6d"/><path d="M384.29,196.11c4.59,2.33,9.08-2.55,13.78.47,3.11,2,2.38,4.9,6.42,7.61,3.53,2.36,5,.72,7.37,2.61,3.89,3,1.53,8.33,5,19,1.29,4,2.85,7.06,3.57,6.89,1.22-.29-2.15-9.56,2.58-15.45,1.7-2.12,3.27-2.32,3.6-4.28.54-3.24-3.39-4.8-3.6-9-.15-3.08,1.89-3.28,2.17-6.42.22-2.45-.84-4.29-8.56-13.78-5.45-6.71-6.11-7.24-7.32-7.51-4.85-1.05-6.85,4.73-13.59,5.6-7.8,1-11.88-5.83-15-3.8C377,180.46,378.36,193.09,384.29,196.11Z" style="fill:#1b1464"/><polyline points="404.5 231.15 399.54 241.04 369.26 234.72 368.26 240.08 402.66 252.13 415.11 241.64" style="fill:#f1f1f1;stroke:#e5e5e5;stroke-miterlimit:10"/><ellipse cx="355.58" cy="228.39" rx="3.37" ry="7.11" transform="translate(-60.9 156.67) rotate(-22.94)" style="fill:#2a2a29;stroke:#e5e5e5;stroke-miterlimit:10"/><line x1="358.35" y1="234.94" x2="362.98" y2="244.51" style="fill:#f1f1f1;stroke:#e5e5e5;stroke-miterlimit:10"/><polyline points="358.63 237.91 357.9 236.71 362.98 232.27 368.55 234.94" style="fill:none;stroke:#c59b6d;stroke-miterlimit:10"/><polyline points="365 236.2 363.23 235.09 359.17 239.37" style="fill:none;stroke:#c59b6d;stroke-miterlimit:10"/><line x1="363.22" y1="237.91" x2="361.13" y2="241.64" style="fill:none;stroke:#c59b6d;stroke-miterlimit:10"/><path d="M469.88,454.84,384.55,404c-1.35-.81-1.38-2.08-.06-2.84l122-70.3a5.24,5.24,0,0,1,4.84.08l85.33,50.84c1.35.81,1.38,2.08.06,2.84L474.72,454.93A5.27,5.27,0,0,1,469.88,454.84Z" style="fill:#1b1464"/><path d="M469.88,453.44l-85.33-50.85c-1.35-.8-1.38-2.07-.06-2.83l122-70.31a5.3,5.3,0,0,1,4.84.08l85.33,50.85c1.35.8,1.38,2.07.06,2.84l-121.95,70.3A5.27,5.27,0,0,1,469.88,453.44Z" style="fill:blue"/><path d="M564.51,392.26l-74-44.07c-1.36-.81-1.38-2.08-.06-2.84l11.7-6.75a5.3,5.3,0,0,1,4.84.08l74,44.08c1.35.81,1.38,2.08.06,2.84l-11.71,6.74A5.24,5.24,0,0,1,564.51,392.26Z" style="fill:none;stroke:#e5e5e5;stroke-miterlimit:10"/><path d="M482.8,413l-51.51-30.7c-1.35-.8-1.38-2.07-.06-2.83L480,351.32a5.3,5.3,0,0,1,4.84.08l51.51,30.7c1.36.81,1.39,2.08.07,2.84L487.64,413A5.27,5.27,0,0,1,482.8,413Z" style="fill:none;stroke:#e5e5e5;stroke-miterlimit:10"/><path d="M471.29,446l-12.08-7.2c-1.36-.81-1.39-2.08-.07-2.84l82.79-47.72a5.27,5.27,0,0,1,4.84.08l12.08,7.2c1.35.8,1.38,2.07.06,2.83l-82.79,47.73A5.28,5.28,0,0,1,471.29,446Z" style="fill:#d8df21"/><path d="M416.65,413.45l-19.41-11.57c-1.35-.8-1.38-2.07-.06-2.83l25.61-14.77a5.3,5.3,0,0,1,4.84.08L447,395.93c1.35.8,1.38,2.07.06,2.83l-25.62,14.77A5.28,5.28,0,0,1,416.65,413.45Z" style="fill:none;stroke:#e5e5e5;stroke-miterlimit:10"/><path d="M446.9,433.05l-19.4-11.56c-1.36-.81-1.38-2.08-.07-2.84l25.62-14.76a5.27,5.27,0,0,1,4.84.08l19.4,11.56c1.36.81,1.38,2.08.07,2.84l-25.62,14.77A5.27,5.27,0,0,1,446.9,433.05Z" style="fill:none;stroke:#e5e5e5;stroke-miterlimit:10"/><path d="M458.65,96.38l10.78,6.22s-.4,14-4.34,11c-3.22-2.4-7.78-5.6-7.78-5.6A2,2,0,0,0,458.6,106C458.6,104.35,458.65,96.38,458.65,96.38Z" style="fill:#ff0"/><path d="M458.65,111.74,469.43,118s-.4,14-4.34,11c-3.22-2.41-7.78-5.61-7.78-5.61a2,2,0,0,0,1.29-2C458.6,119.71,458.65,111.74,458.65,111.74Z" style="fill:#ff0"/><path d="M458.65,127.1l10.78,6.22s-.4,14-4.34,11.05c-3.22-2.41-7.78-5.6-7.78-5.6a2.06,2.06,0,0,0,1.29-2.05C458.6,135.07,458.65,127.1,458.65,127.1Z" style="fill:#ff0"/><path d="M458.65,142.46l10.78,6.22s-.4,14-4.34,11c-3.22-2.4-7.78-5.6-7.78-5.6a2,2,0,0,0,1.29-2C458.6,150.43,458.65,142.46,458.65,142.46Z" style="fill:#ff0"/><path d="M458.65,157.82l10.78,6.23s-.4,14-4.34,11c-3.22-2.4-7.78-5.6-7.78-5.6a2,2,0,0,0,1.29-2.05C458.6,165.8,458.65,157.82,458.65,157.82Z" style="fill:#29aae1"/><path d="M458.65,173.19l10.78,6.22s-.4,14-4.34,11.05c-3.22-2.41-7.78-5.61-7.78-5.61a2,2,0,0,0,1.29-2C458.6,181.16,458.65,173.19,458.65,173.19Z" style="fill:#ff0"/><path d="M472,103.76,482.73,110s-.4,14-4.34,11c-3.22-2.4-7.78-5.6-7.78-5.6a2,2,0,0,0,1.29-2C471.9,111.73,472,103.76,472,103.76Z" style="fill:#ff0"/><path d="M472,119.12l10.78,6.22s-.4,14-4.34,11c-3.22-2.41-7.78-5.61-7.78-5.61a2,2,0,0,0,1.29-2C471.9,127.09,472,119.12,472,119.12Z" style="fill:#f05a24"/><path d="M485.21,125.64,496,131.86s-.4,14-4.34,11c-3.22-2.4-7.78-5.6-7.78-5.6a2,2,0,0,0,1.29-2.05C485.15,133.61,485.21,125.64,485.21,125.64Z" style="fill:#ff0"/><path d="M472,134.48l10.78,6.22s-.4,14-4.34,11.05c-3.22-2.41-7.78-5.6-7.78-5.6a2.06,2.06,0,0,0,1.29-2.05C471.9,142.45,472,134.48,472,134.48Z" style="fill:#ff0"/><path d="M507,120.58l10.78,6.22s-.4,14-4.34,11c-3.22-2.4-7.79-5.6-7.79-5.6a2,2,0,0,0,1.3-2.05C506.91,128.55,507,120.58,507,120.58Z" style="fill:#ff0"/><path d="M507,135.94l10.78,6.22s-.4,14-4.34,11.05c-3.22-2.41-7.79-5.61-7.79-5.61a2,2,0,0,0,1.3-2C506.91,143.91,507,135.94,507,135.94Z" style="fill:#29aae1"/><path d="M519.08,188.55l10.78,6.22s-.4,14-4.34,11c-3.22-2.41-7.78-5.61-7.78-5.61a2,2,0,0,0,1.29-2C519,196.52,519.08,188.55,519.08,188.55Z" style="fill:#ff0"/><path d="M507,166.66l10.78,6.22s-.4,14-4.34,11.05c-3.22-2.4-7.79-5.6-7.79-5.6a2,2,0,0,0,1.3-2.05C506.91,174.63,507,166.66,507,166.66Z" style="fill:#ff0"/><path d="M507,182l10.78,6.23s-.4,14-4.34,11c-3.22-2.4-7.79-5.6-7.79-5.6a2,2,0,0,0,1.3-2.05C506.91,190,507,182,507,182Z" style="fill:#29aae1"/><path d="M507,197.39l10.78,6.22s-.4,14-4.34,11c-3.22-2.41-7.79-5.61-7.79-5.61a2,2,0,0,0,1.3-2.05C506.91,205.36,507,197.39,507,197.39Z" style="fill:#ff0"/><path d="M535.26,134.48,546,140.7s-.4,14-4.34,11.05c-3.22-2.41-7.78-5.6-7.78-5.6a2.06,2.06,0,0,0,1.29-2.05C535.21,142.45,535.26,134.48,535.26,134.48Z" style="fill:#ff0"/><path d="M533.19,149.84,544,156.06s-.4,14-4.34,11.05c-3.21-2.4-7.78-5.6-7.78-5.6a2,2,0,0,0,1.29-2C533.13,157.81,533.19,149.84,533.19,149.84Z" style="fill:#f05a24"/><path d="M530.35,177.29l10.78,6.22s-.4,14-4.34,11.05C533.57,192.15,529,189,529,189a2,2,0,0,0,1.29-2C530.3,185.26,530.35,177.29,530.35,177.29Z" style="fill:#ff0"/><path d="M520.26,158.68,531,164.9s-.4,14-4.34,11c-3.21-2.4-7.78-5.6-7.78-5.6a2.06,2.06,0,0,0,1.29-2C520.2,166.65,520.26,158.68,520.26,158.68Z" style="fill:#22b473"/><path d="M560.76,147.72l10.77,6.22s-.4,14-4.34,11.05c-3.22-2.4-7.78-5.6-7.78-5.6a2,2,0,0,0,1.29-2C560.7,155.69,560.76,147.72,560.76,147.72Z" style="fill:#ff0"/><path d="M560.76,163.08l10.77,6.23s-.4,14-4.34,11c-3.22-2.4-7.78-5.6-7.78-5.6a2,2,0,0,0,1.29-2.05C560.7,171.06,560.76,163.08,560.76,163.08Z" style="fill:#29aae1"/><path d="M572.88,215.69l10.77,6.23s-.4,14-4.34,11c-3.21-2.4-7.78-5.6-7.78-5.6a2,2,0,0,0,1.29-2.05C572.82,223.67,572.88,215.69,572.88,215.69Z" style="fill:#ff0"/><path d="M560.76,193.81,571.53,200s-.4,14-4.34,11.05c-3.22-2.41-7.78-5.61-7.78-5.61a2,2,0,0,0,1.29-2C560.7,201.78,560.76,193.81,560.76,193.81Z" style="fill:#ff0"/><path d="M560.76,209.17l10.77,6.22s-.4,14-4.34,11.05c-3.22-2.4-7.78-5.6-7.78-5.6a2.06,2.06,0,0,0,1.29-2.05C560.7,217.14,560.76,209.17,560.76,209.17Z" style="fill:#29aae1"/><path d="M560.76,224.53l10.77,6.22s-.4,14-4.34,11.05c-3.22-2.4-7.78-5.6-7.78-5.6a2,2,0,0,0,1.29-2C560.7,232.5,560.76,224.53,560.76,224.53Z" style="fill:#ff0"/><path d="M589.06,161.63l10.77,6.22s-.4,14-4.34,11c-3.21-2.4-7.78-5.6-7.78-5.6a2,2,0,0,0,1.29-2C589,169.6,589.06,161.63,589.06,161.63Z" style="fill:#ff0"/><path d="M587,177l10.78,6.22s-.4,14-4.34,11c-3.22-2.41-7.78-5.61-7.78-5.61a2,2,0,0,0,1.29-2C586.93,185,587,177,587,177Z" style="fill:#f05a24"/><path d="M584.15,204.43l10.78,6.23s-.4,14-4.34,11c-3.22-2.4-7.79-5.6-7.79-5.6a2,2,0,0,0,1.3-2C584.1,212.41,584.15,204.43,584.15,204.43Z" style="fill:#ff0"/><path d="M574.05,185.83l10.78,6.22s-.4,14-4.34,11c-3.22-2.4-7.78-5.6-7.78-5.6a2,2,0,0,0,1.29-2.05C574,193.8,574.05,185.83,574.05,185.83Z" style="fill:#22b473"/><path d="M328.75,125.38a1.67,1.67,0,0,0,0,.32h0Z" style="fill:#1b1464"/><path d="M361.86,122.35s8-33.15,18.07-52c7.31-13.62,24.89-38,24.89-38" style="fill:none;stroke:#000;stroke-miterlimit:10"/><path d="M293,3.2c-.67.37-12.9,7.43-13.84,21.05-.8,11.6,7,21.3,14.69,25.61,10.7,6,21.9,2,23.17,6.15,1.17,3.79-8.27,7.27-10.07,17.56-.4,2.3-1.13,6.5,1.13,9.66,4.91,6.83,18.82,1.7,20.69,5.92s-12.44,11.22-11,17.34,18.53,9.41,32.16,4.62c6.34-2.24,16.53-7.82,16-13.42-.75-7.27-18.93-7.7-20.11-15.85-1-7,11.59-11.53,10.17-17.67-1.55-6.7-17.43-5.06-20.25-13.36-1.56-4.6,2.7-6.87,3.87-14.17,1.78-11-4.92-24.69-16.34-31.53C321.12,3.86,306.71-4.45,293,3.2Z" style="fill:#228073"/><path d="M347.12,119.88s-6-41.11-37.14-98.33" style="fill:none;stroke:#2a2a29;stroke-miterlimit:10"/><line x1="499.4" y1="105.21" x2="499.4" y2="219.45" style="fill:none;stroke:#fff;stroke-miterlimit:10"/><line x1="552.72" y1="137.54" x2="552.72" y2="251.78" style="fill:none;stroke:#fff;stroke-miterlimit:10"/></g></g></svg>